<?xml version="1.0" standalone="no"?>
<!DOCTYPE svg PUBLIC "-//W3C//DTD SVG 1.1//EN" "http://www.w3.org/Graphics/SVG/1.1/DTD/svg11.dtd" >
<svg xmlns="http://www.w3.org/2000/svg" xmlns:xlink="http://www.w3.org/1999/xlink" version="1.1">
<metadata></metadata>
<defs>
<font id="hattonultralight" horiz-adv-x="450" >
<font-face units-per-em="2048" ascent="1638" descent="-410" />
<missing-glyph horiz-adv-x="573" />
<glyph horiz-adv-x="0" />
<glyph horiz-adv-x="682" />
<glyph unicode=" "  horiz-adv-x="573" />
<glyph unicode="&#x09;" horiz-adv-x="573" />
<glyph unicode="&#xa0;" horiz-adv-x="573" />
<glyph unicode="!" d="M143 41l82 82l82 -82l-82 -82zM188 1597l37 41l37 -41q-18 -348 -26 -1228h-21q-5 804 -27 1228z" />
<glyph unicode="&#x22;" horiz-adv-x="552" d="M143 1638h72q-3 -51 -9.5 -158t-10.5 -198t-7 -217h-20q-2 126 -5.5 214t-10.5 204t-9 155zM338 1638h72q-3 -51 -9.5 -158t-10.5 -198t-7 -217h-21q-1 98 -4 183.5t-5.5 133t-7.5 129.5t-7 127z" />
<glyph unicode="#" horiz-adv-x="2013" d="M143 205v41h441l168 655h-490v41h502l133 516h43l-133 -516h592l133 516h43l-133 -516h428v-41h-440l-168 -655h489v-41h-502l-133 -516h-43l133 516h-592l-133 -516h-43l133 516h-428zM627 246h592l167 655h-591z" />
<glyph unicode="$" horiz-adv-x="1400" d="M143 606l62 62q47 -257 183.5 -394t332.5 -165q4 458 4 761q-89 50 -142.5 82t-108.5 69t-84 65t-53 62.5t-33 69.5t-9 78q0 135 102.5 208t253.5 73q22 0 68 -4q0 26 -1 75t-1 72h51q0 -24 -1 -75t-1 -78q190 -35 381 -207l-62 -62q-118 204 -319 246q-6 -290 -6 -641 l41 -22q145 -80 228 -134t137 -109.5t72.5 -107t18.5 -122.5q0 -138 -120 -232t-316 -94q-37 0 -55 2q0 -115 2 -166h-51q2 53 2 168q-89 10 -164 39.5t-149 88t-140 156.5t-123 236zM326 1313q0 -28 6 -54t13.5 -47.5t27 -45t33.5 -40t46.5 -40t52.5 -37.5t65.5 -40.5 t71.5 -41t83 -45.5q0 348 -6 630q-40 4 -68 4q-135 0 -230 -63.5t-95 -179.5zM760 850q0 -300 4 -746q20 -2 57 -2q181 0 293.5 87.5t112.5 218.5q0 41 -10 76t-36.5 70t-59 65t-90.5 69t-117.5 74.5t-153.5 87.5z" />
<glyph unicode="%" horiz-adv-x="2189" d="M143 1249q0 96 40.5 186.5t123 157.5t189.5 82q145 23 329 18.5t344.5 -22t300.5 -45.5q-420 -941 -675 -1626l-78 12q412 921 669 1610q-72 4 -331 29.5t-414 17.5q98 -21 173 -88t112 -154t37 -178q0 -77 -28.5 -153t-79 -138t-130 -100.5t-172.5 -38.5t-172.5 38.5 t-130 100.5t-79 138t-28.5 153zM205 1249q0 -58 12.5 -114.5t39.5 -110.5t66.5 -94.5t99 -65t130.5 -24.5t130.5 24.5t99 65t66.5 94.5t39.5 110.5t12.5 114.5t-12.5 115t-39.5 110.5t-66.5 94.5t-99 65.5t-130.5 24.5t-130.5 -24.5t-99 -65.5t-66.5 -94.5t-39.5 -110.5 t-12.5 -115zM1227 389q0 77 28 153t79 138t130 100.5t172 38.5t172.5 -38.5t130 -100.5t79 -138t28.5 -153t-28.5 -153t-79 -138t-130 -100.5t-172.5 -38.5t-172 38.5t-130 100.5t-79 138t-28 153zM1288 389q0 -58 12.5 -114.5t39.5 -110.5t66.5 -94.5t99 -65t130.5 -24.5 q88 0 157.5 37t110 97.5t61 130.5t20.5 144q0 58 -12.5 115t-40 110.5t-67 94.5t-99 65.5t-130.5 24.5t-130.5 -24.5t-99 -65.5t-66.5 -94.5t-39.5 -110.5t-12.5 -115z" />
<glyph unicode="&#x26;" horiz-adv-x="1605" d="M102 410q0 76 23 143t67 121.5t91.5 96.5t111.5 85q-151 276 -151 471q0 153 97 252.5t269 99.5q82 0 147 -26t104 -69.5t59 -95.5t20 -108q0 -129 -76.5 -223t-265.5 -209q-130 -80 -139 -86q90 -164 282 -434q163 -232 269 -336q160 129 177 342t-130 420l61 61 q100 -155 121.5 -318.5t-33.5 -300t-174 -224.5q110 -92 205 -92q97 0 146.5 81.5t37.5 245.5l82 -41q-7 -158 -78.5 -232.5t-187.5 -74.5q-107 0 -231 94q-143 -94 -342 -94q-113 0 -212 27.5t-178.5 81t-125.5 141.5t-46 201zM164 410q0 -201 137 -315.5t363 -114.5 q183 0 319 92q-116 97 -297 340q-173 234 -276 417q-78 -56 -128 -109.5t-84 -133.5t-34 -176zM305 1327q0 -174 139 -438l140 84q174 107 234.5 194.5t60.5 212.5q0 54 -14.5 102t-45 88.5t-84 64.5t-125.5 24q-146 0 -225.5 -92.5t-79.5 -239.5z" />
<glyph unicode="'" horiz-adv-x="358" d="M143 1638h72q-3 -51 -9.5 -158t-10.5 -198t-7 -217h-20q-2 126 -5.5 214t-10.5 204t-9 155z" />
<glyph unicode="(" horiz-adv-x="737" d="M143 778q0 295 143 550t390 392v-20q-225 -134 -348 -385t-123 -537q0 -143 27.5 -282t82 -268t145 -237t208.5 -175v-21q-168 89 -288.5 248.5t-178.5 347t-58 387.5z" />
<glyph unicode=")" horiz-adv-x="737" d="M61 1700v20q247 -137 390 -392t143 -550q0 -200 -57.5 -387.5t-178 -347t-288.5 -248.5v21q118 67 208.5 175t144.5 237t81.5 268t27.5 282q0 286 -123 537t-348 385z" />
<glyph unicode="*" horiz-adv-x="1173" d="M143 1159v72q264 -21 418 -25q-156 146 -313 277l51 51q153 -180 276 -309q-7 206 -24 413h72q-22 -271 -27 -415q110 114 278 311l52 -51q-200 -171 -314 -277q151 3 416 25l2 -70q-228 19 -416 25q113 -107 312 -277l-52 -51q-169 199 -278 313q5 -147 27 -417h-72 q20 248 24 415q-123 -132 -276 -311l-51 51q190 162 311 277q-147 -5 -416 -27z" />
<glyph unicode="+" horiz-adv-x="1132" d="M102 506v51q250 -10 449 -10q0 198 -10 448h51q-12 -225 -12 -448q200 0 450 10v-51q-225 12 -450 12q0 -225 12 -450h-51q10 250 10 450q-224 0 -449 -12z" />
<glyph unicode="," d="M143 41l82 82l82 -82l-153 -317l-11 10l82 225z" />
<glyph unicode="-" horiz-adv-x="1337" d="M143 506v51q232 -11 525.5 -11t525.5 11v-51q-232 12 -525.5 12t-525.5 -12z" />
<glyph unicode="." d="M143 41l82 82l82 -82l-82 -82z" />
<glyph unicode="/" horiz-adv-x="1150" d="M143 -317q182 403 416.5 976.5t384.5 985.5l64 -29q-182 -403 -416.5 -976.5t-384.5 -985.5z" />
<glyph unicode="0" horiz-adv-x="1638" d="M164 819q0 189 50 350.5t137.5 273t208 174t259.5 62.5q138 0 259 -62.5t208.5 -174t138 -273t50.5 -350.5q0 -190 -50.5 -351.5t-138 -272.5t-208.5 -173.5t-259 -62.5q-186 0 -334.5 106.5t-234.5 303.5t-86 450zM225 819q0 -235 75 -426t211 -302t308 -111 q128 0 239 65t188.5 177t122 267t44.5 330q0 234 -75 425.5t-211.5 303t-307.5 111.5q-129 0 -240 -65.5t-188.5 -178t-121.5 -267t-44 -329.5z" />
<glyph unicode="1" horiz-adv-x="587" d="M61 991q211 317 275 647h67q-12 -209 -12 -368v-901q0 -179 10 -369h-71q10 190 10 369v1218q-40 -247 -231 -620z" />
<glyph unicode="2" horiz-adv-x="1288" d="M123 0q31 69 69 134.5t72 115.5t82 106t80 90.5t85.5 83.5t79 71t81 68t71.5 60q58 48 91 77.5t79.5 75t73 82.5t53.5 84.5t38.5 98t11.5 106.5q0 183 -116 294.5t-310 111.5q-191 0 -313 -102t-122 -246q0 -56 20.5 -102.5t57.5 -79t73.5 -53.5t82.5 -40l-41 -82 q-234 132 -234 357q0 73 34 139.5t94.5 117.5t151 81t196.5 30q220 0 353.5 -118t133.5 -308q0 -47 -11.5 -93.5t-28.5 -84.5t-48.5 -81t-57.5 -73.5t-71 -72t-74 -66.5t-80 -67q-27 -23 -109.5 -88t-130 -107.5t-119 -115t-133.5 -160.5t-118 -193h483q327 0 553 41 l-61 -92h-1022z" />
<glyph unicode="3" horiz-adv-x="1269" d="M102 467h21q15 -226 159 -356.5t367 -130.5q120 0 214 40t150 108.5t84.5 154t28.5 182.5q0 62 -11 117t-36 106t-65.5 87t-99 60t-136.5 25t-178 -18l-4 20q216 100 312 217t96 285q0 54 -15 103t-47 93.5t-91.5 71.5t-139.5 27q-74 0 -139 -25.5t-109 -62.5t-82.5 -92 t-60.5 -98.5t-44 -98.5l-81 41q192 356 516 356q90 0 160 -27.5t111 -74.5t62 -103t21 -118q0 -70 -24 -133.5t-60 -111.5t-92 -94.5t-106.5 -78t-116.5 -66.5q235 33 378.5 -76t143.5 -331q0 -101 -33.5 -190t-97.5 -160.5t-169.5 -113.5t-238.5 -42q-241 0 -386.5 136 t-160.5 372z" />
<glyph unicode="4" horiz-adv-x="1359" d="M82 500v20q158 148 293 303t220.5 275t153.5 235.5t99.5 183.5t50.5 121h64q-13 -226 -13 -368v-715q187 6 348 37l-41 -92h-307v-131q0 -160 11 -369h-72q10 190 10 369v131h-817zM160 567q209 -16 606 -16q90 0 133 2v1026q-20 -44 -32.5 -70.5t-50 -97t-73.5 -128.5 t-97.5 -148.5t-128 -173.5t-160 -187.5t-197.5 -206.5z" />
<glyph unicode="5" horiz-adv-x="1249" d="M82 453h20q15 -231 145 -352t355 -121q100 0 188 38t153.5 106.5t103.5 173t38 230.5q0 218 -122 336.5t-304 118.5q-186 0 -434 -160l-12 11l113 804h712l41 -92q-226 41 -532 41h-207l-102 -725q239 162 444 162q203 0 334 -134t131 -362q0 -172 -74 -303t-197 -198.5 t-274 -67.5q-243 0 -374 126.5t-146 367.5z" />
<glyph unicode="6" horiz-adv-x="1413" d="M164 758q0 271 71 479.5t204.5 325t308.5 116.5q247 0 430 -233l-82 -41q-21 46 -50.5 87t-72 80.5t-101 63t-124.5 23.5q-162 0 -281.5 -115.5t-180.5 -316.5t-61 -461v-21q255 279 533 279q98 0 186 -35.5t156 -101t108.5 -168t40.5 -227.5q0 -121 -43 -223t-115 -169 t-165 -104t-195 -37q-150 0 -260.5 58t-176.5 166t-98 251t-32 324zM225 727q13 -747 506 -747q91 0 173.5 34.5t145.5 98t100.5 162t37.5 217.5q0 246 -121 379t-309 133q-133 0 -263 -68.5t-270 -208.5z" />
<glyph unicode="7" horiz-adv-x="1138" d="M20 1638h1016v-20l-522 -1301q-60 -148 -111 -317h-63q96 185 145 307l514 1280h-432q-274 0 -485 -41z" />
<glyph unicode="8" horiz-adv-x="1390" d="M143 428q0 182 122.5 304.5t314.5 154.5q-108 22 -185.5 86t-113 142.5t-35.5 162.5q0 71 28 140.5t81.5 128.5t142 95.5t198.5 36.5q109 0 197.5 -36.5t141.5 -95.5t81.5 -128.5t28.5 -140.5q0 -84 -35.5 -162.5t-113 -142.5t-185.5 -86q192 -32 314 -154.5t122 -304.5 q0 -141 -75 -249t-199.5 -164t-276.5 -56q-153 0 -278 56t-200 164t-75 249zM205 428q0 -136 66.5 -239t177.5 -156t247 -53q135 0 245.5 53t177.5 156t67 239q0 201 -141.5 323.5t-348.5 122.5q-136 0 -247 -53t-177.5 -156t-66.5 -237zM307 1278q0 -69 23.5 -134.5 t69 -122.5t122.5 -91.5t174 -34.5q96 0 172.5 34.5t122 91.5t69 122.5t23.5 134.5q0 68 -23.5 133.5t-69 122t-122 91t-172.5 34.5q-78 0 -143.5 -23t-110 -61t-76 -88t-45.5 -102.5t-14 -106.5z" />
<glyph unicode="9" horiz-adv-x="1372" d="M123 1147q0 121 43 222.5t115 168.5t165 104t195 37q120 0 215.5 -38t161 -107t108.5 -169t62.5 -220t19.5 -264q0 -271 -71 -480t-204 -325.5t-308 -116.5q-247 0 -430 234l81 40q21 -46 51 -87t72 -80.5t101 -62.5t125 -23q162 0 281 115.5t180 316t61 460.5v21 q-255 -279 -533 -279q-98 0 -186 35.5t-156 101.5t-108.5 168.5t-40.5 227.5zM184 1147q0 -246 121 -379t309 -133q133 0 263 68t270 208q-13 748 -506 748q-91 0 -173.5 -34.5t-145.5 -98t-100.5 -162t-37.5 -217.5z" />
<glyph unicode=":" d="M143 41l82 82l82 -82l-82 -82zM143 901l82 82l82 -82l-82 -82z" />
<glyph unicode=";" d="M143 41l82 82l82 -82l-153 -317l-11 10l82 225zM143 901l82 82l82 -82l-82 -82z" />
<glyph unicode="&#x3c;" horiz-adv-x="796" d="M102 532q55 37 144 95t138.5 91t127 87t156.5 113l26 -46q-51 -29 -92 -53t-86 -52t-66 -40.5t-72 -46t-62.5 -41t-79 -52.5l-82.5 -55q271 -180 400 -257q61 -37 140 -82l-26 -46q-102 76 -183 132t-207 137.5t-176 115.5z" />
<glyph unicode="=" horiz-adv-x="1132" d="M102 342v51q464 -21 928 0v-51q-464 24 -928 0zM102 670v51q464 -21 928 0v-51q-464 24 -928 0z" />
<glyph unicode="&#x3e;" horiz-adv-x="796" d="M102 193q117 67 208.5 123.5t142.5 89.5t190 126q-13 9 -66 44t-62.5 41.5t-52 34.5t-55.5 36t-49 31t-57 35.5t-56.5 34t-69 41t-73.5 42.5l27 46q79 -59 156.5 -113.5t126 -86.5t139 -91.5t143.5 -94.5q-56 -37 -144 -94.5t-138 -90.5t-127 -87t-156 -113z" />
<glyph unicode="?" horiz-adv-x="985" d="M143 1333q115 346 404 346q76 0 141 -33t109.5 -106t44.5 -174q0 -71 -21 -136t-54.5 -118.5t-73.5 -108t-80.5 -116t-74 -130.5t-54.5 -164t-21 -204h-21q0 109 18.5 204t48.5 164t66 130.5t72 116t66 108t48.5 118.5t18.5 136q0 133 -63 213t-170 80q-124 0 -205 -95 t-117 -272zM371 41l82 82l82 -82l-82 -82z" />
<glyph unicode="@" horiz-adv-x="1878" d="M113 690q23 169 94.5 310.5t183.5 244.5t268 161t340 58q193 0 350 -64.5t257 -176.5t143 -268.5t16 -336.5q-33 -219 -138 -350t-259 -131q-43 0 -74.5 10t-51 26t-31 41.5t-15.5 50t-2.5 57.5t5.5 59t11 59q-65 -145 -177 -234t-253 -89q-128 0 -212.5 74t-112 189.5 t-2.5 248.5q41 218 185.5 365t334.5 147q197 0 323 -215v-11l39 226h51l-112 -635q-2 -10 -7.5 -40t-8 -48t-6.5 -50t-3.5 -52.5t2.5 -47.5t11 -44.5t22 -33.5t34.5 -24t49.5 -8q140 0 241.5 120.5t133.5 339.5q26 175 -14 327t-136 262t-250 173.5t-348 63.5 q-179 0 -331.5 -57t-261 -158t-178 -239t-91.5 -300q-25 -181 17.5 -339t143.5 -274t266 -182.5t374 -66.5q181 0 313 41t281 137l10 -18q-149 -97 -286.5 -139t-321.5 -42q-210 0 -377.5 67.5t-272 185.5t-149 280.5t-18.5 349.5zM498.5 482.5q-0.5 -70.5 16 -134t49 -110 t88.5 -74t130 -27.5q88 0 165.5 36.5t133.5 99t96 142t60 169.5l57 323q-133 213 -325 213q-90 0 -167 -38.5t-133.5 -106t-95.5 -155.5t-59 -191q-15 -76 -15.5 -146.5z" />
<glyph unicode="A" horiz-adv-x="1220" d="M102 0q14 28 24 54t14.5 41t13 45.5t14.5 49.5l401 1375q3 12 3 24q0 24 -11 49h68l415 -1445q31 -104 74 -193h-86q-1 13 -2 24.5t-3 23.5t-3 19.5t-4 21l-4 18t-5.5 20t-5.5 19t-7 23.5t-7 24l-119 415h-561l-121 -415q-6 -20 -16 -50.5t-14.5 -46.5t-9.5 -42t-7 -54 h-41zM317 629h549l-272 944z" />
<glyph unicode="B" horiz-adv-x="1155" d="M143 0q11 209 11 369v901q0 159 -11 368h267q56 0 104 -3t104.5 -12.5t101.5 -25.5t89 -43.5t73.5 -64t47.5 -90t18 -119.5q0 -145 -84 -230.5t-270 -109.5q68 -12 129.5 -34t123 -61t106 -91t72.5 -128.5t28 -168.5q0 -102 -35 -182t-92.5 -131t-139.5 -84t-169 -46.5 t-187 -13.5h-287zM205 20h225q90 0 170.5 15.5t152.5 49.5t124.5 84.5t83 126t30.5 167.5q0 108 -39 193.5t-97.5 135.5t-133 83t-138 45t-120.5 12h-21h-237v-912zM205 952h237q235 0 340 84t105 244q0 61 -17.5 112t-46.5 85t-70 60.5t-82.5 41.5t-91 24t-89 12t-80.5 3 h-205v-666z" />
<glyph unicode="C" horiz-adv-x="1671" d="M123 840q0 175 58 330.5t158 267t241 176.5t301 65q210 0 360.5 -103.5t253.5 -307.5l-82 -21q-31 86 -76.5 157t-109.5 130t-152.5 92t-193.5 33q-151 0 -282 -65t-221.5 -175.5t-142 -260.5t-51.5 -318q0 -138 26.5 -263.5t82.5 -235t136.5 -189.5t195 -126t252.5 -46 q145 0 263.5 51.5t201.5 146t139 216.5t88 274h20q-32 -160 -89 -287t-143 -223t-208 -147.5t-272 -51.5q-145 0 -268 46t-211.5 127.5t-151 192t-93 241.5t-30.5 274z" />
<glyph unicode="D" horiz-adv-x="1345" d="M143 0q11 209 11 369v901q0 159 -11 368h308q362 0 567 -212.5t205 -606.5q0 -384 -204 -601.5t-568 -217.5h-308zM205 20h246q154 0 284 53.5t225 153.5t148 252t53 340q0 195 -53 348.5t-148.5 251.5t-224.5 148.5t-284 50.5h-246v-1598z" />
<glyph unicode="E" horiz-adv-x="1083" d="M143 0q15 204 15 369v901q0 164 -15 368h811l-61 -61q-211 41 -485 41h-199v-733h156q219 0 409 20v-61q-190 20 -409 20h-156v-844h280q307 0 533 41l-41 -61h-838z" />
<glyph unicode="F" horiz-adv-x="1056" d="M143 0q15 204 15 369v901q0 164 -15 368h852l-61 -61q-211 41 -485 41h-240v-836h115q209 0 409 21v-62q-200 21 -409 21h-115v-393q0 -179 14 -369h-80z" />
<glyph unicode="G" horiz-adv-x="1746" d="M123 840q0 175 58 330.5t158 267t241 176.5t301 65q210 0 360.5 -103.5t253.5 -307.5l-82 -21q-31 86 -76.5 157t-109.5 130t-152.5 92t-193.5 33q-151 0 -282 -65t-221.5 -175.5t-142 -260.5t-51.5 -318q0 -171 45.5 -324t129.5 -270.5t214 -186.5t289 -69 q296 0 463 215.5t182 605.5h-55q-274 0 -485 -41l-62 61h801v-20h-178v-360q0 -240 20 -451h-61q20 211 20 451v151q-51 -310 -216 -476.5t-429 -166.5q-168 0 -308.5 71t-234 191.5t-145 280.5t-51.5 338z" />
<glyph unicode="H" horiz-adv-x="1245" d="M143 0q11 209 11 369v901q0 159 -11 368h72q-10 -190 -10 -368v-441h835v441q0 178 -10 368h72q-10 -190 -10 -368v-901q0 -179 10 -369h-72q10 190 10 369v440h-835v-440q0 -179 10 -369h-72z" />
<glyph unicode="I" horiz-adv-x="358" d="M143 0q11 209 11 369v901q0 159 -11 368h72q-10 -190 -10 -368v-901q0 -179 10 -369h-72z" />
<glyph unicode="J" horiz-adv-x="399" d="M41 -434q60 35 91 72.5t47 101.5t16 170v1360q0 159 -11 368h72q-10 -190 -10 -368v-1360q0 -107 -23 -177t-62.5 -109t-109.5 -75z" />
<glyph unicode="K" horiz-adv-x="1294" d="M143 0q11 209 11 369v901q0 159 -11 368h72q-10 -190 -10 -368v-543l626 719q98 113 148 192h59q-78 -74 -178 -190l-450 -518l612 -717q98 -115 211 -213h-111q-51 77 -168 213l-579 678l-170 -195v-327q0 -179 10 -369h-72z" />
<glyph unicode="L" horiz-adv-x="1021" d="M143 0q15 204 15 369v901q0 159 -11 368h72q-10 -190 -10 -368v-1250h199q306 0 532 41l-41 -61h-756z" />
<glyph unicode="M" horiz-adv-x="1835" d="M143 0q11 209 11 369v901q0 159 -11 368h39l748 -1605l721 1605h41q-11 -209 -11 -368v-901q0 -160 11 -369h-72q10 190 10 369v1171l-710 -1581h-13l-733 1575v-1165q0 -179 10 -369h-41z" />
<glyph unicode="N" horiz-adv-x="1421" d="M143 0q11 209 11 369v901q0 159 -11 368h41l1063 -1562v1194q0 178 -10 368h41q-10 -190 -10 -368v-901q0 -179 10 -369h-41l-1063 1563v-1194q0 -179 10 -369h-41z" />
<glyph unicode="O" horiz-adv-x="1966" d="M123 819q0 175 65.5 333.5t178 274.5t273.5 184t343 68q242 0 440 -116t309 -313t111 -431q0 -176 -65.5 -334.5t-178.5 -274t-273.5 -183.5t-342.5 -68t-343 68t-274 183.5t-178 274t-65 334.5zM184 819q0 -129 37 -253t108.5 -229.5t167.5 -185.5t222 -125.5t264 -45.5 q172 0 323 70.5t254 187t162.5 268.5t59.5 313q0 107 -26.5 211.5t-75.5 197.5t-121 172.5t-159 136.5t-194.5 89.5t-222.5 32.5q-172 0 -323.5 -71t-254.5 -188t-162 -268.5t-59 -312.5z" />
<glyph unicode="P" horiz-adv-x="1112" d="M143 0q11 209 11 369v901q0 159 -11 368h246q106 0 194 -12t169 -43t136.5 -79.5t88.5 -126.5t33 -179t-33 -179t-88.5 -126.5t-136.5 -79.5t-169 -43t-194 -12h-184v-389q0 -179 10 -369h-72zM205 778h184q88 0 164 11t150.5 40t127 75t85 121t32.5 173t-32.5 173 t-85 121t-127 75t-150.5 40t-164 11h-184v-840z" />
<glyph unicode="Q" horiz-adv-x="1966" d="M123 819q0 175 65.5 333.5t178 274.5t273.5 184t343 68q242 0 440 -116t309 -313t111 -431q0 -204 -85 -382t-238.5 -298t-348.5 -162q0 -1 5 -6q35 -48 68.5 -78t85.5 -49.5t120 -19.5v-21q-113 0 -190.5 29.5t-129.5 97.5l-26 37q-52 -8 -121 -8q-182 0 -343 68 t-274 183.5t-178 274t-65 334.5zM184 819q0 -177 68 -340t197 -286.5t296 -176.5q79 125 193 125q71 0 118.5 -36t98.5 -107q184 42 328.5 166t221.5 295.5t77 359.5q0 107 -26.5 211.5t-75.5 197.5t-121 172.5t-159 136.5t-194.5 89.5t-222.5 32.5q-172 0 -323.5 -71 t-254.5 -188t-162 -268.5t-59 -312.5zM766 10q102 -30 217 -30q62 0 109 8q-48 76 -73 98q-38 35 -87 35q-50 0 -94 -32.5t-72 -78.5z" />
<glyph unicode="R" horiz-adv-x="1355" d="M143 0q11 209 11 369v901q0 159 -11 368h246q106 0 194 -12t169 -43t136.5 -79.5t88.5 -126.5t33 -179q0 -400 -510 -436q124 -27 216 -110t154 -253q56 -153 111.5 -234t122.5 -113t170 -32v-20q-69 0 -123 9.5t-96.5 33t-73.5 51.5t-59.5 75.5t-49 94t-47.5 117.5 q-34 92 -77 158.5t-89.5 108.5t-104.5 67t-116 34t-131 9h-102v-389q0 -179 10 -369h-72zM205 778h184q88 0 164 11t150.5 40t127 75t85 121t32.5 173t-32.5 173t-85 121t-127 75t-150.5 40t-164 11h-184v-840z" />
<glyph unicode="S" horiz-adv-x="1153" d="M82 504l82 20q9 -243 148 -393.5t343 -150.5q164 0 269.5 92.5t105.5 273.5q0 30 -6.5 60t-15.5 55.5t-28 55t-35.5 52t-47.5 53.5t-53.5 52.5t-63.5 56.5t-68 57.5t-77.5 64t-81.5 67.5q-24 20 -70 58t-64.5 53t-53.5 45t-48.5 44t-38 40t-33.5 41.5t-23 39.5t-19 44.5 t-9 45.5t-4 53q0 137 93.5 216t253.5 79q310 0 464 -360l-81 -21q-6 69 -31 130.5t-69 114.5t-117 84.5t-166 31.5q-142 0 -224 -69.5t-82 -188.5q0 -41 8 -76.5t27.5 -68.5t39 -58.5t57 -59t65.5 -56.5t80 -64t86 -70q25 -21 72 -60q56 -47 83 -69.5t72.5 -61.5t66.5 -60 t53.5 -55t47.5 -56.5t34.5 -54.5t27.5 -59t14 -59.5t6 -66.5q0 -95 -33 -170t-90 -121.5t-132 -71t-161 -24.5q-78 0 -146.5 17t-135 56.5t-120.5 101t-98.5 155.5t-72.5 215z" />
<glyph unicode="T" horiz-adv-x="1144" d="M41 1638h1063l-62 -61q-211 41 -424 41h-20v-1249q0 -179 10 -369h-71q10 190 10 369v1249h-21q-213 0 -424 -41z" />
<glyph unicode="U" horiz-adv-x="1318" d="M123 1638h72q-11 -209 -11 -368v-574q0 -371 117 -538.5t363 -167.5q125 0 216 37.5t156 120t97 219t32 329.5v574q0 178 -10 368h41q-10 -190 -10 -368v-574q0 -199 -34 -341t-102.5 -229t-164.5 -127t-226 -40q-106 0 -185.5 21t-146 72t-108 135t-64 210.5 t-22.5 298.5v574q0 178 -10 368z" />
<glyph unicode="V" horiz-adv-x="1220" d="M102 1638h86q1 -15 2.5 -28.5t3 -23.5t4.5 -24t4 -20t5.5 -22.5t6 -21t7.5 -26t8 -26.5l398 -1380l403 1380q6 20 16 50.5t14.5 46t9.5 41.5t7 54h41q-14 -28 -24 -53.5t-14.5 -41.5t-12.5 -45.5t-14 -49.5l-402 -1374q-3 -12 -3 -24q0 -24 11 -50h-67l-416 1446 q-30 102 -74 192z" />
<glyph unicode="W" horiz-adv-x="1865" d="M102 1638h86q1 -15 2.5 -28.5t3 -23.5t4.5 -24t4 -20t5.5 -22.5t6 -21t7.5 -26t8 -26.5l398 -1380l299 1019l-105 361q-32 107 -73 192h86q3 -38 9 -71t11 -51.5t20 -69.5l78 -268l78 268q6 20 16 50.5t14.5 46t9.5 41.5t7 54h41q-14 -28 -24 -53.5t-14.5 -41.5 t-12.5 -45.5t-14 -49.5l-90 -309l309 -1073l403 1380q6 20 16 50.5t14.5 46t9.5 41.5t7 54h41q-14 -28 -24 -53.5t-14.5 -41.5t-12.5 -45.5t-14 -49.5l-402 -1374q-3 -11 -3 -22q0 -24 12 -52h-68l-301 1049l-285 -975q-3 -12 -3 -24q0 -24 11 -50h-67l-416 1446 q-30 102 -74 192z" />
<glyph unicode="X" horiz-adv-x="1132" d="M82 1638h86q26 -73 86 -186l319 -594l334 594q66 120 97 186h40q-20 -28 -36 -53.5t-24.5 -40.5t-24 -44t-25.5 -48l-346 -621l346 -645q33 -63 54 -97t63 -89h-86q-43 105 -86 186l-320 596l-334 -596q-61 -110 -98 -186h-41q51 75 113 186l346 621l-346 645 q-33 63 -54 97t-63 89z" />
<glyph unicode="Y" horiz-adv-x="1292" d="M102 1638h93q7 -20 14 -37.5t12.5 -30t15 -30.5t14.5 -27.5t18.5 -32.5t19.5 -34l379 -688l383 688q63 112 102 192h37q-59 -90 -115 -190l-399 -719v-360q0 -179 10 -369h-72q11 209 11 369v360l-396 717q-43 78 -127 192z" />
<glyph unicode="Z" horiz-adv-x="1323" d="M102 0v41l1033 1577h-443q-274 0 -485 -41l-62 61h1037v-41l-1032 -1577h585q275 0 486 41l-41 -61h-1078z" />
<glyph unicode="[" horiz-adv-x="737" d="M143 -205v1925h533v-20h-481v-1884h481v-21h-533z" />
<glyph unicode="\" horiz-adv-x="1150" d="M143 1616l64 29q150 -412 384.5 -985.5t416.5 -976.5l-64 -29q-150 412 -384.5 985.5t-416.5 976.5z" />
<glyph unicode="]" horiz-adv-x="737" d="M61 -184h482v1884h-482v20h533v-1925h-533v21z" />
<glyph unicode="^" horiz-adv-x="860" d="M102 1251q45 55 156 184t172 203q61 -74 172 -203t156 -184q-9 -26 -31 -22.5t-47 28.5q-15 15 -28 29.5t-29 36t-26.5 36t-32.5 48.5t-35 54.5t-46 72.5t-53 84q-20 -32 -53 -84t-46 -72.5t-35 -54.5t-32.5 -48.5t-26.5 -36t-29 -36t-28 -29.5q-25 -25 -47 -28.5 t-31 22.5z" />
<glyph unicode="_" horiz-adv-x="1720" d="M143 -82q319 -12 716.5 -12t717.5 12v-51q-319 11 -716.5 11t-717.5 -11v51z" />
<glyph unicode="`" horiz-adv-x="563" d="M102.5 1495q-3.5 22 22.5 31l336 -297l-10 -10q-131 81 -200.5 130t-119.5 99q-25 25 -28.5 47z" />
<glyph unicode="a" horiz-adv-x="1026" d="M123 221q0 72 27 125.5t80.5 89t120 57t157.5 35.5q161 24 216 47q97 39 97 125q0 125 -57.5 194t-165.5 69q-54 0 -101.5 -10t-78.5 -23.5t-61.5 -35.5t-45.5 -37t-35 -37.5t-26 -28.5q-21 -21 -45.5 -28t-42 3t-19.5 35q246 182 455 182q271 0 274 -274v-340 q0 -84 1 -128.5t8 -112t22 -128.5h-72q-10 161 -10 285q-17 -66 -47.5 -122.5t-77 -103t-114.5 -73.5t-150 -27q-134 0 -221.5 69t-87.5 193zM184 221q0 -113 70.5 -177t183.5 -64q172 0 277.5 129.5t105.5 334.5v183q-18 -28 -46.5 -47.5t-75.5 -33t-83.5 -20.5t-107.5 -18 q-161 -24 -242.5 -93.5t-81.5 -193.5z" />
<glyph unicode="b" horiz-adv-x="1099" d="M143 1638h72q-10 -190 -10 -368v-502q70 92 172 153.5t211 61.5q117 0 211 -68.5t146 -185.5t52 -258q0 -144 -48 -259t-144 -184t-225 -69q-142 0 -240 92t-135 240q0 -120 20 -291h-71v1270q0 159 -11 368zM205 459q0 -95 23.5 -180t68.5 -152.5t118 -107t165 -39.5 t162 38t111.5 106.5t62 155.5t20.5 191q0 137 -39.5 247t-119.5 177.5t-189 67.5q-107 0 -210 -62t-173 -153v-289z" />
<glyph unicode="c" horiz-adv-x="1040" d="M102 471q0 230 120 371t319 141q72 0 134.5 -23.5t106.5 -63.5t74.5 -84t48.5 -93q-7 -19 -26.5 -23t-38 9.5t-23.5 39.5q-3 20 -10.5 42t-27.5 55.5t-48 58.5t-78 43.5t-112 18.5q-185 0 -281 -133t-96 -359q0 -76 14.5 -147t45.5 -134t75 -109.5t106.5 -73.5t137.5 -27 q70 0 129 23t99 57t74 86t53.5 97.5t39.5 104.5h20q-116 -389 -415 -389q-200 0 -320.5 141t-120.5 371z" />
<glyph unicode="d" horiz-adv-x="1122" d="M102 471q0 141 52.5 258t146.5 185.5t211 68.5q109 0 211 -61.5t172 -153.5v502q0 168 -21 368h72v-1290q0 -68 1 -104t8.5 -99.5t23.5 -144.5h-72q-12 172 -12 291q-37 -148 -134.5 -240t-240.5 -92q-129 0 -225.5 69t-144.5 184t-48 259zM164 471q0 -104 20.5 -191 t62 -155.5t111.5 -106.5t162 -38t165 39.5t118 107t68.5 152.5t23.5 180v289q-70 91 -173 153t-210 62q-109 0 -189 -67.5t-119.5 -177.5t-39.5 -247z" />
<glyph unicode="e" horiz-adv-x="1060" d="M102 471q0 226 126 369t315 143q90 0 163.5 -32t119.5 -84.5t71 -118t25 -134.5h-746q-12 -68 -12 -143q0 -95 26 -182.5t75 -156.5t127.5 -110.5t174.5 -41.5q292 0 391 368h21q-44 -180 -146.5 -284.5t-265.5 -104.5q-209 0 -337 141.5t-128 370.5zM180 635h680 q0 136 -82.5 232t-234.5 96q-139 0 -234 -88t-129 -240z" />
<glyph unicode="f" horiz-adv-x="675" d="M41 922v20h213v178q0 161 19 271t58.5 172.5t91.5 89t126 26.5q22 0 43.5 -2t48.5 -9t41.5 -11t49.5 -17.5t44.5 -17t53.5 -22t51 -21.5q0 -30 -29 -39q-8 -3 -17 -3q-23 0 -55 17q-13 7 -59 39.5t-85.5 49t-86.5 16.5q-128 0 -186 -122.5t-58 -416.5v-178h311v-20h-311 v-553q0 -179 10 -369h-71q10 190 10 369v553h-213z" />
<glyph unicode="g" horiz-adv-x="1331" d="M102 33q0 145 228 274q-66 54 -103 128t-37 159q0 162 126 275.5t305 113.5q140 0 256 -76q95 73 181.5 112.5t182.5 43.5q16 -29 0.5 -47.5t-57.5 -18.5h-25h-10q-74 0 -113 -14q-43 -15 -141 -88q73 -56 114.5 -133.5t41.5 -167.5q0 -161 -126 -275t-304 -114 q-158 0 -275 90q-100 -64 -141 -120.5t-41 -133.5q0 -27 6 -50.5t21 -46t44 -35.5t70 -13q70 0 147.5 21.5t147 52t138.5 61t144.5 52t143.5 21.5q105 0 164 -49t59 -133q0 -95 -66 -181t-173 -145t-244 -93.5t-277 -34.5q-79 0 -147 14t-123 41.5t-86 74t-31 107.5 q0 49 29 92.5t78 73.5q-51 20 -79 62t-28 100zM123 -295q0 -100 103 -153.5t263 -53.5q181 0 341.5 57t259 157.5t98.5 219.5q0 61 -39.5 106.5t-122.5 45.5q-78 0 -176 -36t-177 -78.5t-180.5 -78.5t-187.5 -36q-40 0 -78 10q-104 -55 -104 -160zM252 594q0 -157 102 -263 t267 -106t266.5 106t101.5 263t-101.5 263t-266.5 106t-267 -106t-102 -263z" />
<glyph unicode="h" horiz-adv-x="1013" d="M143 0q11 165 11 369v901q0 203 -11 368h72q-10 -150 -10 -368v-553q22 47 57 91.5t82.5 85t110.5 65t129 24.5q142 0 209 -89.5t67 -277.5v-247q0 -179 10 -369h-71q10 190 10 369v247q0 347 -231 347q-68 0 -130.5 -27.5t-109 -72.5t-78 -89.5t-55.5 -91.5v-313 q0 -219 10 -369h-72z" />
<glyph unicode="i" d="M143 1311l82 82l82 -82l-82 -82zM190 0q11 142 11 348v246q0 206 -11 348h72q-10 -129 -10 -348v-246q0 -219 10 -348h-72z" />
<glyph unicode="j" horiz-adv-x="382" d="M82 -475q32 37 48 61.5t30 76.5t14 124v786q0 219 -10 369h72q-11 -165 -11 -369v-786q0 -93 -35 -155.5t-98 -123.5zM117 1311l82 82l82 -82l-82 -82z" />
<glyph unicode="k" horiz-adv-x="997" d="M143 0q11 165 11 369v901q0 203 -11 368h72q-10 -150 -10 -368v-660q37 173 134.5 273t231.5 100q103 0 161.5 -52.5t58.5 -146.5q0 -120 -126.5 -200.5t-345.5 -87.5q266 -47 435 -275q41 -54 92 -125t69 -96h-86q-21 61 -45 105t-79 116q-96 128 -210.5 193t-285.5 78 q-4 -54 -4 -84v-39q0 -219 10 -369h-72zM209 510q251 0 385.5 70.5t134.5 203.5q0 79 -42 129t-116 50q-146 0 -243 -123t-119 -330z" />
<glyph unicode="l" horiz-adv-x="358" d="M143 0q11 165 11 369v901q0 203 -11 368h72q-10 -150 -10 -368v-901q0 -219 10 -369h-72z" />
<glyph unicode="m" horiz-adv-x="1380" d="M143 0q11 142 11 348v246q0 206 -11 348h72q-6 -78 -10 -223q22 47 53 90.5t72.5 84t95 65t109.5 24.5q91 0 133.5 -67t48.5 -197q31 65 74 121t111.5 99.5t141.5 43.5q98 0 140.5 -78t42.5 -227v-309q0 -179 10 -369h-72q11 209 11 369v288q0 161 -31 233.5t-107 72.5 q-184 0 -321 -277v-8v-309q0 -179 10 -369h-72q11 209 11 369v288q0 161 -31 233.5t-107 72.5q-184 0 -323 -281v-88v-246q0 -219 10 -348h-72z" />
<glyph unicode="n" horiz-adv-x="1013" d="M143 0q11 142 11 348v246q0 206 -11 348h72q-6 -78 -10 -223q49 102 150.5 183t228.5 81q142 0 209 -89.5t67 -277.5v-247q0 -179 10 -369h-71q10 190 10 369v247q0 347 -231 347q-68 0 -130.5 -27.5t-109 -72.5t-78 -89.5t-55.5 -91.5v-88v-246q0 -219 10 -348h-72z" />
<glyph unicode="o" horiz-adv-x="1187" d="M102 471q0 143 60 259t173 184.5t259 68.5t259 -68.5t172.5 -184.5t59.5 -259t-59.5 -259t-172.5 -184.5t-259 -68.5t-259 68.5t-173 184.5t-60 259zM164 471q0 -138 46.5 -247t145.5 -176.5t238 -67.5t238 67.5t145.5 176.5t46.5 247t-46.5 247.5t-145.5 177t-238 67.5 t-238 -67.5t-145.5 -177t-46.5 -247.5z" />
<glyph unicode="p" horiz-adv-x="1099" d="M143 -492q11 165 11 369v696q0 204 -11 369h72q-10 -144 -10 -291q37 148 135 240t240 92q129 0 225 -69t144 -184t48 -259q0 -141 -52 -258t-146 -185.5t-211 -68.5q-109 0 -211 61.5t-172 153.5v-297q0 -219 10 -369h-72zM205 195q70 -91 173 -153t210 -62 q109 0 189 67t119.5 177t39.5 247q0 104 -20.5 191t-62 155.5t-111.5 107t-162 38.5t-165 -40t-118 -107.5t-68.5 -152.5t-23.5 -180v-288z" />
<glyph unicode="q" horiz-adv-x="1099" d="M102 471q0 144 48 259t144.5 184t225.5 69q142 0 240 -92t135 -240q0 147 -10 291h71q-10 -150 -10 -369v-696q0 -219 10 -369h-71q10 150 10 369v297q-70 -92 -172 -153.5t-211 -61.5q-117 0 -211 68.5t-146.5 185.5t-52.5 258zM164 471q0 -137 39.5 -247t119.5 -177 t189 -67q107 0 210 62t173 153v288q0 95 -23.5 180t-68.5 152.5t-118 107.5t-165 40t-162 -38.5t-111.5 -107t-62 -155.5t-20.5 -191z" />
<glyph unicode="r" horiz-adv-x="708" d="M143 0q11 142 11 348v246q0 206 -11 348h72q-6 -73 -10 -207q69 64 111 98t96 66q56 32 110 41q31 5 65 5q27 0 56 -3q4 -13 4 -24q0 -21 -16 -36q-13 -12 -35 -12q-19 0 -43 9q-29 13 -61 13q-10 0 -22 -2q-44 -6 -104.5 -47.5t-160.5 -135.5v-113v-246q0 -219 10 -348 h-72z" />
<glyph unicode="s" horiz-adv-x="860" d="M82 305q17 19 35.5 21t31 -17t9.5 -57q-1 -9 -1 -17q0 -95 83 -171q90 -84 245 -84q125 0 188.5 62t63.5 161q0 47 -14 81.5t-60.5 71t-80.5 57t-128 70.5q-4 3 -6.5 4t-6.5 3t-7 4q-81 43 -128.5 72.5t-88 65.5t-57.5 75t-17 88q0 92 69 140t183 48q115 0 190 -59 t144 -185q0 -23 -24 -29q-32 -9 -52 26q-8 12 -12 30q-46 197 -246 197q-98 0 -154.5 -39.5t-56.5 -116.5q0 -43 19.5 -79.5t70.5 -74.5t88.5 -60t122.5 -67q7 -4 11 -6q80 -43 125.5 -72.5t85 -67t55.5 -80t16 -97.5q0 -107 -78.5 -175.5t-214.5 -68.5q-164 0 -268 89.5 t-135 256.5z" />
<glyph unicode="t" horiz-adv-x="774" d="M41 922v20h20q40 0 72.5 6.5t56.5 18.5t42.5 29t30 38.5t20 47t12.5 53.5t6 58.5t2 62.5v65v35h51q0 -64 -1 -104.5t-10.5 -97t-26 -92.5t-48.5 -69.5t-78 -50.5h414v-20h-291v-660q0 -114 17.5 -180.5t44.5 -89.5t69 -23q55 0 95 38.5t74.5 139.5t58.5 271h20 q-25 -179 -62 -283.5t-82 -145t-108 -40.5q-39 0 -69 14t-55.5 47t-39.5 96.5t-14 155.5v660h-221z" />
<glyph unicode="u" horiz-adv-x="1011" d="M143 942h72v-616q0 -346 231 -346q68 0 129.5 24.5t107 65.5t78 83.5t56.5 88.5v106v225q0 179 -20 369h71v-942h-61q5 89 10 219q-23 -46 -58.5 -89.5t-82.5 -83t-109 -63.5t-127 -24q-142 0 -209 89.5t-67 277.5v247q0 169 -21 369z" />
<glyph unicode="v" horiz-adv-x="911" d="M82 942h76q9 -42 45 -129l323 -752l250 590q11 27 18 51.5t10.5 42.5t2.5 36.5t-2.5 29.5t-7.5 25t-8.5 19.5t-10 17.5t-8.5 14q-14 26 -2 42t39 13q13 -34 19 -74q4 -22 3 -50q-1 -24 -3 -52q-6 -62 -29 -121l-222 -520q-12 -29 -17.5 -44t-10 -40t1.5 -41h-55l-344 809 q-13 32 -68 133z" />
<glyph unicode="w" horiz-adv-x="1337" d="M82 942h76q9 -42 45 -129l323 -752l183 435l-134 313q-16 39 -67 133h76q9 -42 45 -129l323 -752l250 590q11 27 18 51.5t10.5 42.5t2.5 36.5t-2.5 29.5t-7.5 25t-8.5 19.5t-10 17.5t-8.5 14q-14 26 -2 42t39 13q13 -34 19 -74q4 -22 3 -50q-1 -24 -3 -52 q-6 -62 -29 -121l-222 -520q-12 -29 -17.5 -44t-10 -40t1.5 -41h-55l-199 469l-146 -344q-12 -29 -17.5 -44t-10 -40t1.5 -41h-55l-344 809q-13 32 -68 133z" />
<glyph unicode="x" horiz-adv-x="927" d="M82 942h86q18 -36 68 -106l237 -336l250 336q9 13 25.5 34t27 36.5t21.5 35.5h37q-18 -20 -31.5 -36t-28.5 -36t-26 -34l-261 -353l267 -377q34 -48 92 -106h-90q-33 59 -66 106l-235 332l-248 -332q-56 -74 -78 -106h-37q40 40 90 106l260 351l-268 379q-43 57 -92 106z " />
<glyph unicode="y" horiz-adv-x="944" d="M84 -285q-9 27 11.5 40.5t41.5 -11.5q44 -51 94 -51q48 0 89 25t73 73t54.5 95.5t46.5 113.5h-35l-320 836q-22 55 -55 106h82q6 -44 29 -106l311 -803l289 803q19 55 30 106h37q-21 -41 -43 -106l-301 -836q-29 -78 -54 -130.5t-59 -101t-77.5 -72.5t-96.5 -24 q-76 0 -147 43z" />
<glyph unicode="z" horiz-adv-x="989" d="M102 0v20l664 902h-229q-134 0 -228.5 -10.5t-109.5 -10.5q-34 0 -46 10.5t-12 30.5h688v-20l-663 -902h346q134 0 218 10.5t99 10.5q34 0 46 -10.5t12 -30.5h-785z" />
<glyph unicode="{" horiz-adv-x="798" d="M143 748v20q40 0 74.5 4.5t72 18t66 35t52.5 58t36 84.5t11.5 117t-15.5 154q-28 160 -16.5 266.5t87.5 160.5t226 54v-20q-135 0 -198.5 -50t-69.5 -152.5t23 -258.5q85 -436 -236 -481q318 -45 236 -482q-29 -156 -23 -258.5t69.5 -152t198.5 -49.5v-21q-150 0 -226 54 t-87.5 160.5t16.5 266.5q15 85 15.5 154t-11.5 117.5t-36 85t-52.5 58t-66 35t-72 18t-74.5 4.5z" />
<glyph unicode="|" horiz-adv-x="256" d="M102 -492q10 487 10 1126.5t-10 1126.5h52q-12 -487 -12 -1126.5t12 -1126.5h-52z" />
<glyph unicode="}" horiz-adv-x="798" d="M61 -184q135 0 199 49.5t70 152t-23 258.5q-82 437 236 482q-321 45 -236 481q29 156 23 258.5t-70 152.5t-199 50v20q150 0 226 -54t87.5 -160.5t-16.5 -266.5q-15 -85 -15.5 -154t11.5 -117t36 -84.5t52.5 -58t66 -35t72 -18t74.5 -4.5v-20q-40 0 -74.5 -4.5t-72 -18 t-66 -35t-52.5 -58t-36 -85t-11.5 -117.5t15.5 -154q28 -160 16.5 -266.5t-87.5 -160.5t-226 -54v21z" />
<glyph unicode="~" horiz-adv-x="1013" d="M102 516q106 102 228 102q46 0 95.5 -19t85.5 -42t83.5 -42t89.5 -19q49 0 87 25.5t79 76.5l61 -41q-106 -102 -227 -102q-46 0 -95.5 19t-85.5 42.5t-83.5 42.5t-89.5 19q-49 0 -87 -26t-79 -77z" />
<glyph unicode="&#xa1;" d="M143 901l82 82l82 -82l-82 -82zM188 -655q22 424 27 1228h21q8 -880 26 -1228l-37 -41z" />
<glyph unicode="&#xa2;" horiz-adv-x="1142" d="M143 815q0 230 120 371t319 141q50 0 94 -12l72 299l51 -15q-16 -52 -46 -153.5t-42 -140.5q87 -31 146 -97.5t89 -144.5q-7 -19 -26.5 -23t-38 10t-23.5 40q-3 19 -10.5 41t-23.5 52t-47 57.5t-72 43.5q-147 -516 -250 -936q55 -24 129 -24q70 0 129 23t99 57t74 86 t53.5 97.5t39.5 104.5h20q-116 -389 -415 -389q-74 0 -135 21q-12 -45 -74 -306l-51 13q25 83 90 305q-128 53 -199.5 179t-71.5 300zM205 815q0 -149 55.5 -273t161.5 -180q159 571 248 934q-46 11 -88 11q-185 0 -281 -133t-96 -359z" />
<glyph unicode="&#xa3;" horiz-adv-x="1462" d="M143 82q0 57 42 91t114 34q73 0 184 -51q47 129 47 329q0 95 -6 177q-138 -2 -352 -13l41 51q216 -8 307 -10q-11 117 -46.5 311t-35.5 283q0 85 22 153.5t58 112.5t84 74t97.5 42.5t101.5 12.5q137 0 225.5 -78.5t151.5 -267.5l-82 -41q-15 75 -30.5 127.5t-39.5 100.5 t-54 77t-72.5 45.5t-98.5 16.5q-131 0 -216 -95.5t-85 -279.5q0 -100 24 -293.5t31 -300.5q243 -3 545 10l-41 -51q-277 16 -502 13q4 -110 4 -177q0 -204 -53 -340q15 -7 63.5 -31t70.5 -34.5t68 -29t77.5 -27t75 -16t83.5 -7.5q116 0 185 63.5t106 188.5l82 -41 q-62 -131 -147.5 -191.5t-225.5 -60.5q-41 0 -86.5 8.5t-75.5 16t-82.5 31t-68 30.5t-75 38.5t-62.5 33.5q-72 -158 -205 -158q-67 0 -107.5 33.5t-40.5 89.5zM205 78q0 -46 23.5 -72t68.5 -26q114 0 176 147q-100 49 -162 49q-106 0 -106 -98z" />
<glyph unicode="&#xa5;" horiz-adv-x="1374" d="M143 1638h93q7 -20 14 -37.5t12.5 -30t15 -30.5t14.5 -27.5t18.5 -32.5t19.5 -34l379 -688l383 688q63 112 102 192h37q-59 -90 -115 -190l-387 -696q245 0 483 10v-51q-218 12 -495 12v-211q253 0 495 10v-51q-218 12 -495 12v-114q0 -179 10 -369h-72q11 209 11 369 v114q-279 0 -504 -12v51q250 -10 504 -10v211q-279 0 -504 -12v51q242 -10 491 -10l-383 694q-43 78 -127 192z" />
<glyph unicode="&#xa6;" horiz-adv-x="256" d="M102 313h52q-24 -463 0 -927h-52q21 464 0 927zM102 711q21 463 0 927h52q-24 -464 0 -927h-52z" />
<glyph unicode="&#xa7;" horiz-adv-x="1316" d="M102 35l62 61q12 -141 55.5 -251.5t108.5 -177.5t143.5 -101.5t165.5 -34.5q169 0 277 91t108 235q0 62 -26 120.5t-94.5 135t-165.5 162t-261 217.5q-81 65 -131 108.5t-99.5 93.5t-75.5 91t-42 87.5t-16 96.5q0 113 64.5 181.5t158.5 78.5q-62 89 -62 188 q0 126 85.5 194t230.5 68q124 0 239 -53.5t236 -163.5l-62 -61q-151 258 -413 258q-128 0 -206.5 -59.5t-78.5 -165.5q0 -26 6 -52t14 -48t26 -48t32 -44.5t43 -46t47.5 -45t57 -48t60.5 -48t68.5 -53.5t71.5 -55q147 -114 241.5 -202.5t148.5 -164t74.5 -138.5t20.5 -136 q0 -96 -49.5 -173t-138.5 -120q27 -79 27 -155q0 -151 -116 -248.5t-300 -97.5q-67 0 -129 14.5t-127.5 52t-118 95t-95.5 150.5t-65 212zM141 985q0 -29 5.5 -56.5t20.5 -55.5t28 -49.5t43 -52t48.5 -49t61 -53t65 -52t75.5 -58.5t79 -61q196 -152 301.5 -262t147.5 -203 q80 41 124 112t44 160q0 62 -26 120.5t-94.5 135t-165.5 162t-261 217.5q-118 96 -183.5 155t-105.5 115q-82 -7 -144.5 -67.5t-62.5 -157.5z" />
<glyph unicode="&#xa8;" horiz-adv-x="655" d="M102 1311l82 82l82 -82l-82 -82zM389 1311l82 82l82 -82l-82 -82z" />
<glyph unicode="&#xa9;" horiz-adv-x="1697" d="M102 819q0 152 54.5 289t150.5 238.5t237.5 161t305.5 59.5q163 0 303.5 -59.5t236.5 -161t150.5 -238.5t54.5 -289q0 -151 -54.5 -287.5t-150.5 -237.5t-236.5 -160.5t-303.5 -59.5q-164 0 -305.5 59.5t-237.5 160.5t-150.5 237.5t-54.5 287.5zM123 819q0 -145 53 -277 t146.5 -231.5t231 -158t296.5 -58.5q211 0 378.5 100.5t257 265t89.5 359.5q0 117 -33.5 226t-97.5 199.5t-151 158t-201.5 105.5t-241.5 38q-159 0 -296.5 -58.5t-231 -158t-146.5 -232t-53 -278.5zM418 821q0 91 31.5 176.5t86.5 150.5t136.5 104.5t175.5 39.5 q128 0 224.5 -74.5t137.5 -164.5l-82 -41q-10 39 -18.5 64.5t-31 66.5t-50 66t-74.5 44t-106 19q-89 0 -161 -38t-116.5 -102t-68 -143.5t-23.5 -167.5q0 -58 14.5 -119t45 -120.5t73 -106t104 -75.5t132.5 -29q67 0 124 20.5t96 52.5t72 80t53.5 93t39.5 102h20 q-110 -369 -405 -369q-94 0 -175.5 39.5t-136.5 104.5t-86.5 150.5t-31.5 176.5z" />
<glyph unicode="&#xab;" horiz-adv-x="1003" d="M143 471q75 63 143 123.5t158 145t107 100.5q26 -9 22.5 -31t-28.5 -47t-58 -51.5t-66 -50.5t-108.5 -79t-148.5 -110q73 -55 148.5 -109.5t108.5 -79t66 -51t58 -51.5t28.5 -47t-22.5 -31q-17 16 -107 100.5t-158 145t-143 123.5zM430 471q75 63 143 123.5t158 145 t107 100.5q26 -9 22 -31t-29 -47t-58 -51.5t-65.5 -50.5t-108.5 -79.5t-148 -109.5q72 -54 148 -109.5t108.5 -79.5t65.5 -50.5t58 -51.5t29 -47t-22 -31q-17 16 -107 100.5t-158 145t-143 123.5z" />
<glyph unicode="&#xac;" horiz-adv-x="1130" d="M102 637v51q309 -14 912 -14v-21q0 -235 14 -442h-51q16 207 16 442q-588 0 -891 -16z" />
<glyph unicode="&#xad;" horiz-adv-x="1337" d="M143 506v51q232 -11 525.5 -11t525.5 11v-51q-232 12 -525.5 12t-525.5 -12z" />
<glyph unicode="&#xae;" horiz-adv-x="1697" d="M102 819q0 152 54.5 289t150.5 238.5t237.5 161t305.5 59.5q163 0 303.5 -59.5t236.5 -161t150.5 -238.5t54.5 -289q0 -227 -84 -372.5t-213 -145.5q-86 0 -145 60.5t-109 164.5q-77 161 -149.5 213t-214.5 52h-41v-103q0 -178 10 -328h-71q10 150 10 328v287 q0 178 -10 328h143q204 0 310 -66t106 -190q0 -218 -318 -250q103 -23 160 -76t111 -174q20 -44 33.5 -71.5t34 -60t39.5 -50.5t45 -30.5t56 -12.5q78 0 142 67.5t99.5 181t35.5 248.5q0 117 -33.5 226t-97.5 199.5t-151 158t-201.5 105.5t-241.5 38q-159 0 -296.5 -58.5 t-231 -158t-146.5 -232t-53 -278.5q0 -145 53 -277t146.5 -231.5t231 -158t296.5 -58.5q127 0 225.5 27.5t184.5 89.5l14 -14q-170 -123 -424 -123q-164 0 -305.5 59.5t-237.5 160.5t-150.5 237.5t-54.5 287.5zM639 811h82q163 0 258.5 61.5t95.5 174.5t-95.5 174t-258.5 61 h-82v-471z" />
<glyph unicode="&#xaf;" horiz-adv-x="845" d="M102 1348v51q226 -11 321.5 -11t319.5 11v-51q-224 12 -319.5 12t-321.5 -12z" />
<glyph unicode="&#xb0;" horiz-adv-x="1064" d="M143 1290q0 170 106.5 279.5t282.5 109.5t283 -109.5t107 -279.5t-107 -279.5t-283 -109.5t-282.5 109.5t-106.5 279.5zM184 1290q0 -151 95.5 -249.5t252.5 -98.5t253 98.5t96 249.5t-96 249.5t-253 98.5t-252.5 -98.5t-95.5 -249.5z" />
<glyph unicode="&#xb1;" horiz-adv-x="1132" d="M102 147v52q464 -21 928 0v-52q-464 24 -928 0zM102 588v51q250 -10 451 -10q0 127 -12 280h51q-10 -170 -10 -280q198 0 448 10v-51q-225 12 -448 12q0 -113 10 -283h-51q12 153 12 283q-226 0 -451 -12z" />
<glyph unicode="&#xb4;" horiz-adv-x="563" d="M102 1229l336 297q26 -9 22.5 -31t-28.5 -47q-51 -51 -120 -100t-199 -129z" />
<glyph unicode="&#xb6;" horiz-adv-x="1548" d="M102 1219q0 112 38.5 194.5t108.5 130.5t157 71t194 23h846v-51q-179 19 -272 23q-12 -487 -12 -1116t12 -1108h-52q10 481 10 1111t-10 1115q-123 6 -358 6q-12 -487 -12 -1118.5t12 -1113.5h-51q13 656 10 1413h-123q-85 0 -157.5 14t-136 45.5t-108.5 79.5 t-70.5 119.5t-25.5 161.5z" />
<glyph unicode="&#xb7;" d="M143 532l82 82l82 -82l-82 -81z" />
<glyph unicode="&#xb8;" horiz-adv-x="751" d="M102 -391l62 61q40 -124 101 -183.5t149 -59.5q174 0 174 194q0 107 -75 166t-239 45v21l93 167h61l-133 -172q90 7 160 -9t111.5 -49t62 -76t20.5 -93q0 -92 -62 -153.5t-173 -61.5q-214 0 -312 203z" />
<glyph unicode="&#xbb;" horiz-adv-x="1003" d="M184.5 133q3.5 22 28.5 47t58 51.5t66 51t108.5 79t148.5 109.5q-73 55 -148.5 110t-108.5 79t-66 50.5t-58 51.5t-28.5 47t22.5 31q23 -21 108.5 -101.5t154.5 -143t144 -124.5q-75 -62 -144 -124.5t-154.5 -143t-108.5 -101.5q-26 9 -22.5 31zM471.5 133 q3.5 22 28.5 47t58 51.5t66 51t108.5 79t148.5 109.5q-73 55 -148.5 110t-108.5 79t-66 50.5t-58 51.5t-28.5 47t22.5 31q23 -21 108.5 -101.5t154.5 -143t144 -124.5q-75 -62 -144 -124.5t-154.5 -143t-108.5 -101.5q-26 9 -22.5 31z" />
<glyph unicode="&#xbf;" horiz-adv-x="985" d="M143 -424q0 71 21 136t54.5 118.5t73.5 108t80.5 116t74 130.5t54.5 164t21 204h21q0 -109 -18.5 -204t-48.5 -164t-66 -130.5t-72 -116t-66 -108t-48.5 -118.5t-18.5 -136q0 -133 63 -213t170 -80q124 0 205 95t117 272l82 -41q-115 -346 -404 -346q-76 0 -141 33 t-109.5 106t-44.5 174zM451 901l81 82l82 -82l-82 -82z" />
<glyph unicode="&#xc0;" horiz-adv-x="1220" d="M102 0q14 28 24 54t14.5 41t13 45.5t14.5 49.5l401 1375q8 35 -8 73h68l415 -1445q31 -104 74 -193h-86q-1 13 -2 24.5t-3 23.5t-3 19.5t-4 21l-4 18t-5.5 20t-5.5 19t-7 23.5t-7 24l-119 415h-561l-121 -415q-6 -20 -16 -50.5t-14.5 -46.5t-9.5 -42t-7 -54h-41zM317 629 h549l-272 944zM391.5 2068q-3.5 22 22.5 31l336 -297l-11 -10q-130 80 -199 129t-120 100q-25 25 -28.5 47z" />
<glyph unicode="&#xc1;" horiz-adv-x="1220" d="M102 0q14 28 24 54t14.5 41t13 45.5t14.5 49.5l401 1375q8 35 -8 73h68l415 -1445q31 -104 74 -193h-86q-1 13 -2 24.5t-3 23.5t-3 19.5t-4 21l-4 18t-5.5 20t-5.5 19t-7 23.5t-7 24l-119 415h-561l-121 -415q-6 -20 -16 -50.5t-14.5 -46.5t-9.5 -42t-7 -54h-41zM317 629 h549l-272 944zM471 1802l336 297q26 -9 22.5 -31t-28.5 -47q-50 -50 -119.5 -99t-200.5 -130z" />
<glyph unicode="&#xc2;" horiz-adv-x="1220" d="M102 0q14 28 24 54t14.5 41t13 45.5t14.5 49.5l401 1375q8 35 -8 73h68l415 -1445q31 -104 74 -193h-86q-1 13 -2 24.5t-3 23.5t-3 19.5t-4 21l-4 18t-5.5 20t-5.5 19t-7 23.5t-7 24l-119 415h-561l-121 -415q-6 -20 -16 -50.5t-14.5 -46.5t-9.5 -42t-7 -54h-41zM317 629 h549l-272 944zM344 1829q99 90 151.5 142.5t114.5 127.5q61 -74 113 -126t154 -144q-4 -13 -12 -18.5t-18.5 -3t-22.5 9.5t-25 18q-82 73 -189 244q-66 -105 -105.5 -156.5t-82.5 -87.5q-65 -53 -78 -6z" />
<glyph unicode="&#xc3;" horiz-adv-x="1220" d="M102 0q14 28 24 54t14.5 41t13 45.5t14.5 49.5l401 1375q8 35 -8 73h68l415 -1445q31 -104 74 -193h-86q-1 13 -2 24.5t-3 23.5t-3 19.5t-4 21l-4 18t-5.5 20t-5.5 19t-7 23.5t-7 24l-119 415h-561l-121 -415q-6 -20 -16 -50.5t-14.5 -46.5t-9.5 -42t-7 -54h-41z M305 1853q11 195 148 195q42 0 87 -29t77.5 -63t74.5 -63t78 -29q27 0 46 16.5t27.5 43.5t11.5 55t1 59h62q-11 -195 -148 -195q-42 0 -87 29t-77.5 63.5t-74.5 63.5t-78 29q-27 0 -46 -16.5t-27.5 -44t-11.5 -55.5t-1 -59h-62zM317 629h549l-272 944z" />
<glyph unicode="&#xc4;" horiz-adv-x="1220" d="M102 0q14 28 24 54t14.5 41t13 45.5t14.5 49.5l401 1375q8 35 -8 73h68l415 -1445q31 -104 74 -193h-86q-1 13 -2 24.5t-3 23.5t-3 19.5t-4 21l-4 18t-5.5 20t-5.5 19t-7 23.5t-7 24l-119 415h-561l-121 -415q-6 -20 -16 -50.5t-14.5 -46.5t-9.5 -42t-7 -54h-41zM317 629 h549l-272 944zM385 1884l82 82l82 -82l-82 -82zM672 1884l82 82l82 -82l-82 -82z" />
<glyph unicode="&#xc5;" horiz-adv-x="1220" d="M102 0q14 28 24 54t14.5 41t13 45.5t14.5 49.5l401 1375q8 35 -8 73h68l415 -1445q31 -104 74 -193h-86q-1 13 -2 24.5t-3 23.5t-3 19.5t-4 21l-4 18t-5.5 20t-5.5 19t-7 23.5t-7 24l-119 415h-561l-121 -415q-6 -20 -16 -50.5t-14.5 -46.5t-9.5 -42t-7 -54h-41zM317 629 h549l-272 944zM436 1946q0 70 49 122t125 52t125 -52t49 -122t-49 -122t-125 -52t-125 52t-49 122zM457 1946q0 -61 43 -107.5t110 -46.5t110.5 46.5t43.5 107.5t-43.5 107t-110.5 46t-110 -46t-43 -107z" />
<glyph unicode="&#xc6;" horiz-adv-x="1794" d="M102 0q61 96 107 190l668 1375q6 12 5.5 25t-3.5 20.5l-11 27.5h838l-61 -61q-211 41 -486 41h-198v-733h155q220 0 410 20v-61q-190 20 -410 20h-155v-844h280q307 0 533 41l-41 -61h-838q14 190 14 369v239h-475l-203 -415q-48 -96 -88 -193h-41zM442 629h467v641 q0 160 -10 299z" />
<glyph unicode="&#xc7;" horiz-adv-x="1671" d="M123 840q0 175 58 330.5t158 267t241 176.5t301 65q210 0 360.5 -103.5t253.5 -307.5l-82 -21q-31 86 -76.5 157t-109.5 130t-152.5 92t-193.5 33q-151 0 -282 -65t-221.5 -175.5t-142 -260.5t-51.5 -318q0 -138 26.5 -263.5t82.5 -235t136.5 -189.5t195 -126t252.5 -46 q145 0 263.5 51.5t201.5 146t139 216.5t88 274h20q-31 -155 -85.5 -279t-136.5 -219t-196.5 -149.5t-255.5 -61.5l-118 -152q90 7 160 -9t111.5 -49t62 -76t20.5 -93q0 -92 -62.5 -153.5t-173.5 -61.5q-213 0 -311 203l62 61q40 -124 100.5 -183.5t148.5 -59.5 q175 0 175 194q0 107 -75 166t-239 45v21l82 147q-175 4 -316.5 76t-232 193t-138.5 277.5t-48 334.5z" />
<glyph unicode="&#xc8;" horiz-adv-x="1083" d="M143 0q15 204 15 369v901q0 164 -15 368h811l-61 -61q-211 41 -485 41h-199v-733h156q219 0 409 20v-61q-190 20 -409 20h-156v-844h280q307 0 533 41l-41 -61h-838zM323.5 2068q-3.5 22 22.5 31l336 -297l-10 -10q-131 81 -200.5 130t-119.5 99q-25 25 -28.5 47z" />
<glyph unicode="&#xc9;" horiz-adv-x="1083" d="M143 0q15 204 15 369v901q0 164 -15 368h811l-61 -61q-211 41 -485 41h-199v-733h156q219 0 409 20v-61q-190 20 -409 20h-156v-844h280q307 0 533 41l-41 -61h-838zM403 1802l336 297q26 -9 22.5 -31t-28.5 -47q-51 -51 -120 -100t-199 -129z" />
<glyph unicode="&#xca;" horiz-adv-x="1083" d="M143 0q15 204 15 369v901q0 164 -15 368h811l-61 -61q-211 41 -485 41h-199v-733h156q219 0 409 20v-61q-190 20 -409 20h-156v-844h280q307 0 533 41l-41 -61h-838zM276 1829q102 92 154 144t113 126q62 -75 114.5 -127.5t151.5 -142.5q-4 -13 -12 -18.5t-18.5 -3 t-22.5 9.5t-25 18q-44 39 -84.5 91.5t-103.5 152.5q-65 -104 -105 -156t-84 -88q-65 -53 -78 -6z" />
<glyph unicode="&#xcb;" horiz-adv-x="1083" d="M143 0q15 204 15 369v901q0 164 -15 368h811l-61 -61q-211 41 -485 41h-199v-733h156q219 0 409 20v-61q-190 20 -409 20h-156v-844h280q307 0 533 41l-41 -61h-838zM317 1884l82 82l82 -82l-82 -82zM604 1884l82 82l82 -82l-82 -82z" />
<glyph unicode="&#xcc;" horiz-adv-x="358" d="M-38.5 2068q-3.5 22 22.5 31l335 -297l-10 -10q-130 80 -199 129t-120 100q-25 25 -28.5 47zM143 0q11 209 11 369v901q0 159 -11 368h72q-10 -190 -10 -368v-901q0 -179 10 -369h-72z" />
<glyph unicode="&#xcd;" horiz-adv-x="358" d="M41 1802l336 297q26 -9 22.5 -31t-28.5 -47q-50 -50 -119.5 -99t-200.5 -130zM143 0q11 209 11 369v901q0 159 -11 368h72q-10 -190 -10 -368v-901q0 -179 10 -369h-72z" />
<glyph unicode="&#xce;" horiz-adv-x="358" d="M-86 1829q99 90 151.5 142.5t114.5 127.5q62 -75 114.5 -127.5t151.5 -142.5q-13 -50 -77 6q-82 73 -189 244q-66 -105 -105.5 -156.5t-82.5 -87.5q-65 -53 -78 -6zM143 0q11 209 11 369v901q0 159 -11 368h72q-10 -190 -10 -368v-901q0 -179 10 -369h-72z" />
<glyph unicode="&#xcf;" horiz-adv-x="358" d="M-45 1884l82 82l82 -82l-82 -82zM143 0q11 209 11 369v901q0 159 -11 368h72q-10 -190 -10 -368v-901q0 -179 10 -369h-72zM242 1884l82 82l82 -82l-82 -82z" />
<glyph unicode="&#xd0;" horiz-adv-x="1366" d="M20 836v20h216v414q0 159 -11 368h307q362 0 567.5 -212.5t205.5 -606.5q0 -384 -204.5 -601.5t-568.5 -217.5h-307q11 209 11 369v467h-216zM287 20h245q154 0 284 53.5t225 153.5t148.5 252t53.5 340q0 195 -53 348.5t-149 251.5t-225 148.5t-284 50.5h-245v-762h391 v-20h-391v-816z" />
<glyph unicode="&#xd1;" horiz-adv-x="1421" d="M143 0q11 209 11 369v901q0 159 -11 368h41l1063 -1562v1194q0 178 -10 368h41q-10 -190 -10 -368v-901q0 -179 10 -369h-41l-1063 1563v-1194q0 -179 10 -369h-41zM406 1853q11 195 147 195q42 0 87 -29t77.5 -63t74.5 -63t78 -29q27 0 46 16.5t27.5 43.5t11.5 55t1 59 h62q-11 -195 -148 -195q-42 0 -87 29t-77.5 63.5t-74.5 63.5t-78 29q-27 0 -46 -16.5t-27.5 -44t-11.5 -55.5t-1 -59h-61z" />
<glyph unicode="&#xd2;" horiz-adv-x="1966" d="M123 819q0 175 65.5 333.5t178 274.5t273.5 184t343 68q242 0 440 -116t309 -313t111 -431q0 -176 -65.5 -334.5t-178.5 -274t-273.5 -183.5t-342.5 -68t-343 68t-274 183.5t-178 274t-65 334.5zM184 819q0 -129 37 -253t108.5 -229.5t167.5 -185.5t222 -125.5t264 -45.5 q172 0 323 70.5t254 187t162.5 268.5t59.5 313q0 107 -26.5 211.5t-75.5 197.5t-121 172.5t-159 136.5t-194.5 89.5t-222.5 32.5q-172 0 -323.5 -71t-254.5 -188t-162 -268.5t-59 -312.5zM764 2068q-4 22 22 31l336 -297l-10 -10q-130 80 -199 129t-120 100q-25 25 -29 47z " />
<glyph unicode="&#xd3;" horiz-adv-x="1966" d="M123 819q0 175 65.5 333.5t178 274.5t273.5 184t343 68q242 0 440 -116t309 -313t111 -431q0 -176 -65.5 -334.5t-178.5 -274t-273.5 -183.5t-342.5 -68t-343 68t-274 183.5t-178 274t-65 334.5zM184 819q0 -129 37 -253t108.5 -229.5t167.5 -185.5t222 -125.5t264 -45.5 q172 0 323 70.5t254 187t162.5 268.5t59.5 313q0 107 -26.5 211.5t-75.5 197.5t-121 172.5t-159 136.5t-194.5 89.5t-222.5 32.5q-172 0 -323.5 -71t-254.5 -188t-162 -268.5t-59 -312.5zM844 1802l336 297q26 -9 22.5 -31t-28.5 -47q-50 -50 -119.5 -99t-200.5 -130z" />
<glyph unicode="&#xd4;" horiz-adv-x="1966" d="M123 819q0 175 65.5 333.5t178 274.5t273.5 184t343 68q242 0 440 -116t309 -313t111 -431q0 -176 -65.5 -334.5t-178.5 -274t-273.5 -183.5t-342.5 -68t-343 68t-274 183.5t-178 274t-65 334.5zM184 819q0 -129 37 -253t108.5 -229.5t167.5 -185.5t222 -125.5t264 -45.5 q172 0 323 70.5t254 187t162.5 268.5t59.5 313q0 107 -26.5 211.5t-75.5 197.5t-121 172.5t-159 136.5t-194.5 89.5t-222.5 32.5q-172 0 -323.5 -71t-254.5 -188t-162 -268.5t-59 -312.5zM717 1829q99 90 151.5 142.5t114.5 127.5q62 -75 114.5 -127.5t151.5 -142.5 q-4 -13 -12 -18.5t-18.5 -3t-22.5 9.5t-25 18q-44 39 -84.5 91.5t-103.5 152.5q-66 -105 -105.5 -156.5t-82.5 -87.5q-65 -53 -78 -6z" />
<glyph unicode="&#xd5;" horiz-adv-x="1966" d="M123 819q0 175 65.5 333.5t178 274.5t273.5 184t343 68q242 0 440 -116t309 -313t111 -431q0 -176 -65.5 -334.5t-178.5 -274t-273.5 -183.5t-342.5 -68t-343 68t-274 183.5t-178 274t-65 334.5zM184 819q0 -129 37 -253t108.5 -229.5t167.5 -185.5t222 -125.5t264 -45.5 q172 0 323 70.5t254 187t162.5 268.5t59.5 313q0 107 -26.5 211.5t-75.5 197.5t-121 172.5t-159 136.5t-194.5 89.5t-222.5 32.5q-172 0 -323.5 -71t-254.5 -188t-162 -268.5t-59 -312.5zM678 1853q11 195 147 195q42 0 87 -29t78 -63t75 -63t78 -29q27 0 46 16.5t27.5 43.5 t11.5 55t1 59h61q-11 -195 -147 -195q-42 0 -87 29t-78 63.5t-75 63.5t-78 29q-27 0 -46 -16.5t-27.5 -44t-11.5 -55.5t-1 -59h-61z" />
<glyph unicode="&#xd6;" horiz-adv-x="1966" d="M123 819q0 175 65.5 333.5t178 274.5t273.5 184t343 68q242 0 440 -116t309 -313t111 -431q0 -176 -65.5 -334.5t-178.5 -274t-273.5 -183.5t-342.5 -68t-343 68t-274 183.5t-178 274t-65 334.5zM184 819q0 -129 37 -253t108.5 -229.5t167.5 -185.5t222 -125.5t264 -45.5 q172 0 323 70.5t254 187t162.5 268.5t59.5 313q0 107 -26.5 211.5t-75.5 197.5t-121 172.5t-159 136.5t-194.5 89.5t-222.5 32.5q-172 0 -323.5 -71t-254.5 -188t-162 -268.5t-59 -312.5zM758 1884l82 82l82 -82l-82 -82zM1044 1884l82 82l82 -82l-82 -82z" />
<glyph unicode="&#xd7;" horiz-adv-x="899" d="M102 221q172 155 326 309q-165 165 -326 310l37 37q111 -123 310 -326q154 154 309 326l37 -37q-161 -145 -326 -310q154 -154 326 -309l-37 -37q-155 172 -309 326q-165 -165 -310 -326z" />
<glyph unicode="&#xd8;" horiz-adv-x="1925" d="M123 819q0 175 65.5 333.5t178 274.5t273.5 184t343 68q223 0 408 -98l102 176l16 -10l-100 -176q200 -111 317 -312t117 -440q0 -176 -65.5 -334.5t-178.5 -274t-273.5 -183.5t-342.5 -68q-243 0 -440 115l-111 -193l-16 10l110 193q-188 115 -295.5 309.5t-107.5 425.5 zM184 819q0 -209 97 -398t264 -306l829 1437q-178 107 -391 107q-172 0 -323.5 -71t-254.5 -188t-162 -268.5t-59 -312.5zM561 104q189 -124 422 -124q172 0 323 70.5t254 187t162.5 268.5t59.5 313q0 219 -105 414t-286 309z" />
<glyph unicode="&#xd9;" horiz-adv-x="1318" d="M123 1638h72q-11 -209 -11 -368v-574q0 -371 117 -538.5t363 -167.5q125 0 216 37.5t156 120t97 219t32 329.5v574q0 178 -10 368h41q-10 -190 -10 -368v-574q0 -199 -34 -341t-102.5 -229t-164.5 -127t-226 -40q-106 0 -185.5 21t-146 72t-108 135t-64 210.5 t-22.5 298.5v574q0 178 -10 368zM440.5 2068q-3.5 22 22.5 31l336 -297l-11 -10q-130 80 -199 129t-120 100q-25 25 -28.5 47z" />
<glyph unicode="&#xda;" horiz-adv-x="1318" d="M123 1638h72q-11 -209 -11 -368v-574q0 -371 117 -538.5t363 -167.5q125 0 216 37.5t156 120t97 219t32 329.5v574q0 178 -10 368h41q-10 -190 -10 -368v-574q0 -199 -34 -341t-102.5 -229t-164.5 -127t-226 -40q-106 0 -185.5 21t-146 72t-108 135t-64 210.5 t-22.5 298.5v574q0 178 -10 368zM520 1802l336 297q26 -9 22.5 -31t-28.5 -47q-50 -50 -119.5 -99t-200.5 -130z" />
<glyph unicode="&#xdb;" horiz-adv-x="1318" d="M123 1638h72q-11 -209 -11 -368v-574q0 -371 117 -538.5t363 -167.5q125 0 216 37.5t156 120t97 219t32 329.5v574q0 178 -10 368h41q-10 -190 -10 -368v-574q0 -199 -34 -341t-102.5 -229t-164.5 -127t-226 -40q-106 0 -185.5 21t-146 72t-108 135t-64 210.5 t-22.5 298.5v574q0 178 -10 368zM393 1829q99 90 151.5 142.5t114.5 127.5q61 -74 113 -126t154 -144q-4 -13 -12 -18.5t-18.5 -3t-22.5 9.5t-25 18q-82 73 -189 244q-66 -105 -105.5 -156.5t-82.5 -87.5q-65 -53 -78 -6z" />
<glyph unicode="&#xdc;" horiz-adv-x="1318" d="M123 1638h72q-11 -209 -11 -368v-574q0 -371 117 -538.5t363 -167.5q125 0 216 37.5t156 120t97 219t32 329.5v574q0 178 -10 368h41q-10 -190 -10 -368v-574q0 -199 -34 -341t-102.5 -229t-164.5 -127t-226 -40q-106 0 -185.5 21t-146 72t-108 135t-64 210.5 t-22.5 298.5v574q0 178 -10 368zM434 1884l82 82l82 -82l-82 -82zM721 1884l82 82l82 -82l-82 -82z" />
<glyph unicode="&#xdd;" horiz-adv-x="1292" d="M102 1638h93q7 -20 14 -37.5t12.5 -30t15 -30.5t14.5 -27.5t18.5 -32.5t19.5 -34l379 -688l383 688q63 112 102 192h37q-59 -90 -115 -190l-399 -719v-360q0 -179 10 -369h-72q11 209 11 369v360l-396 717q-43 78 -127 192zM508 1802l336 297q26 -9 22.5 -31t-28.5 -47 q-50 -50 -119.5 -99t-200.5 -130z" />
<glyph unicode="&#xde;" horiz-adv-x="1071" d="M102 0q11 209 11 369v901q0 159 -11 368h72q-10 -190 -10 -368v-10h184q621 0 621 -441q0 -101 -33 -179t-88.5 -126.5t-136.5 -79.5t-169 -43t-194 -12h-184v-10q0 -179 10 -369h-72zM164 399h184q88 0 164 11t150.5 40t127 75t85 121t32.5 173t-32.5 173t-85 121 t-127 75t-150.5 40t-164 11h-184v-840z" />
<glyph unicode="&#xdf;" horiz-adv-x="1175" d="M143 0q15 204 15 369v860q0 450 372 450q27 0 54.5 -1t46 -2t49.5 -4.5t42.5 -4.5t48 -6.5t42.5 -6.5t50.5 -8t49.5 -8v-20l-481 -635q641 -110 641 -569q0 -117 -45.5 -220t-135 -169t-204.5 -66q-116 0 -199.5 48.5t-152.5 154.5q15 38 51.5 32.5t50.5 -47.5 q8 -26 15 -43.5t25.5 -43.5t43 -41t67.5 -27t99 -12q69 0 125 25t92.5 66.5t61 98t35 117.5t10.5 127q0 85 -19.5 156.5t-50.5 123t-81.5 94t-99 69.5t-117 50.5t-122 36.5t-127.5 27l465 612q-133 76 -330 76q-84 0 -145 -26.5t-94 -65.5t-52.5 -100.5t-24.5 -115 t-5 -124.5v-858q0 -179 14 -369h-80z" />
<glyph unicode="&#xe0;" horiz-adv-x="1026" d="M123 221q0 72 27 125.5t80.5 89t120 57t157.5 35.5q161 24 216 47q97 39 97 125q0 125 -57.5 194t-165.5 69q-54 0 -101.5 -10t-78.5 -23.5t-61.5 -35.5t-45.5 -37t-35 -37.5t-26 -28.5q-21 -21 -45.5 -28t-42 3t-19.5 35q246 182 455 182q271 0 274 -274v-340 q0 -84 1 -128.5t8 -112t22 -128.5h-72q-10 161 -10 285q-17 -66 -47.5 -122.5t-77 -103t-114.5 -73.5t-150 -27q-134 0 -221.5 69t-87.5 193zM184 221q0 -113 70.5 -177t183.5 -64q172 0 277.5 129.5t105.5 334.5v183q-18 -28 -46.5 -47.5t-75.5 -33t-83.5 -20.5t-107.5 -18 q-161 -24 -242.5 -93.5t-81.5 -193.5zM315.5 1495q-3.5 22 22.5 31l336 -297l-10 -10q-131 81 -200.5 130t-119.5 99q-25 25 -28.5 47z" />
<glyph unicode="&#xe1;" horiz-adv-x="1026" d="M123 221q0 72 27 125.5t80.5 89t120 57t157.5 35.5q161 24 216 47q97 39 97 125q0 125 -57.5 194t-165.5 69q-54 0 -101.5 -10t-78.5 -23.5t-61.5 -35.5t-45.5 -37t-35 -37.5t-26 -28.5q-21 -21 -45.5 -28t-42 3t-19.5 35q246 182 455 182q271 0 274 -274v-340 q0 -84 1 -128.5t8 -112t22 -128.5h-72q-10 161 -10 285q-17 -66 -47.5 -122.5t-77 -103t-114.5 -73.5t-150 -27q-134 0 -221.5 69t-87.5 193zM184 221q0 -113 70.5 -177t183.5 -64q172 0 277.5 129.5t105.5 334.5v183q-18 -28 -46.5 -47.5t-75.5 -33t-83.5 -20.5t-107.5 -18 q-161 -24 -242.5 -93.5t-81.5 -193.5zM395 1229l336 297q26 -9 22.5 -31t-28.5 -47q-51 -51 -120 -100t-199 -129z" />
<glyph unicode="&#xe2;" horiz-adv-x="1026" d="M123 221q0 72 27 125.5t80.5 89t120 57t157.5 35.5q161 24 216 47q97 39 97 125q0 125 -57.5 194t-165.5 69q-54 0 -101.5 -10t-78.5 -23.5t-61.5 -35.5t-45.5 -37t-35 -37.5t-26 -28.5q-21 -21 -45.5 -28t-42 3t-19.5 35q246 182 455 182q271 0 274 -274v-340 q0 -84 1 -128.5t8 -112t22 -128.5h-72q-10 161 -10 285q-17 -66 -47.5 -122.5t-77 -103t-114.5 -73.5t-150 -27q-134 0 -221.5 69t-87.5 193zM184 221q0 -113 70.5 -177t183.5 -64q172 0 277.5 129.5t105.5 334.5v183q-18 -28 -46.5 -47.5t-75.5 -33t-83.5 -20.5t-107.5 -18 q-161 -24 -242.5 -93.5t-81.5 -193.5zM268 1255q99 90 152 143t115 128q62 -75 115 -129t151 -142q-13 -50 -78 7q-44 40 -85 91.5t-103 151.5q-65 -103 -105 -154.5t-84 -88.5q-65 -54 -78 -7z" />
<glyph unicode="&#xe3;" horiz-adv-x="1026" d="M123 221q0 72 27 125.5t80.5 89t120 57t157.5 35.5q161 24 216 47q97 39 97 125q0 125 -57.5 194t-165.5 69q-54 0 -101.5 -10t-78.5 -23.5t-61.5 -35.5t-45.5 -37t-35 -37.5t-26 -28.5q-21 -21 -45.5 -28t-42 3t-19.5 35q246 182 455 182q271 0 274 -274v-340 q0 -84 1 -128.5t8 -112t22 -128.5h-72q-10 161 -10 285q-17 -66 -47.5 -122.5t-77 -103t-114.5 -73.5t-150 -27q-134 0 -221.5 69t-87.5 193zM184 221q0 -113 70.5 -177t183.5 -64q172 0 277.5 129.5t105.5 334.5v183q-18 -28 -46.5 -47.5t-75.5 -33t-83.5 -20.5t-107.5 -18 q-161 -24 -242.5 -93.5t-81.5 -193.5zM229 1280q11 195 148 195q42 0 87 -29t77.5 -63.5t74.5 -63.5t78 -29q27 0 46 16.5t27.5 43.5t11.5 55t1 59h62q-11 -194 -148 -194q-42 0 -87 29t-77.5 63t-74.5 63t-78 29q-27 0 -46 -16.5t-27.5 -43.5t-11.5 -55t-1 -59h-62z" />
<glyph unicode="&#xe4;" horiz-adv-x="1026" d="M123 221q0 72 27 125.5t80.5 89t120 57t157.5 35.5q161 24 216 47q97 39 97 125q0 125 -57.5 194t-165.5 69q-54 0 -101.5 -10t-78.5 -23.5t-61.5 -35.5t-45.5 -37t-35 -37.5t-26 -28.5q-21 -21 -45.5 -28t-42 3t-19.5 35q246 182 455 182q271 0 274 -274v-340 q0 -84 1 -128.5t8 -112t22 -128.5h-72q-10 161 -10 285q-17 -66 -47.5 -122.5t-77 -103t-114.5 -73.5t-150 -27q-134 0 -221.5 69t-87.5 193zM184 221q0 -113 70.5 -177t183.5 -64q172 0 277.5 129.5t105.5 334.5v183q-18 -28 -46.5 -47.5t-75.5 -33t-83.5 -20.5t-107.5 -18 q-161 -24 -242.5 -93.5t-81.5 -193.5zM309 1311l82 82l82 -82l-82 -82zM596 1311l82 82l82 -82l-82 -82z" />
<glyph unicode="&#xe5;" horiz-adv-x="1026" d="M123 221q0 72 27 125.5t80.5 89t120 57t157.5 35.5q161 24 216 47q97 39 97 125q0 125 -57.5 194t-165.5 69q-54 0 -101.5 -10t-78.5 -23.5t-61.5 -35.5t-45.5 -37t-35 -37.5t-26 -28.5q-21 -21 -45.5 -28t-42 3t-19.5 35q246 182 455 182q271 0 274 -274v-340 q0 -84 1 -128.5t8 -112t22 -128.5h-72q-10 161 -10 285q-17 -66 -47.5 -122.5t-77 -103t-114.5 -73.5t-150 -27q-134 0 -221.5 69t-87.5 193zM184 221q0 -113 70.5 -177t183.5 -64q172 0 277.5 129.5t105.5 334.5v183q-18 -28 -46.5 -47.5t-75.5 -33t-83.5 -20.5t-107.5 -18 q-161 -24 -242.5 -93.5t-81.5 -193.5zM360 1372q0 70 49.5 122t125.5 52t125 -52t49 -122t-49 -122t-125 -52t-125.5 52t-49.5 122zM381 1372q0 -61 43.5 -107t110.5 -46t110 46t43 107t-43 107.5t-110 46.5t-110.5 -46.5t-43.5 -107.5z" />
<glyph unicode="&#xe6;" horiz-adv-x="1779" d="M123 231q0 68 27 119.5t80 86t120.5 56t157.5 35.5q161 24 216 47q97 39 97 125q0 125 -57.5 194t-165.5 69q-54 0 -101.5 -10t-78.5 -23.5t-61.5 -35.5t-45.5 -37t-35 -37.5t-26 -28.5q-21 -21 -45.5 -28t-42 3t-19.5 35q246 182 455 182q263 0 274 -262 q54 123 157.5 192.5t232.5 69.5q90 0 163.5 -32t119.5 -84.5t70.5 -118t24.5 -134.5h-745q-12 -68 -12 -143q0 -95 26 -182.5t75 -156.5t127.5 -110.5t174.5 -41.5q292 0 391 368h21q-44 -180 -146.5 -284.5t-265.5 -104.5q-164 0 -280.5 90t-161.5 246 q-16 -68 -47.5 -125.5t-80 -106t-122 -76.5t-162.5 -28q-132 0 -220.5 73.5t-88.5 198.5zM184 231q0 -114 71 -182.5t183 -68.5q172 0 277.5 129.5t105.5 334.5v183q-18 -28 -46.5 -47.5t-75.5 -33t-83.5 -20.5t-107.5 -18q-324 -48 -324 -277zM899 635h680q0 136 -82.5 232 t-234.5 96q-139 0 -234 -88t-129 -240z" />
<glyph unicode="&#xe7;" horiz-adv-x="1040" d="M102 471q0 230 120 371t319 141q72 0 134.5 -23.5t106.5 -63.5t74.5 -84t48.5 -93q-7 -19 -26.5 -23t-38 9.5t-23.5 39.5q-3 20 -10.5 42t-27.5 55.5t-48 58.5t-78 43.5t-112 18.5q-185 0 -281 -133t-96 -359q0 -76 14.5 -147t45.5 -134t75 -109.5t106.5 -73.5t137.5 -27 q70 0 129 23t99 57t74 86t53.5 97.5t39.5 104.5h20q-111 -365 -378 -387l-119 -154q90 7 160 -9t111.5 -49t62 -76t20.5 -93q0 -92 -62 -153.5t-173 -61.5q-214 0 -312 203l62 61q40 -124 101 -183.5t149 -59.5q174 0 174 194q0 107 -75 166t-239 45v21l82 147 q-191 7 -305.5 147.5t-114.5 364.5z" />
<glyph unicode="&#xe8;" horiz-adv-x="1060" d="M102 471q0 226 126 369t315 143q90 0 163.5 -32t119.5 -84.5t71 -118t25 -134.5h-746q-12 -68 -12 -143q0 -95 26 -182.5t75 -156.5t127.5 -110.5t174.5 -41.5q292 0 391 368h21q-44 -180 -146.5 -284.5t-265.5 -104.5q-209 0 -337 141.5t-128 370.5zM180 635h680 q0 136 -82.5 232t-234.5 96q-139 0 -234 -88t-129 -240zM344.5 1495q-3.5 22 22.5 31l335 -297l-10 -10q-130 80 -199 129t-120 100q-25 25 -28.5 47z" />
<glyph unicode="&#xe9;" horiz-adv-x="1060" d="M102 471q0 226 126 369t315 143q90 0 163.5 -32t119.5 -84.5t71 -118t25 -134.5h-746q-12 -68 -12 -143q0 -95 26 -182.5t75 -156.5t127.5 -110.5t174.5 -41.5q292 0 391 368h21q-44 -180 -146.5 -284.5t-265.5 -104.5q-209 0 -337 141.5t-128 370.5zM180 635h680 q0 136 -82.5 232t-234.5 96q-139 0 -234 -88t-129 -240zM424 1229l336 297q26 -9 22.5 -31t-28.5 -47q-50 -50 -119.5 -99t-200.5 -130z" />
<glyph unicode="&#xea;" horiz-adv-x="1060" d="M102 471q0 226 126 369t315 143q90 0 163.5 -32t119.5 -84.5t71 -118t25 -134.5h-746q-12 -68 -12 -143q0 -95 26 -182.5t75 -156.5t127.5 -110.5t174.5 -41.5q292 0 391 368h21q-44 -180 -146.5 -284.5t-265.5 -104.5q-209 0 -337 141.5t-128 370.5zM180 635h680 q0 136 -82.5 232t-234.5 96q-139 0 -234 -88t-129 -240zM297 1255q98 88 151 142t115 129q62 -75 115 -129t151 -142q-13 -49 -77 7q-45 40 -86 92t-103 151q-65 -104 -104.5 -155.5t-83.5 -87.5q-65 -54 -78 -7z" />
<glyph unicode="&#xeb;" horiz-adv-x="1060" d="M102 471q0 226 126 369t315 143q90 0 163.5 -32t119.5 -84.5t71 -118t25 -134.5h-746q-12 -68 -12 -143q0 -95 26 -182.5t75 -156.5t127.5 -110.5t174.5 -41.5q292 0 391 368h21q-44 -180 -146.5 -284.5t-265.5 -104.5q-209 0 -337 141.5t-128 370.5zM180 635h680 q0 136 -82.5 232t-234.5 96q-139 0 -234 -88t-129 -240zM338 1311l82 82l82 -82l-82 -82zM625 1311l82 82l81 -82l-81 -82z" />
<glyph unicode="&#xec;" horiz-adv-x="276" d="M-79.5 1495q-3.5 22 22.5 31l336 -297l-11 -10q-130 80 -199 129t-120 100q-25 25 -28.5 47zM102 0q11 142 11 348v246q0 206 -11 348h72q-10 -129 -10 -348v-246q0 -219 10 -348h-72z" />
<glyph unicode="&#xed;" horiz-adv-x="276" d="M0 1229l336 297q26 -9 22.5 -31t-28.5 -47q-50 -50 -119.5 -99t-200.5 -130zM102 0q11 142 11 348v246q0 206 -11 348h72q-10 -129 -10 -348v-246q0 -219 10 -348h-72z" />
<glyph unicode="&#xee;" horiz-adv-x="276" d="M-127 1255q98 88 151 142t115 129q62 -75 115 -128t152 -143q-13 -50 -78 7q-45 40 -86 92t-103 151q-65 -104 -104.5 -155.5t-83.5 -87.5q-65 -54 -78 -7zM102 0q11 142 11 348v246q0 206 -11 348h72q-10 -129 -10 -348v-246q0 -219 10 -348h-72z" />
<glyph unicode="&#xef;" horiz-adv-x="276" d="M-86 1311l82 82l82 -82l-82 -82zM102 0q11 142 11 348v246q0 206 -11 348h72q-10 -129 -10 -348v-246q0 -219 10 -348h-72zM201 1311l82 82l82 -82l-82 -82z" />
<glyph unicode="&#xf1;" horiz-adv-x="1013" d="M143 0q11 142 11 348v246q0 206 -11 348h72q-6 -78 -10 -223q49 102 150.5 183t228.5 81q142 0 209 -89.5t67 -277.5v-247q0 -179 10 -369h-71q10 190 10 369v247q0 347 -231 347q-68 0 -130.5 -27.5t-109 -72.5t-78 -89.5t-55.5 -91.5v-88v-246q0 -219 10 -348h-72z M203 1280q11 195 147 195q42 0 87 -29t78 -63.5t75 -63.5t78 -29q27 0 46 16.5t27.5 43.5t11.5 55t1 59h61q-11 -194 -147 -194q-42 0 -87 29t-78 63t-75 63t-78 29q-27 0 -46 -16.5t-27.5 -43.5t-11.5 -55t-1 -59h-61z" />
<glyph unicode="&#xf2;" horiz-adv-x="1187" d="M102 471q0 143 60 259t173 184.5t259 68.5t259 -68.5t172.5 -184.5t59.5 -259t-59.5 -259t-172.5 -184.5t-259 -68.5t-259 68.5t-173 184.5t-60 259zM164 471q0 -138 46.5 -247t145.5 -176.5t238 -67.5t238 67.5t145.5 176.5t46.5 247t-46.5 247.5t-145.5 177t-238 67.5 t-238 -67.5t-145.5 -177t-46.5 -247.5zM374.5 1495q-3.5 22 22.5 31l336 -297l-10 -10q-131 81 -200.5 130t-119.5 99q-25 25 -28.5 47z" />
<glyph unicode="&#xf3;" horiz-adv-x="1187" d="M102 471q0 143 60 259t173 184.5t259 68.5t259 -68.5t172.5 -184.5t59.5 -259t-59.5 -259t-172.5 -184.5t-259 -68.5t-259 68.5t-173 184.5t-60 259zM164 471q0 -138 46.5 -247t145.5 -176.5t238 -67.5t238 67.5t145.5 176.5t46.5 247t-46.5 247.5t-145.5 177t-238 67.5 t-238 -67.5t-145.5 -177t-46.5 -247.5zM455 1229l336 297q26 -9 22 -31t-29 -47q-51 -51 -120 -100t-199 -129z" />
<glyph unicode="&#xf4;" horiz-adv-x="1187" d="M102 471q0 143 60 259t173 184.5t259 68.5t259 -68.5t172.5 -184.5t59.5 -259t-59.5 -259t-172.5 -184.5t-259 -68.5t-259 68.5t-173 184.5t-60 259zM164 471q0 -138 46.5 -247t145.5 -176.5t238 -67.5t238 67.5t145.5 176.5t46.5 247t-46.5 247.5t-145.5 177t-238 67.5 t-238 -67.5t-145.5 -177t-46.5 -247.5zM328 1255q98 88 151 142t115 129q62 -75 115 -129t151 -142q-13 -50 -78 7q-44 40 -85 91.5t-103 151.5q-65 -104 -104.5 -155.5t-83.5 -87.5q-65 -54 -78 -7z" />
<glyph unicode="&#xf5;" horiz-adv-x="1187" d="M102 471q0 143 60 259t173 184.5t259 68.5t259 -68.5t172.5 -184.5t59.5 -259t-59.5 -259t-172.5 -184.5t-259 -68.5t-259 68.5t-173 184.5t-60 259zM164 471q0 -138 46.5 -247t145.5 -176.5t238 -67.5t238 67.5t145.5 176.5t46.5 247t-46.5 247.5t-145.5 177t-238 67.5 t-238 -67.5t-145.5 -177t-46.5 -247.5zM289 1280q11 195 147 195q42 0 87 -29t78 -63.5t75 -63.5t78 -29q27 0 46 16.5t27.5 43.5t11.5 55t1 59h61q-11 -194 -147 -194q-42 0 -87 29t-78 63t-75 63t-78 29q-27 0 -46 -16.5t-27.5 -43.5t-11.5 -55t-1 -59h-61z" />
<glyph unicode="&#xf6;" horiz-adv-x="1187" d="M102 471q0 143 60 259t173 184.5t259 68.5t259 -68.5t172.5 -184.5t59.5 -259t-59.5 -259t-172.5 -184.5t-259 -68.5t-259 68.5t-173 184.5t-60 259zM164 471q0 -138 46.5 -247t145.5 -176.5t238 -67.5t238 67.5t145.5 176.5t46.5 247t-46.5 247.5t-145.5 177t-238 67.5 t-238 -67.5t-145.5 -177t-46.5 -247.5zM369 1311l82 82l81 -82l-81 -82zM655 1311l82 82l82 -82l-82 -82z" />
<glyph unicode="&#xf7;" horiz-adv-x="1132" d="M102 506v51q464 -21 928 0v-51q-464 24 -928 0zM485 231l82 82l82 -82l-82 -81zM485 834l82 81l82 -81l-82 -82z" />
<glyph unicode="&#xf8;" horiz-adv-x="1187" d="M102 471q0 143 60 259t173 184.5t259 68.5q135 0 248 -61l125 217l18 -11l-125 -217q106 -68 165.5 -183.5t59.5 -256.5q0 -143 -59.5 -259t-172.5 -184.5t-259 -68.5q-135 0 -248 61l-125 -217l-18 11l125 217q-106 68 -166 184t-60 256zM164 471q0 -134 45.5 -242.5 t132.5 -173.5l485 844q-95 64 -233 64q-139 0 -238 -67.5t-145.5 -177t-46.5 -247.5zM360 43q94 -63 234 -63q139 0 238 67.5t145.5 176.5t46.5 247q0 134 -45.5 242.5t-132.5 173.5z" />
<glyph unicode="&#xf9;" horiz-adv-x="1011" d="M143 942h72v-616q0 -346 231 -346q68 0 129.5 24.5t107 65.5t78 83.5t56.5 88.5v106v225q0 179 -20 369h71v-942h-61q5 89 10 219q-23 -46 -58.5 -89.5t-82.5 -83t-109 -63.5t-127 -24q-142 0 -209 89.5t-67 277.5v247q0 169 -21 369zM293 1495q-4 22 22 31l336 -297 l-10 -10q-130 80 -199 129t-120 100q-25 25 -29 47z" />
<glyph unicode="&#xfa;" horiz-adv-x="1011" d="M143 942h72v-616q0 -346 231 -346q68 0 129.5 24.5t107 65.5t78 83.5t56.5 88.5v106v225q0 179 -20 369h71v-942h-61q5 89 10 219q-23 -46 -58.5 -89.5t-82.5 -83t-109 -63.5t-127 -24q-142 0 -209 89.5t-67 277.5v247q0 169 -21 369zM373 1229l336 297q26 -9 22 -31 t-29 -47q-51 -51 -120 -100t-199 -129z" />
<glyph unicode="&#xfb;" horiz-adv-x="1011" d="M143 942h72v-616q0 -346 231 -346q68 0 129.5 24.5t107 65.5t78 83.5t56.5 88.5v106v225q0 179 -20 369h71v-942h-61q5 89 10 219q-23 -46 -58.5 -89.5t-82.5 -83t-109 -63.5t-127 -24q-142 0 -209 89.5t-67 277.5v247q0 169 -21 369zM246 1255q98 88 151 142t115 129 q62 -75 115 -129t151 -142q-13 -50 -78 7q-44 40 -85 91.5t-103 151.5q-65 -104 -104.5 -155.5t-83.5 -87.5q-65 -54 -78 -7z" />
<glyph unicode="&#xfc;" horiz-adv-x="1011" d="M143 942h72v-616q0 -346 231 -346q68 0 129.5 24.5t107 65.5t78 83.5t56.5 88.5v106v225q0 179 -20 369h71v-942h-61q5 89 10 219q-23 -46 -58.5 -89.5t-82.5 -83t-109 -63.5t-127 -24q-142 0 -209 89.5t-67 277.5v247q0 169 -21 369zM287 1311l82 82l82 -82l-82 -82z M573 1311l82 82l82 -82l-82 -82z" />
<glyph unicode="&#xfd;" horiz-adv-x="944" d="M84 -285q-9 27 11.5 40.5t41.5 -11.5q44 -51 94 -51q48 0 89 25t73 73t54.5 95.5t46.5 113.5h-35l-320 836q-22 55 -55 106h82q6 -44 29 -106l311 -803l289 803q19 55 30 106h37q-21 -41 -43 -106l-301 -836q-29 -78 -54 -130.5t-59 -101t-77.5 -72.5t-96.5 -24 q-76 0 -147 43zM348 1229l336 297q26 -9 22.5 -31t-28.5 -47q-50 -50 -119.5 -99t-200.5 -130z" />
<glyph unicode="&#xfe;" horiz-adv-x="1058" d="M102 -492q11 165 11 369v1393q0 203 -11 368h72q-10 -150 -10 -368v-619q37 148 134.5 240t240.5 92q129 0 225 -69t144 -184t48 -259q0 -141 -52 -258t-146 -185.5t-211 -68.5q-109 0 -211 61.5t-172 153.5v-297q0 -219 10 -369h-72zM164 195q70 -91 173 -153t210 -62 q109 0 189 67t119.5 177t39.5 247q0 104 -20.5 191t-62 155.5t-111.5 107t-162 38.5t-165 -40t-118 -107.5t-68.5 -152.5t-23.5 -180v-288z" />
<glyph unicode="&#xff;" horiz-adv-x="944" d="M84 -285q-9 27 11.5 40.5t41.5 -11.5q44 -51 94 -51q48 0 89 25t73 73t54.5 95.5t46.5 113.5h-35l-320 836q-22 55 -55 106h82q6 -44 29 -106l311 -803l289 803q19 55 30 106h37q-21 -41 -43 -106l-301 -836q-29 -78 -54 -130.5t-59 -101t-77.5 -72.5t-96.5 -24 q-76 0 -147 43zM262 1311l82 82l82 -82l-82 -82zM549 1311l82 82l82 -82l-82 -82z" />
<glyph unicode="&#x152;" horiz-adv-x="2738" d="M123 819q0 175 65.5 333.5t178 274.5t273.5 184t343 68q302 0 528 -175.5t301 -450.5v217q0 178 -14 368h811l-61 -61q-211 41 -486 41h-198v-733h155q220 0 410 20v-61q-190 20 -410 20h-155v-844h280q307 0 533 41l-41 -61h-838q14 190 14 369v217q-75 -277 -301 -452 t-528 -175q-182 0 -343 68t-274 183.5t-178 274t-65 334.5zM184 819q0 -129 37 -253t108.5 -229.5t167.5 -185.5t222 -125.5t264 -45.5q172 0 323 70.5t254 187t162.5 268.5t59.5 313q0 107 -26.5 211.5t-75.5 197.5t-121 172.5t-159 136.5t-194.5 89.5t-222.5 32.5 q-172 0 -323.5 -71t-254.5 -188t-162 -268.5t-59 -312.5z" />
<glyph unicode="&#x153;" horiz-adv-x="1982" d="M102 471q0 143 60 259t173 184.5t259 68.5q166 0 287 -86.5t172 -230.5q47 146 158 231.5t253 85.5q90 0 163.5 -32t119.5 -84.5t71 -118t25 -134.5h-745q-13 -73 -13 -143q0 -95 26.5 -182.5t75.5 -156.5t127.5 -110.5t174.5 -41.5q292 0 391 368h21 q-44 -180 -146.5 -284.5t-265.5 -104.5q-160 0 -275 84.5t-161 232.5q-53 -144 -173 -230.5t-286 -86.5q-146 0 -259 68.5t-173 184.5t-60 259zM164 471q0 -138 46.5 -247t145.5 -176.5t238 -67.5t238 67.5t145.5 176.5t46.5 247t-46.5 247.5t-145.5 177t-238 67.5 t-238 -67.5t-145.5 -177t-46.5 -247.5zM1102 635h680q0 136 -83 232t-235 96q-139 0 -233.5 -88t-128.5 -240z" />
<glyph unicode="&#x178;" horiz-adv-x="1292" d="M102 1638h93q7 -20 14 -37.5t12.5 -30t15 -30.5t14.5 -27.5t18.5 -32.5t19.5 -34l379 -688l383 688q63 112 102 192h37q-59 -90 -115 -190l-399 -719v-360q0 -179 10 -369h-72q11 209 11 369v360l-396 717q-43 78 -127 192zM422 1884l82 82l82 -82l-82 -82zM709 1884 l82 82l81 -82l-81 -82z" />
<glyph unicode="&#x2c6;" horiz-adv-x="737" d="M102 1255q99 90 152 143t115 128q62 -75 115 -129t151 -142q-13 -50 -78 7q-44 40 -85 91.5t-103 151.5q-65 -103 -105 -154.5t-84 -88.5q-65 -54 -78 -7z" />
<glyph unicode="&#x2dc;" horiz-adv-x="817" d="M102 1280q11 195 148 195q42 0 87 -29t77.5 -63.5t74.5 -63.5t78 -29q27 0 46 16.5t27.5 43.5t11.5 55t1 59h62q-11 -194 -148 -194q-42 0 -87 29t-77.5 63t-74.5 63t-78 29q-27 0 -46 -16.5t-27.5 -43.5t-11.5 -55t-1 -59h-62z" />
<glyph unicode="&#x2000;" horiz-adv-x="1060" />
<glyph unicode="&#x2001;" horiz-adv-x="2120" />
<glyph unicode="&#x2002;" horiz-adv-x="1060" />
<glyph unicode="&#x2003;" horiz-adv-x="2120" />
<glyph unicode="&#x2004;" horiz-adv-x="706" />
<glyph unicode="&#x2005;" horiz-adv-x="530" />
<glyph unicode="&#x2006;" horiz-adv-x="353" />
<glyph unicode="&#x2007;" horiz-adv-x="353" />
<glyph unicode="&#x2008;" horiz-adv-x="265" />
<glyph unicode="&#x2009;" horiz-adv-x="424" />
<glyph unicode="&#x200a;" horiz-adv-x="117" />
<glyph unicode="&#x2010;" horiz-adv-x="1337" d="M143 506v51q232 -11 525.5 -11t525.5 11v-51q-232 12 -525.5 12t-525.5 -12z" />
<glyph unicode="&#x2011;" horiz-adv-x="1337" d="M143 506v51q232 -11 525.5 -11t525.5 11v-51q-232 12 -525.5 12t-525.5 -12z" />
<glyph unicode="&#x2012;" horiz-adv-x="1337" d="M143 506v51q232 -11 525.5 -11t525.5 11v-51q-232 12 -525.5 12t-525.5 -12z" />
<glyph unicode="&#x2013;" horiz-adv-x="1925" d="M143 506v51q819 -23 1639 0v-51q-819 26 -1639 0z" />
<glyph unicode="&#x2014;" horiz-adv-x="2539" d="M143 506v51q487 -11 1126.5 -11t1126.5 11v-51q-487 12 -1126.5 12t-1126.5 -12z" />
<glyph unicode="&#x2018;" d="M143 1350l154 317l10 -10l-82 -225l82 -82l-82 -82z" />
<glyph unicode="&#x2019;" d="M143 1270l82 225l-82 82l82 82l82 -82l-153 -317z" />
<glyph unicode="&#x201a;" d="M143 41l82 82l82 -82l-153 -317l-11 10l82 225z" />
<glyph unicode="&#x201c;" horiz-adv-x="675" d="M143 1350l154 317l10 -10l-82 -225l82 -82l-82 -82zM369 1350l153 317l10 -10l-81 -225l81 -82l-81 -82z" />
<glyph unicode="&#x201d;" horiz-adv-x="675" d="M143 1270l82 225l-82 82l82 82l82 -82l-153 -317zM369 1270l82 225l-82 82l82 82l81 -82l-153 -317z" />
<glyph unicode="&#x201e;" horiz-adv-x="675" d="M143 41l82 82l82 -82l-153 -317l-11 10l82 225zM369 41l82 82l81 -82l-153 -317l-10 10l82 225z" />
<glyph unicode="&#x2022;" horiz-adv-x="688" d="M143 532l201 201l201 -201l-201 -200z" />
<glyph unicode="&#x2026;" horiz-adv-x="1146" d="M143 41l82 82l82 -82l-82 -82zM492 41l81 82l82 -82l-82 -82zM840 41l82 82l82 -82l-82 -82z" />
<glyph unicode="&#x202f;" horiz-adv-x="424" />
<glyph unicode="&#x2039;" horiz-adv-x="716" d="M143 471q75 63 143 123.5t158 145t107 100.5q26 -9 22.5 -31t-28.5 -47t-58 -51.5t-66 -50.5t-108.5 -79t-148.5 -110q73 -55 148.5 -109.5t108.5 -79t66 -51t58 -51.5t28.5 -47t-22.5 -31q-17 16 -107 100.5t-158 145t-143 123.5z" />
<glyph unicode="&#x203a;" horiz-adv-x="716" d="M143.5 133q3.5 22 28.5 47t58 51.5t66 51t108.5 79t148.5 109.5q-73 55 -148.5 110t-108.5 79t-66 50.5t-58 51.5t-28.5 47t22.5 31q23 -21 108.5 -101.5t154.5 -143t144 -124.5q-75 -62 -144 -124.5t-154.5 -143t-108.5 -101.5q-26 9 -22.5 31z" />
<glyph unicode="&#x205f;" horiz-adv-x="530" />
<glyph unicode="&#x20ac;" horiz-adv-x="1884" d="M143 649l41 51q192 -8 316 -8q-8 55 -8 127q0 30 4 84q-169 -4 -250 -8l41 51q29 -1 100.5 -4t112.5 -4q16 126 65.5 235.5t128.5 196t195.5 136.5t257.5 50q172 0 302 -68t292 -220l-82 -41q-58 76 -104 124.5t-108 94.5t-136 68t-164 22q-106 0 -197 -33t-156.5 -89 t-115.5 -133t-78.5 -162.5t-40.5 -180.5q445 -7 778 8l-41 -51q-304 17 -739 10q-4 -58 -4 -86q0 -72 8 -129q353 -3 674 10l-41 -51q-295 16 -629 13q15 -90 45.5 -171t80 -152.5t114 -123.5t152.5 -82.5t190 -30.5q90 0 164 22t136 68.5t108 95t104 124.5l82 -41 q-108 -101 -189.5 -159t-184 -94t-220.5 -36q-135 0 -248.5 46.5t-192 126.5t-129.5 183t-71 221q-181 0 -363 -10z" />
<glyph unicode="&#x2122;" horiz-adv-x="1384" d="M102 1638h572l-41 -39q-123 19 -199 19h-20v-164q0 -179 10 -369h-72q10 190 10 369v164h-20q-76 0 -199 -19zM727 1085q3 55 5 115.5t3 118.5t2 74q0 6 -3 97t-7 148h39l246 -520l229 520h41q-4 -57 -7 -148t-3 -97q1 -16 2 -74t3 -118.5t5 -115.5h-72q11 209 11 349 v106l-213 -481h-25l-225 475v-100q0 -159 10 -349h-41z" />
<glyph unicode="&#x25fc;" horiz-adv-x="942" d="M0 0v942h942v-942h-942z" />
<glyph unicode="&#xfb01;" horiz-adv-x="1021" d="M41 922v20h213v178q0 152 22 262.5t63 174t93 93t117 29.5q45 0 82 -13t80.5 -49.5t86 -113t81.5 -192.5l-82 -82l-82 82q7 101 -2.5 171.5t-34.5 108t-56 53t-73 15.5q-114 0 -179 -132t-65 -407v-178h526q-10 -129 -10 -348v-246q0 -219 10 -348h-71q10 129 10 348v246 q0 207 -8 328h-457v-553q0 -179 10 -369h-71q10 190 10 369v553h-213z" />
<glyph unicode="&#xfb03;" horiz-adv-x="1452" d="M41 922v20h213v117q0 127 15 223t39.5 155t62 95.5t78 50.5t90.5 14q101 0 200 -102q71 184 240 184q45 0 82 -13t80.5 -49.5t86 -113t81.5 -192.5l-82 -82l-82 82q7 101 -2.5 171.5t-34.5 108t-56 53t-73 15.5q-114 0 -179 -132t-65 -407v-178h527q-11 -142 -11 -348 v-246q0 -206 11 -348h-72q10 129 10 348v246q0 207 -8 328h-457v-553q0 -179 10 -369h-71q10 190 10 369v553h-379v-553q0 -179 10 -369h-71q10 190 10 369v553h-213zM305 942h379v178q0 217 45 350q-92 107 -190 107q-53 0 -94 -25t-73.5 -82.5t-49.5 -161t-17 -249.5v-117 z" />
</font>
</defs>
</svg>
