<svg width="56" height="64" viewBox="0 0 56 64" fill="none" xmlns="http://www.w3.org/2000/svg">
<path d="M54.9301 27.84C54.9301 42.65 42.92 63.33 28.11 63.33C13.3 63.33 1.29004 42.65 1.29004 27.84C1.29004 13.03 13.3 1.02002 28.11 1.02002C42.92 1.02002 54.9301 13.03 54.9301 27.84Z" stroke="#1F140F" stroke-miterlimit="10"/>
<path d="M17.8199 40.92C20.1561 40.92 22.05 37.8487 22.05 34.06C22.05 30.2713 20.1561 27.2 17.8199 27.2C15.4838 27.2 13.59 30.2713 13.59 34.06C13.59 37.8487 15.4838 40.92 17.8199 40.92Z" fill="#1F140F"/>
<path d="M38.4 40.92C40.7362 40.92 42.63 37.8487 42.63 34.06C42.63 30.2713 40.7362 27.2 38.4 27.2C36.0639 27.2 34.17 30.2713 34.17 34.06C34.17 37.8487 36.0639 40.92 38.4 40.92Z" fill="#1F140F"/>
<path d="M38.05 48.28C35.1 51.37 31.72 53.3 28.13 53.3C24.53 53.3 21.1401 51.35 18.1801 48.24" stroke="#1F140F" stroke-miterlimit="10"/>
</svg>
