<svg width="43" height="42" viewBox="0 0 43 42" fill="none" xmlns="http://www.w3.org/2000/svg">
<path d="M21.58 41.3199C32.7969 41.3199 41.89 32.2269 41.89 21.01C41.89 9.79311 32.7969 0.699951 21.58 0.699951C10.3631 0.699951 1.27002 9.79311 1.27002 21.01C1.27002 32.2269 10.3631 41.3199 21.58 41.3199Z" stroke="#1F140F" stroke-miterlimit="10"/>
<path d="M17.3382 16.1567C19.2383 13.3281 19.0877 9.89912 17.0018 8.49793C14.9158 7.09673 11.6844 8.25393 9.78434 11.0826C7.88427 13.9112 8.03504 17.3401 10.121 18.7413C12.2069 20.1425 15.4382 18.9854 17.3382 16.1567Z" stroke="#1F140F" stroke-miterlimit="10"/>
<path d="M33.864 15.8929C35.4154 14.7397 35.4043 12.098 33.8393 9.99247C32.2742 7.88697 29.7477 7.115 28.1963 8.26822C26.6449 9.42145 26.656 12.0632 28.2211 14.1687C29.7861 16.2742 32.3126 17.0461 33.864 15.8929Z" stroke="#1F140F" stroke-miterlimit="10"/>
<path d="M29.2248 34.287C32.402 32.0172 33.6217 28.2792 31.9491 25.9378C30.2764 23.5965 26.3449 23.5385 23.1677 25.8083C19.9905 28.078 18.7707 31.8161 20.4433 34.1574C22.116 36.4988 26.0476 36.5567 29.2248 34.287Z" stroke="#1F140F" stroke-miterlimit="10"/>
</svg>
