<svg width="88" height="79" viewBox="0 0 88 79" fill="none" xmlns="http://www.w3.org/2000/svg">
<path d="M43.72 78.16C63.5525 78.16 79.63 62.0825 79.63 42.25C79.63 22.4175 63.5525 6.34 43.72 6.34C23.8875 6.34 7.81 22.4175 7.81 42.25C7.81 62.0825 23.8875 78.16 43.72 78.16Z" stroke="#1F140F" stroke-miterlimit="10"/>
<path d="M54.69 50.55C52.56 54.42 48.44 57.05 43.7 57.05C38.99 57.05 34.89 54.46 32.75 50.62" stroke="#1F140F" stroke-miterlimit="10"/>
<path d="M32.29 45.81C33.7646 45.81 34.96 43.8714 34.96 41.48C34.96 39.0886 33.7646 37.15 32.29 37.15C30.8154 37.15 29.62 39.0886 29.62 41.48C29.62 43.8714 30.8154 45.81 32.29 45.81Z" fill="#1F140F"/>
<path d="M55.16 45.81C56.6346 45.81 57.83 43.8714 57.83 41.48C57.83 39.0886 56.6346 37.15 55.16 37.15C53.6854 37.15 52.49 39.0886 52.49 41.48C52.49 43.8714 53.6854 45.81 55.16 45.81Z" fill="#1F140F"/>
<path d="M18.87 34.4C17.65 38.24 17.3 42.47 18.06 46.85C20 58.05 29.38 66.85 40.67 68.13C56.43 69.92 69.78 57.64 69.78 42.24C69.78 39.23 69.27 36.34 68.32 33.65C67.54 31.43 65.35 30.01 63 30.01H24.75C22.03 30.02 19.69 31.82 18.87 34.4Z" stroke="#1F140F" stroke-miterlimit="10"/>
<path d="M9.27999 52.35H3.33999C1.93999 52.35 0.799988 51.21 0.799988 49.81V37.95C0.799988 36.55 1.93999 35.41 3.33999 35.41H8.09999" stroke="#1F140F" stroke-miterlimit="10"/>
<path d="M78.17 52.35H84.11C85.51 52.35 86.65 51.21 86.65 49.81V37.95C86.65 36.55 85.51 35.41 84.11 35.41H79.35" stroke="#1F140F" stroke-miterlimit="10"/>
<path d="M83.01 35.42V4.47" stroke="#1F140F" stroke-miterlimit="10"/>
<path d="M83.01 8.14999C85.0424 8.14999 86.69 6.50241 86.69 4.47C86.69 2.43759 85.0424 0.790009 83.01 0.790009C80.9776 0.790009 79.33 2.43759 79.33 4.47C79.33 6.50241 80.9776 8.14999 83.01 8.14999Z" fill="#1F140F"/>
</svg>
