<svg width="66" height="67" viewBox="0 0 66 67" fill="none" xmlns="http://www.w3.org/2000/svg">
<path d="M32.97 65.65C50.8585 65.65 65.36 51.1485 65.36 33.26C65.36 15.3715 50.8585 0.869995 32.97 0.869995C15.0815 0.869995 0.579987 15.3715 0.579987 33.26C0.579987 51.1485 15.0815 65.65 32.97 65.65Z" stroke="#1F140F" stroke-miterlimit="10"/>
<path d="M0.76001 33.49C8.45001 20.94 20.33 12.95 33.61 13.11C46.51 13.27 57.97 21.08 65.5 33.2" stroke="#1F140F" stroke-miterlimit="10"/>
<path d="M0.76001 33.13C8.45001 45.68 20.33 53.67 33.61 53.51C46.51 53.35 57.97 45.54 65.5 33.42" stroke="#1F140F" stroke-miterlimit="10"/>
<path d="M33.04 41.4701C37.5742 41.4701 41.25 37.7943 41.25 33.26C41.25 28.7258 37.5742 25.05 33.04 25.05C28.5057 25.05 24.83 28.7258 24.83 33.26C24.83 37.7943 28.5057 41.4701 33.04 41.4701Z" fill="#1F140F"/>
<path d="M19.45 31.95C20.9688 31.95 22.2 30.7187 22.2 29.2C22.2 27.6812 20.9688 26.45 19.45 26.45C17.9312 26.45 16.7 27.6812 16.7 29.2C16.7 30.7187 17.9312 31.95 19.45 31.95Z" fill="#050506"/>
<path d="M52.91 39.83C54.8209 39.83 56.37 38.2809 56.37 36.37C56.37 34.4591 54.8209 32.91 52.91 32.91C50.9991 32.91 49.45 34.4591 49.45 36.37C49.45 38.2809 50.9991 39.83 52.91 39.83Z" fill="#050506"/>
<path d="M33.04 53.51C44.1575 53.51 53.17 44.4706 53.17 33.32C53.17 22.1694 44.1575 13.13 33.04 13.13C21.9225 13.13 12.91 22.1694 12.91 33.32C12.91 44.4706 21.9225 53.51 33.04 53.51Z" stroke="#1F140F" stroke-miterlimit="10"/>
<path d="M33.04 47.44C40.8714 47.44 47.22 41.0914 47.22 33.26C47.22 25.4286 40.8714 19.08 33.04 19.08C25.2086 19.08 18.86 25.4286 18.86 33.26C18.86 41.0914 25.2086 47.44 33.04 47.44Z" stroke="#1F140F" stroke-miterlimit="10"/>
</svg>
