<svg width="55" height="45" viewBox="0 0 55 45" fill="none" xmlns="http://www.w3.org/2000/svg">
<path d="M27.92 43.94C42.539 43.94 54.39 34.3678 54.39 22.56C54.39 10.7521 42.539 1.17999 27.92 1.17999C13.301 1.17999 1.45001 10.7521 1.45001 22.56C1.45001 34.3678 13.301 43.94 27.92 43.94Z" stroke="#1D1D1D" stroke-miterlimit="10"/>
<path d="M29.6843 36.095C27.7525 36.095 25.8909 35.8535 24.0996 35.3705C22.317 34.8964 20.6838 34.1895 19.1998 33.2499C17.7158 32.3103 16.6313 31.2742 15.9464 30.1414L16.9606 29.7595C17.5753 30.62 18.528 31.4147 19.8188 32.1435C21.1096 32.8811 22.6112 33.4607 24.3235 33.8821C26.0446 34.3036 27.9105 34.5144 29.9214 34.5144C31.7391 34.5144 33.4909 34.3036 35.1768 33.8821C36.8716 33.4607 38.3819 32.8767 39.7078 32.1303C41.0426 31.3927 42.0129 30.6024 42.6188 29.7595L43.633 30.1414C42.9568 31.2478 41.8768 32.2708 40.3928 33.2104C38.9088 34.15 37.2623 34.8656 35.4534 35.3574C33.6446 35.8491 31.7215 36.095 29.6843 36.095Z" fill="#1D1D1D"/>
<path d="M22.9521 21.9485C22.9521 21.1536 22.6729 20.5262 22.1144 20.0663C21.556 19.5998 20.5344 19.1597 19.0497 18.7458C17.5649 18.3253 16.4809 17.8687 15.7977 17.376C14.8254 16.6796 14.3392 15.7664 14.3392 14.6365C14.3392 13.5393 14.7893 12.6491 15.6893 11.9659C16.5959 11.2761 17.7522 10.9312 19.1581 10.9312C20.1107 10.9312 20.9615 11.1151 21.7104 11.483C22.4659 11.8509 23.0506 12.3634 23.4645 13.0203C23.8784 13.6773 24.0853 14.4098 24.0853 15.2179H22.8634C22.8634 14.239 22.5283 13.4539 21.8582 12.8626C21.1881 12.2648 20.2881 11.9659 19.1581 11.9659C18.061 11.9659 17.1872 12.2122 16.5368 12.705C15.8864 13.1911 15.5612 13.8284 15.5612 14.6167C15.5612 15.346 15.8535 15.9405 16.4382 16.4004C17.0229 16.8603 17.9591 17.2676 19.2468 17.6224C20.5344 17.9706 21.51 18.3352 22.1736 18.7162C22.8371 19.0907 23.3364 19.5407 23.6714 20.0663C24.0065 20.5919 24.174 21.2127 24.174 21.9288C24.174 23.0588 23.7207 23.9654 22.8141 24.6486C21.9141 25.3319 20.725 25.6735 19.2468 25.6735C18.235 25.6735 17.3054 25.4928 16.458 25.1315C15.617 24.7702 14.9765 24.2643 14.5363 23.6139C14.1027 22.9635 13.8859 22.2178 13.8859 21.3769H15.098C15.098 22.3887 15.4758 23.1869 16.2313 23.7716C16.9868 24.3563 17.992 24.6486 19.2468 24.6486C20.3636 24.6486 21.2604 24.4023 21.9371 23.9095C22.6137 23.4168 22.9521 22.7631 22.9521 21.9485Z" fill="#1D1D1D"/>
<path d="M36.0379 18.7813C34.4578 18.3272 33.3064 17.7706 32.5835 17.1117C31.8671 16.4464 31.5088 15.6276 31.5088 14.6553C31.5088 13.555 31.947 12.6466 32.8234 11.9302C33.7062 11.2073 34.8513 10.8459 36.2586 10.8459C37.2181 10.8459 38.0721 11.0314 38.8206 11.4024C39.5754 11.7735 40.1575 12.2852 40.5669 12.9377C40.9827 13.5902 41.1907 14.3035 41.1907 15.0775H39.3387C39.3387 14.2331 39.0701 13.571 38.5327 13.0912C37.9954 12.6051 37.2373 12.362 36.2586 12.362C35.3502 12.362 34.6402 12.5635 34.1284 12.9665C33.623 13.3631 33.3704 13.9164 33.3704 14.6265C33.3704 15.1958 33.6102 15.6788 34.09 16.0754C34.5762 16.4656 35.3982 16.8239 36.556 17.1501C37.7203 17.4764 38.6287 17.8378 39.2812 18.2344C39.94 18.6246 40.4262 19.082 40.7397 19.6065C41.0595 20.1311 41.2194 20.7484 41.2194 21.4585C41.2194 22.5907 40.778 23.4991 39.8953 24.1836C39.0125 24.8617 37.8322 25.2007 36.3545 25.2007C35.395 25.2007 34.4994 25.0184 33.6678 24.6538C32.8362 24.2827 32.1933 23.7774 31.7391 23.1377C31.2913 22.498 31.0674 21.7719 31.0674 20.9595H32.9194C32.9194 21.8039 33.2296 22.4724 33.8501 22.965C34.477 23.4511 35.3118 23.6942 36.3545 23.6942C37.3269 23.6942 38.0721 23.4959 38.5903 23.0993C39.1084 22.7027 39.3675 22.1621 39.3675 21.4777C39.3675 20.7932 39.1276 20.2654 38.6479 19.8944C38.1681 19.517 37.2981 19.146 36.0379 18.7813Z" fill="#1D1D1D"/>
</svg>
