<svg width="368" height="36" viewBox="0 0 368 36" fill="none" xmlns="http://www.w3.org/2000/svg">
<path d="M22.16 26.5801C22.16 24.7201 21.46 23.2001 20.07 22.0301C18.68 20.8501 16.26 19.8101 12.8 18.9001C9.05998 17.9601 6.22998 16.7401 4.30998 15.2401C2.38998 13.7401 1.42998 11.7101 1.42998 9.17008C1.42998 6.56008 2.49998 4.43008 4.64998 2.79008C6.79998 1.15008 9.55998 0.330078 12.94 0.330078C16.46 0.330078 19.3 1.31008 21.45 3.26008C23.61 5.21008 24.65 7.60008 24.59 10.4101L24.52 10.5501H21.94C21.94 8.27008 21.13 6.39008 19.51 4.92008C17.89 3.45008 15.7 2.72008 12.93 2.72008C10.19 2.72008 8.05998 3.33008 6.51998 4.55008C4.97998 5.77008 4.20998 7.29008 4.20998 9.10008C4.20998 10.8201 4.91998 12.2501 6.33998 13.4001C7.75998 14.5501 10.22 15.5601 13.7 16.4401C17.37 17.3801 20.17 18.6401 22.08 20.2401C24 21.8301 24.95 23.9401 24.95 26.5501C24.95 29.2701 23.84 31.4401 21.61 33.0501C19.38 34.6601 16.54 35.4701 13.09 35.4701C9.67998 35.4701 6.70998 34.6101 4.16998 32.9001C1.62998 31.1901 0.399982 28.6901 0.479982 25.4101L0.529978 25.2701H3.10998C3.10998 27.9201 4.09998 29.8801 6.08998 31.1601C8.07998 32.4401 10.41 33.0801 13.1 33.0801C15.8 33.0801 17.99 32.4901 19.65 31.3001C21.32 30.1001 22.16 28.5401 22.16 26.5801Z" fill="#1D1D1D"/>
<path d="M34.91 34.9701H32.1V0.820068H34.91V34.9701Z" fill="#1D1D1D"/>
<path d="M44.48 34.9701V0.820068H54.4C58.57 0.820068 62.02 2.21007 64.74 4.99007C67.46 7.77007 68.82 11.3501 68.82 15.7101V20.1001C68.82 24.4801 67.46 28.0501 64.74 30.8201C62.02 33.5901 58.57 34.9701 54.4 34.9701H44.48ZM47.27 3.22007V32.5801H54.4C57.78 32.5801 60.56 31.4001 62.74 29.0401C64.92 26.6801 66.01 23.7001 66.01 20.0901V15.6401C66.01 12.0801 64.92 9.12007 62.73 6.76007C60.54 4.40007 57.77 3.22007 54.4 3.22007H47.27Z" fill="#1D1D1D"/>
<path d="M95.23 18.4401H78.79V32.5801H97.62V34.9701H76V0.820068H97.5V3.21007H78.79V16.0401H95.23V18.4401Z" fill="#1D1D1D"/>
<path d="M106.39 19.5401V34.9701H103.6V0.850098H115.16C118.82 0.850098 121.62 1.6501 123.58 3.2501C125.53 4.8501 126.51 7.1901 126.51 10.2701C126.51 12.0801 125.99 13.7101 124.94 15.1401C123.89 16.5701 122.41 17.6101 120.51 18.2701C122.62 18.8001 124.14 19.7501 125.07 21.1201C126 22.4901 126.47 24.2001 126.47 26.2701V29.4801C126.47 30.5401 126.59 31.5001 126.85 32.3401C127.1 33.1801 127.51 33.8701 128.09 34.4001V34.9601H125.23C124.65 34.4001 124.25 33.6101 124.01 32.5901C123.78 31.5701 123.66 30.5201 123.66 29.4201V26.3001C123.66 24.2101 122.98 22.5501 121.63 21.3401C120.28 20.1301 118.39 19.5201 115.97 19.5201H106.39V19.5401ZM106.39 17.1501H114.81C117.89 17.1501 120.14 16.5301 121.56 15.2901C122.98 14.0501 123.69 12.3701 123.69 10.2601C123.69 8.0101 122.98 6.2801 121.57 5.0701C120.15 3.8601 118.02 3.2501 115.16 3.2501H106.39V17.1501Z" fill="#1D1D1D"/>
<path d="M153.62 25.4501H137.98L134.46 34.9701H131.55L144.52 0.830078H147.17L160.04 34.9701H157.13L153.62 25.4501ZM138.92 22.9401H152.71L145.91 4.46008H145.77L138.92 22.9401Z" fill="#1D1D1D"/>
<path d="M168.09 32.5801H184.97V34.9701H165.27V0.820068H168.08V32.5801H168.09Z" fill="#1D1D1D"/>
<path d="M175.01 1.27002L177.16 7.02002H177.19L179.35 1.27002H180.97V8.74002H179.72V6.20002L179.84 2.96002L179.81 2.95002L177.59 8.74002H176.75L174.54 2.97002L174.51 2.98002L174.63 6.20002V8.75002H173.38V1.28002H175.01V1.27002Z" fill="#1D1D1D"/>
<path d="M185.12 4.03002L186.7 1.27002H188.18L185.88 4.98002L188.27 8.75002H186.77L185.15 5.94002L183.53 8.75002H182.05L184.4 4.98002L182.1 1.27002H183.57L185.12 4.03002Z" fill="#1D1D1D"/>
<path d="M213.37 9.88009C211.03 5.72009 208.18 1.79009 202.47 1.79009C197.89 1.79009 194.84 5.06009 194.84 8.76009C194.84 14.6501 199.47 15.9601 203.49 16.7101C207.93 17.3201 211.02 18.4901 212.8 20.0801C214.62 21.6701 215.51 23.4501 215.51 25.3201C215.51 30.9801 210.93 35.4301 204.61 35.4301C202.27 35.4301 199.32 34.5401 195.77 32.7601L194.41 34.1201H194L190.73 26.0301H191.9C195.17 30.1901 199.39 33.9801 204.63 33.9801C209.31 33.9801 213.14 30.5201 213.14 26.4001C213.14 24.2501 211.64 20.5101 203.5 19.2901C198.92 18.5401 195.87 17.2301 194.42 15.3601C193.11 13.6801 192.46 11.7601 192.46 9.56009C192.46 4.13009 197.23 0.340088 202.47 0.340088C204.58 0.340088 207.1 1.14009 210.1 2.73009L211.41 1.65009H211.83L214.59 9.88009H213.37Z" fill="#1D1D1D"/>
<path d="M234.52 4.22006C234.52 3.24006 234.01 2.26006 232.04 2.26006C226.15 2.26006 223.62 4.46006 220.44 9.89006H219.22L222.92 0.810059H248.18L252.34 9.70006H251.17C247.66 3.95006 245.74 2.26006 239.38 2.26006C237.23 2.26006 236.9 3.71006 236.9 4.22006V31.0301C236.9 33.0401 238.02 33.5101 239.19 33.5101H241.62V34.9601H229.83V33.5101H232.12C233.71 33.5101 234.51 32.5301 234.51 31.0301V4.22006H234.52Z" fill="#1D1D1D"/>
<path d="M261.23 24.66C261.23 29.48 263.62 33.9701 270.68 33.9701C274.28 33.9701 280.27 32.15 280.27 23.21V5.48005C280.27 2.77005 279.05 2.11005 278.4 2.11005H275.97V0.800049H286.22V2.11005H284.11C282.94 2.11005 281.86 3.14005 281.86 5.48005V23.21C281.86 32.94 275.59 35.42 269.56 35.42C266 35.42 263.2 34.4401 261.23 32.3801C259.64 30.7401 258.89 28.17 258.89 24.66V5.58005C258.89 2.49005 257.3 2.12005 256.6 2.12005H254.17V0.800049H265.87V2.11005H263.91C262.13 2.11005 261.24 3.33005 261.24 5.57005V24.66H261.23Z" fill="#1D1D1D"/>
<path d="M292.67 6.37005C292.67 2.25005 291.22 2.25005 288.04 2.25005V0.800049H301.05C308.39 0.800049 316.58 4.50005 316.58 18.0201C316.58 21.9001 315.78 25.18 314.1 27.89C310.5 33.78 305.26 34.9501 300.49 34.9501H288.05V33.5H289.87C292.07 33.5 292.68 32.33 292.68 29.5201V6.37005H292.67ZM298.47 2.25005C295.94 2.25005 295.01 2.62005 295.01 5.43005V30.9701C295.01 32.89 296.04 33.5 298.38 33.5H300.49C303.25 33.5 305.59 32.9401 307.46 31.8601C312 29.3801 313.92 23.06 313.92 17.12C313.92 12.07 312.8 8.42005 310.65 6.08005C308.26 3.55005 305.04 2.24005 301.06 2.24005H298.47V2.25005Z" fill="#1D1D1D"/>
<path d="M327.67 31.21C327.67 32.85 328.37 33.5 330.15 33.5H333.1V34.9501H319.81V33.5H322.99C324.49 33.5 325.28 32.7 325.28 31.21V4.50005C325.28 2.49005 324.06 2.25005 322.99 2.25005H319.81V0.800049H333.1V2.25005H330.15C328.51 2.25005 327.67 2.62005 327.67 4.50005V31.21Z" fill="#1D1D1D"/>
<path d="M352 35.6601C343.11 35.6601 336.23 28.5501 336.23 17.9301C336.23 8.01006 343.11 0.0600586 352 0.0600586C360.65 0.0600586 367.3 8.15006 367.3 17.9301C367.29 28.5901 360.37 35.6601 352 35.6601ZM338.9 17.9301C338.9 27.0501 343.95 34.2101 352 34.2101C359.2 34.2101 364.58 27.6601 364.58 17.9301C364.58 8.53006 359.25 1.56006 352 1.56006C348.44 1.56006 345.5 2.92006 343.06 5.68006C340.3 8.94006 338.9 13.0101 338.9 17.9301Z" fill="#1D1D1D"/>
</svg>
