<svg width="75" height="63" viewBox="0 0 75 63" fill="none" xmlns="http://www.w3.org/2000/svg">
<path d="M37.47 13.34V4.45996" stroke="#1F140F" stroke-miterlimit="10"/>
<path d="M37.47 8.19997C39.5355 8.19997 41.21 6.52552 41.21 4.45998C41.21 2.39443 39.5355 0.719971 37.47 0.719971C35.4045 0.719971 33.73 2.39443 33.73 4.45998C33.73 6.52552 35.4045 8.19997 37.47 8.19997Z" fill="#1F140F"/>
<path d="M15.85 31.36C6.79001 33.65 0.899994 37.35 0.899994 41.51C0.899994 48.46 17.27 54.1 37.47 54.1C57.67 54.1 74.04 48.46 74.04 41.51C74.04 37.41 68.33 33.76 59.5 31.46" stroke="#1F140F" stroke-miterlimit="10"/>
<path d="M57.92 53.35V54.75C57.92 58.64 48.77 61.79 37.47 61.79C26.18 61.79 17.02 58.64 17.02 54.75V53.23" stroke="#1F140F" stroke-miterlimit="10"/>
<path d="M59 35.13C59 22.41 47.97 12.27 34.96 13.74C25.63 14.8 17.88 22.06 16.28 31.32C15.97 33.09 15.89 34.82 16 36.5C16 36.5 16 36.58 16 36.63C16 39.7 25.6 42.19 37.45 42.19C49.3 42.19 58.9 39.7 58.9 36.63C58.89 36.58 59 35.6 59 35.13Z" stroke="#1F140F" stroke-miterlimit="10"/>
</svg>
