<svg width="57" height="40" viewBox="0 0 57 40" fill="none" xmlns="http://www.w3.org/2000/svg">
<path d="M28.08 39.38C38.7777 39.38 47.45 30.7078 47.45 20.01C47.45 9.31225 38.7777 0.640015 28.08 0.640015C17.3822 0.640015 8.70996 9.31225 8.70996 20.01C8.70996 30.7078 17.3822 39.38 28.08 39.38Z" stroke="#1F140F" stroke-miterlimit="10"/>
<path d="M44.67 8.9399C50.87 7.9199 55.1399 8.21002 55.8199 10.06C57.0799 13.45 45.74 20.7899 30.5 26.4499C15.26 32.1099 1.87999 33.95 0.619988 30.56C-0.0800119 28.66 3.15005 25.53 8.81005 22.15" stroke="#1F140F" stroke-miterlimit="10"/>
<path d="M44.67 8.9399C50.87 7.9199 55.1399 8.21002 55.8199 10.06C57.0799 13.45 45.74 20.7899 30.5 26.4499C15.26 32.1099 1.87999 33.95 0.619988 30.56C-0.0800119 28.66 3.15005 25.53 8.81005 22.15" stroke="#1F140F" stroke-miterlimit="10"/>
<path d="M44.67 8.9399C50.87 7.9199 55.1399 8.21002 55.8199 10.06C57.0799 13.45 45.74 20.7899 30.5 26.4499C15.26 32.1099 1.87999 33.95 0.619988 30.56C-0.0800119 28.66 3.15005 25.53 8.81005 22.15" stroke="#1F140F" stroke-miterlimit="10"/>
</svg>
