<svg width="88" height="88" viewBox="0 0 88 88" fill="none" xmlns="http://www.w3.org/2000/svg">
<path d="M43.97 86.68C67.7348 86.68 87 67.4148 87 43.65C87 19.8852 67.7348 0.619995 43.97 0.619995C20.2052 0.619995 0.939941 19.8852 0.939941 43.65C0.939941 67.4148 20.2052 86.68 43.97 86.68Z" stroke="#1F140F" stroke-miterlimit="10"/>
<path d="M64.8101 54.35C60.7601 61.71 52.9301 66.69 43.9301 66.69C34.9901 66.69 27.2 61.77 23.13 54.48" stroke="#1F140F" stroke-miterlimit="10"/>
<path d="M27.15 43.48C29.315 43.48 31.0699 40.628 31.0699 37.11C31.0699 33.5919 29.315 30.74 27.15 30.74C24.9851 30.74 23.23 33.5919 23.23 37.11C23.23 40.628 24.9851 43.48 27.15 43.48Z" fill="#1F140F"/>
<path d="M60.79 43.48C62.955 43.48 64.71 40.628 64.71 37.11C64.71 33.5919 62.955 30.74 60.79 30.74C58.6251 30.74 56.87 33.5919 56.87 37.11C56.87 40.628 58.6251 43.48 60.79 43.48Z" fill="#1F140F"/>
</svg>
