<svg width="142" height="142" viewBox="0 0 142 142" fill="none" xmlns="http://www.w3.org/2000/svg">
<g clip-path="url(#clip0)">
<path d="M70.71 140.92C109.486 140.92 140.92 109.486 140.92 70.71C140.92 31.9341 109.486 0.5 70.71 0.5C31.9341 0.5 0.5 31.9341 0.5 70.71C0.5 109.486 31.9341 140.92 70.71 140.92Z" stroke="#1F140F" stroke-miterlimit="10"/>
<path d="M104.71 88.17C98.1 100.18 85.32 108.31 70.64 108.31C56.05 108.31 43.35 100.28 36.7 88.39" stroke="#1F140F" stroke-miterlimit="10"/>
<path d="M43.26 70.43C46.7946 70.43 49.66 65.7782 49.66 60.04C49.66 54.3018 46.7946 49.65 43.26 49.65C39.7254 49.65 36.86 54.3018 36.86 60.04C36.86 65.7782 39.7254 70.43 43.26 70.43Z" fill="#1F140F"/>
<path d="M98.16 70.43C101.695 70.43 104.56 65.7782 104.56 60.04C104.56 54.3018 101.695 49.65 98.16 49.65C94.6254 49.65 91.76 54.3018 91.76 60.04C91.76 65.7782 94.6254 70.43 98.16 70.43Z" fill="#1F140F"/>
<path d="M70.71 43.26C74.2446 43.26 77.11 38.6082 77.11 32.87C77.11 27.1318 74.2446 22.48 70.71 22.48C67.1754 22.48 64.31 27.1318 64.31 32.87C64.31 38.6082 67.1754 43.26 70.71 43.26Z" fill="#1F140F"/>
</g>
<defs>
<clipPath id="clip0">
<rect width="141.42" height="141.42" fill="white"/>
</clipPath>
</defs>
</svg>
