<svg width="62" height="63" viewBox="0 0 62 63" fill="none" xmlns="http://www.w3.org/2000/svg">
<path d="M30.59 62.77C16.62 62.77 5.25999 55.76 5.25999 47.14C5.25999 45.62 5.60999 44.13 6.29999 42.69C6.41999 42.44 6.71999 42.34 6.96999 42.45C7.21999 42.57 7.31999 42.87 7.20999 43.12C6.58999 44.42 6.26999 45.77 6.26999 47.14C6.26999 55.21 17.18 61.77 30.6 61.77C44.02 61.77 54.93 55.21 54.93 47.14C54.93 45.63 54.55 44.15 53.79 42.73C53.66 42.49 53.75 42.18 54 42.05C54.24 41.92 54.55 42.01 54.68 42.26C55.51 43.83 55.93 45.47 55.93 47.14C55.92 55.76 44.56 62.77 30.59 62.77Z" fill="#1D1D1D"/>
<path d="M19.08 8.11996C18.9 8.11996 18.73 8.02996 18.64 7.85996C18.51 7.61996 18.6 7.30996 18.84 7.17996C22.41 5.23996 26.47 4.20996 30.58 4.20996C34.28 4.20996 37.84 5.00996 41.14 6.57996C41.4 6.69996 41.51 6.99996 41.39 7.24996C41.27 7.49996 40.97 7.60996 40.72 7.48996C37.55 5.97996 34.14 5.21996 30.59 5.21996C26.65 5.21996 22.75 6.19996 19.32 8.06996C19.25 8.09996 19.17 8.11996 19.08 8.11996Z" fill="#1D1D1D"/>
<path d="M30.59 55.81C14.87 55.81 2.07001 43.29 2.07001 27.91C2.07001 12.53 14.87 0 30.59 0C46.31 0 59.11 12.52 59.11 27.9C59.11 43.28 46.31 55.81 30.59 55.81ZM30.59 1C15.42 1 3.07001 13.07 3.07001 27.9C3.07001 42.73 15.41 54.8 30.59 54.8C45.76 54.8 58.11 42.73 58.11 27.9C58.11 13.07 45.76 1 30.59 1Z" fill="#1D1D1D"/>
<path d="M31.12 49.29C31.03 49.29 30.94 49.29 30.85 49.29C25.22 49.1 20.89 47.91 17.23 45.53C12.67 42.57 10.03 39.09 9.14999 34.89C8.55999 32.09 8.08999 28.86 9.93999 26.03C10.5 25.17 11.39 24.37 12.66 23.59C16.64 21.14 20.79 19.58 25 18.97C30.1 18.23 35.01 18.46 39.61 19.66C43.06 20.56 46.43 22.09 49.9 24.35C51.25 25.23 52.12 26.63 52.41 28.4C53.37 34.2 51.6 39.22 47.15 43.3C45.34 44.96 43.22 46.29 40.85 47.25C37.44 48.62 34.25 49.29 31.12 49.29ZM30.88 48.29C33.95 48.32 37.09 47.68 40.46 46.31C42.72 45.4 44.74 44.13 46.46 42.55C50.71 38.66 52.33 34.08 51.41 28.55C51.24 27.52 50.74 26.09 49.34 25.18C45.96 22.98 42.7 21.49 39.35 20.62C34.89 19.46 30.1 19.24 25.14 19.96C21.06 20.55 17.04 22.06 13.18 24.44C12.06 25.13 11.25 25.85 10.77 26.58C9.12999 29.09 9.54999 31.96 10.12 34.69C10.95 38.61 13.45 41.88 17.77 44.69C21.28 46.96 25.45 48.11 30.88 48.29Z" fill="#1D1D1D"/>
<path d="M57.9 34.6299C57.76 34.6299 57.61 34.5699 57.51 34.4499C57.33 34.2399 57.36 33.9199 57.58 33.7499L60.12 31.6499L60.19 23.2199L57.68 21.5199C57.45 21.3699 57.39 21.0499 57.55 20.8299C57.7 20.5999 58.02 20.5399 58.24 20.6999L60.98 22.5499C61.12 22.6399 61.2 22.7999 61.2 22.9699L61.13 31.8999C61.13 32.0499 61.06 32.1899 60.95 32.2799L58.23 34.5299C58.12 34.5899 58.01 34.6299 57.9 34.6299Z" fill="#1D1D1D"/>
<path d="M3.29 34.63C3.18 34.63 3.06 34.59 2.97 34.52L0.25 32.27C0.14 32.18 0.07 32.04 0.07 31.89L0 22.96C0 22.79 0.08 22.64 0.22 22.54L2.96 20.69C3.19 20.54 3.5 20.6 3.65 20.82C3.8 21.05 3.74 21.36 3.52 21.51L1 23.22L1.07 31.65L3.61 33.75C3.82 33.93 3.85 34.24 3.68 34.45C3.57 34.57 3.43 34.63 3.29 34.63Z" fill="#1D1D1D"/>
<path d="M30.5 45C27.52 45 24.89 44.45 22.63 43.34C20.37 42.23 18.84 40.99 18.03 39.61V39.54L18.87 39.23C19.69 40.39 21.16 41.4 23.29 42.27C25.42 43.14 27.81 43.58 30.47 43.58H30.71C33.35 43.58 35.74 43.14 37.88 42.25C40.02 41.36 41.5 40.36 42.31 39.24L43.15 39.55V39.62C42.36 40.98 40.82 42.22 38.5 43.34C36.2 44.44 33.59 45 30.68 45H30.5Z" fill="#1D1D1D"/>
<path d="M26.78 33.74C26.78 33.11 26.54 32.59 26.07 32.19C25.6 31.79 24.77 31.43 23.59 31.12C22.32 30.8 21.35 30.38 20.7 29.87C20.04 29.36 19.72 28.67 19.72 27.8C19.72 26.91 20.09 26.19 20.82 25.63C21.55 25.07 22.49 24.79 23.65 24.79C24.85 24.79 25.82 25.12 26.55 25.79C27.29 26.46 27.64 27.27 27.62 28.23L27.6 28.28H26.72C26.72 27.5 26.44 26.86 25.89 26.36C25.34 25.86 24.59 25.61 23.65 25.61C22.72 25.61 21.99 25.82 21.46 26.23C20.94 26.65 20.67 27.16 20.67 27.78C20.67 28.37 20.91 28.86 21.4 29.25C21.88 29.64 22.72 29.99 23.91 30.28C25.16 30.6 26.11 31.03 26.77 31.57C27.42 32.11 27.75 32.83 27.75 33.72C27.75 34.65 27.37 35.39 26.61 35.93C25.85 36.48 24.88 36.75 23.7 36.75C22.54 36.75 21.52 36.46 20.66 35.87C19.79 35.29 19.37 34.44 19.4 33.32L19.42 33.27H20.3C20.3 34.17 20.64 34.84 21.32 35.28C22 35.72 22.79 35.93 23.71 35.93C24.63 35.93 25.38 35.73 25.94 35.32C26.5 34.94 26.78 34.4 26.78 33.74Z" fill="#1D1D1D"/>
<path d="M41.09 28.04C40.29 26.62 39.32 25.28 37.38 25.28C35.82 25.28 34.78 26.4 34.78 27.66C34.78 29.67 36.36 30.12 37.73 30.37C39.24 30.58 40.3 30.98 40.9 31.52C41.52 32.06 41.82 32.67 41.82 33.31C41.82 35.24 40.26 36.75 38.11 36.75C37.31 36.75 36.31 36.45 35.1 35.84L34.64 36.3H34.5L33.38 33.54H33.78C34.9 34.96 36.33 36.25 38.12 36.25C39.71 36.25 41.02 35.07 41.02 33.67C41.02 32.94 40.51 31.66 37.74 31.25C36.18 30.99 35.14 30.55 34.65 29.91C34.2 29.34 33.98 28.68 33.98 27.93C33.98 26.08 35.61 24.79 37.39 24.79C38.11 24.79 38.97 25.06 39.99 25.6L40.44 25.23H40.58L41.52 28.04H41.09Z" fill="#1D1D1D"/>
<path d="M26.92 10.4301L28.28 14.0601H28.3L29.66 10.4301H30.68V15.1401H29.89V13.5301L29.97 11.4901H29.95L28.55 15.1401H28.02L26.63 11.5001H26.61L26.69 13.5301V15.1401H25.9V10.4301H26.92Z" fill="#1D1D1D"/>
<path d="M33.3 12.1701L34.29 10.4301H35.22L33.77 12.7701L35.28 15.1501H34.33L33.31 13.3801L32.29 15.1501H31.36L32.84 12.7701L31.39 10.4301H32.32L33.3 12.1701Z" fill="#1D1D1D"/>
</svg>
