<svg width="51" height="56" viewBox="0 0 51 56" fill="none" xmlns="http://www.w3.org/2000/svg">
<path d="M50.53 28C50.53 27.68 50.29 27.42 50.01 27.42H42.52C33.3 27.42 25.8 19.15 25.8 8.99V0.83C25.8 0.52 25.57 0.26 25.29 0.25H25.26C24.97 0.25 24.74 0.51 24.74 0.83V8.99C24.74 19.15 17.24 27.42 8.02 27.42H0.52C0.24 27.42 0 27.68 0 28C0 28.04 0 28.07 0.01 28.1C0 28.12 0 28.15 0 28.19C0 28.51 0.24 28.77 0.52 28.77H8C17.22 28.77 24.72 37.04 24.72 47.2V55.32C24.72 55.63 24.95 55.89 25.23 55.9H25.26C25.55 55.9 25.78 55.64 25.78 55.32V47.2C25.78 37.04 33.28 28.77 42.5 28.77H50C50.29 28.77 50.52 28.51 50.52 28.19C50.52 28.15 50.52 28.12 50.51 28.09C50.52 28.06 50.53 28.03 50.53 28Z" fill="#1F140F"/>
</svg>
