<svg width="61" height="66" viewBox="0 0 61 66" xmlns="http://www.w3.org/2000/svg">
<path fill="#fff" d="M59.84 32.85C59.84 32.48 59.57 32.18 59.23 32.18H50.49C39.74 32.18 30.99 22.54 30.99 10.69V1.17C30.99 0.8 30.72 0.5 30.39 0.5H30.35C30.01 0.5 29.74 0.8 29.74 1.17V10.68C29.74 22.53 20.99 32.17 10.24 32.17H1.52002C1.18002 32.17 0.909973 32.47 0.909973 32.84C0.909973 32.88 0.909983 32.92 0.919983 32.95C0.909983 32.98 0.909973 33.02 0.909973 33.06C0.909973 33.43 1.18002 33.73 1.52002 33.73H10.24C20.99 33.73 29.74 43.37 29.74 55.22V64.68C29.74 65.05 30.01 65.35 30.34 65.35H30.38C30.72 65.35 30.99 65.05 30.99 64.68V55.22C30.99 43.37 39.74 33.73 50.49 33.73H59.23C59.57 33.73 59.84 33.43 59.84 33.06C59.84 33.02 59.84 32.98 59.83 32.95C59.83 32.93 59.84 32.89 59.84 32.85Z" stroke="#1F140F" stroke-miterlimit="10"/>
</svg>
