<svg width="55" height="57" viewBox="0 0 55 57" fill="none" xmlns="http://www.w3.org/2000/svg">
<path d="M48.49 37.94C49.18 39.25 49.55 40.64 49.55 42.08C49.55 49.53 39.64 55.56 27.42 55.56C15.2 55.56 5.3 49.53 5.3 42.08C5.3 40.77 5.61 39.5 6.18 38.31" stroke="#1F140F" stroke-miterlimit="10" stroke-linecap="round" stroke-linejoin="round"/>
<path d="M17.17 6.85001C20.21 5.20001 23.7 4.26001 27.42 4.26001C30.73 4.26001 33.86 5.00001 36.64 6.33001" stroke="#1F140F" stroke-miterlimit="10" stroke-linecap="round" stroke-linejoin="round"/>
<path d="M27.43 49.36C41.2206 49.36 52.4 38.4223 52.4 24.93C52.4 11.4377 41.2206 0.5 27.43 0.5C13.6395 0.5 2.46 11.4377 2.46 24.93C2.46 38.4223 13.6395 49.36 27.43 49.36Z" stroke="#1F140F" stroke-miterlimit="10" stroke-linecap="round" stroke-linejoin="round"/>
<path d="M27.68 43.55C23.45 43.41 19.38 42.62 15.77 40.27C12.35 38.05 9.62 35.16 8.76 31.07C8.23 28.57 7.86 25.87 9.4 23.51C9.94 22.68 10.83 22 11.69 21.47C15.03 19.41 18.65 17.98 22.52 17.42C26.81 16.8 31.1 16.92 35.36 18.02C38.64 18.87 41.59 20.31 44.4 22.14C45.6 22.92 46.22 24.13 46.44 25.45C47.28 30.55 45.71 34.82 41.89 38.33C40.26 39.83 38.42 40.95 36.41 41.76C33.62 42.88 30.73 43.58 27.68 43.55Z" stroke="#1F140F" stroke-miterlimit="10" stroke-linecap="round" stroke-linejoin="round"/>
<path d="M51.81 18.88L54.25 20.52L54.19 28.48L51.77 30.48" stroke="#1F140F" stroke-miterlimit="10" stroke-linecap="round" stroke-linejoin="round"/>
<path d="M3.05 18.88L0.610001 20.52L0.669998 28.48L3.09 30.48" stroke="#1F140F" stroke-miterlimit="10" stroke-linecap="round" stroke-linejoin="round"/>
</svg>
