<svg width="57" height="57" viewBox="0 0 57 57" fill="none" xmlns="http://www.w3.org/2000/svg">
<path d="M38.12 44.63C35.42 46.13 32.32 46.98 29.01 46.98C18.62 46.98 10.2 38.56 10.2 28.17C10.2 17.78 18.62 9.35999 29.01 9.35999C35.74 9.35999 41.64 12.89 44.96 18.2C44.96 18.2 48 23.11 46.6 29.47C45.3 35.39 41.42 37.97 38.36 37.78C33.82 37.5 35.08 31.63 35.08 31.63L36.49 19.94" stroke="#020203" stroke-miterlimit="10"/>
<path d="M35.3139 28.9997C35.9088 23.6143 32.9332 18.8666 28.6677 18.3955C24.4022 17.9243 20.4621 21.908 19.8672 27.2934C19.2723 32.6789 22.2479 37.4266 26.5134 37.8977C30.7789 38.3689 34.719 34.3851 35.3139 28.9997Z" stroke="#020203" stroke-miterlimit="10"/>
<path d="M28.59 55.57C43.7226 55.57 55.99 43.3026 55.99 28.17C55.99 13.0374 43.7226 0.769989 28.59 0.769989C13.4574 0.769989 1.19 13.0374 1.19 28.17C1.19 43.3026 13.4574 55.57 28.59 55.57Z" stroke="#020203" stroke-miterlimit="10"/>
</svg>
