<svg width="57" height="57" viewBox="0 0 57 57" fill="none" xmlns="http://www.w3.org/2000/svg">
<path d="M15.68 13.54L19.98 17.91C19.98 17.91 20.98 19.11 20.05 20.63C19.05 22.28 18.47 23.35 18.47 23.35C18.47 23.35 21.19 32.16 33.29 38.46C36.73 36.88 36.73 36.88 36.73 36.88C36.73 36.88 37.8 36.16 38.66 36.81C39.52 37.45 43.31 41.32 43.31 41.32C43.31 41.32 44.46 42.39 43.67 43.68C42.88 44.97 41.45 46.76 41.45 46.76C41.45 46.76 39.16 49.05 35.44 47.98C31.72 46.91 23.56 41.32 19.26 36.81C14.96 32.3 9.68 25.5 8.66 20.63C8.02 17.55 9.52003 16.33 10.31 15.62C11.1 14.9 13.5301 13.33 13.5301 13.33C13.5301 13.33 14.68 12.47 15.68 13.54Z" stroke="#1E1E1E" stroke-miterlimit="10"/>
<path d="M28.34 55.57C43.4726 55.57 55.74 43.3026 55.74 28.17C55.74 13.0374 43.4726 0.769989 28.34 0.769989C13.2074 0.769989 0.940002 13.0374 0.940002 28.17C0.940002 43.3026 13.2074 55.57 28.34 55.57Z" stroke="#020203" stroke-miterlimit="10"/>
<path d="M26.1 14.32C34.91 14.36 42.04 21.52 42.04 30.34C42.04 31.03 41.98 31.7 41.9 32.37" stroke="#020203" stroke-miterlimit="10"/>
<path d="M48.8 33.25C48.92 32.3 49 31.33 49 30.34C49 17.68 38.77 7.41999 26.13 7.35999" stroke="#020203" stroke-miterlimit="10"/>
<path d="M26.07 20.37C31.56 20.4 36 24.85 36 30.35C36 30.78 35.96 31.2 35.91 31.61" stroke="#020203" stroke-miterlimit="10"/>
<path d="M41.9 32.37C41.98 31.7 42.04 31.03 42.04 30.34C42.04 21.52 34.91 14.36 26.1 14.32" stroke="#020203" stroke-miterlimit="10"/>
<path d="M35.91 31.6C35.96 31.19 36 30.77 36 30.34C36 24.85 31.56 20.39 26.07 20.36" stroke="#020203" stroke-miterlimit="10"/>
</svg>
