<svg width="54" height="55" viewBox="0 0 54 55" fill="none" xmlns="http://www.w3.org/2000/svg">
<path d="M26.78 53.56C41.2222 53.56 52.93 41.8523 52.93 27.41C52.93 12.9678 41.2222 1.26001 26.78 1.26001C12.3378 1.26001 0.630005 12.9678 0.630005 27.41C0.630005 41.8523 12.3378 53.56 26.78 53.56Z" stroke="#1F140F" stroke-miterlimit="10"/>
<path d="M24.65 41.28C11.2 40.71 0.619995 34.72 0.619995 27.41C0.619995 22.56 5.28 18.29 12.34 15.8" stroke="#1F140F" stroke-miterlimit="10"/>
<path d="M16.56 14.6C19.7 13.89 23.15 13.5 26.77 13.5C41.21 13.5 52.92 19.73 52.92 27.41C52.92 34.7 42.39 40.67 28.99 41.27" stroke="#1F140F" stroke-miterlimit="10"/>
<path d="M42.84 27.41H52.93" stroke="#1F140F" stroke-miterlimit="10"/>
<path d="M0.619995 27.41H38.5" stroke="#1F140F" stroke-miterlimit="10"/>
<path d="M40.64 29.57C40.06 43 34.07 53.56 26.77 53.56C19.09 53.56 12.86 41.85 12.86 27.41C12.86 23.81 13.25 20.38 13.95 17.25" stroke="#1F140F" stroke-miterlimit="10"/>
<path d="M15.16 13.02C17.65 5.94001 21.92 1.26001 26.78 1.26001C34.07 1.26001 40.06 11.81 40.65 25.23" stroke="#1F140F" stroke-miterlimit="10"/>
<path d="M26.78 43.43V53.56" stroke="#1F140F" stroke-miterlimit="10"/>
<path d="M26.78 1.26001V39.07" stroke="#1F140F" stroke-miterlimit="10"/>
<path d="M14.46 17.32C15.6585 17.32 16.63 16.3485 16.63 15.15C16.63 13.9516 15.6585 12.98 14.46 12.98C13.2615 12.98 12.29 13.9516 12.29 15.15C12.29 16.3485 13.2615 17.32 14.46 17.32Z" stroke="#1F140F" stroke-miterlimit="10"/>
<path d="M40.67 29.57C41.8685 29.57 42.84 28.5985 42.84 27.4C42.84 26.2016 41.8685 25.23 40.67 25.23C39.4715 25.23 38.5 26.2016 38.5 27.4C38.5 28.5985 39.4715 29.57 40.67 29.57Z" stroke="#1F140F" stroke-miterlimit="10"/>
<path d="M26.83 43.43C28.0285 43.43 29 42.4585 29 41.26C29 40.0616 28.0285 39.09 26.83 39.09C25.6315 39.09 24.66 40.0616 24.66 41.26C24.66 42.4585 25.6315 43.43 26.83 43.43Z" stroke="#1F140F" stroke-miterlimit="10"/>
</svg>
