<?xml version="1.0" standalone="no"?>
<!DOCTYPE svg PUBLIC "-//W3C//DTD SVG 20010904//EN"
 "http://www.w3.org/TR/2001/REC-SVG-20010904/DTD/svg10.dtd">
<svg version="1.0" xmlns="http://www.w3.org/2000/svg"
 width="1008.000000pt" height="1008.000000pt" viewBox="0 0 1008.000000 1008.000000"
 preserveAspectRatio="xMidYMid meet">
<metadata>
Created by potrace 1.11, written by Peter Selinger 2001-2013
</metadata>
<g transform="translate(0.000000,1008.000000) scale(0.100000,-0.100000)"
fill="#000000" stroke="none">
<path d="M4719 10076 c-2 -2 -53 -7 -114 -11 -60 -4 -112 -8 -115 -10 -3 -1
-37 -6 -75 -9 -39 -4 -82 -9 -95 -11 -14 -3 -42 -7 -64 -10 -36 -5 -64 -10
-111 -19 -43 -8 -105 -18 -107 -16 -2 1 -15 -3 -29 -9 -15 -5 -46 -13 -70 -16
-24 -4 -52 -11 -62 -17 -10 -5 -21 -7 -24 -4 -4 3 -12 1 -20 -5 -7 -6 -13 -9
-13 -6 0 3 -34 -5 -75 -18 -41 -12 -75 -21 -75 -19 0 3 -13 -2 -30 -11 -16 -9
-30 -13 -30 -11 0 6 -253 -80 -307 -105 -23 -10 -48 -19 -55 -19 -8 0 -18 -4
-23 -8 -6 -5 -28 -16 -50 -25 -22 -8 -67 -28 -100 -43 -33 -15 -62 -28 -65
-29 -8 -1 -231 -115 -280 -143 -67 -38 -214 -126 -220 -132 -3 -3 -21 -14 -40
-24 -33 -19 -270 -183 -280 -195 -3 -4 -23 -19 -45 -35 -22 -16 -44 -34 -50
-40 -5 -7 -19 -18 -31 -26 -125 -87 -441 -397 -612 -600 -11 -14 -31 -36 -42
-50 -31 -35 -178 -232 -232 -310 -119 -171 -358 -597 -358 -637 0 -7 -4 -13
-10 -13 -5 0 -10 -5 -10 -11 0 -6 -6 -25 -14 -42 -8 -18 -26 -61 -41 -97 -14
-36 -30 -74 -35 -85 -27 -61 -111 -308 -125 -366 -11 -49 -25 -64 -104 -117
-47 -31 -88 -59 -91 -62 -3 -3 -45 -32 -95 -64 -50 -32 -92 -63 -93 -68 -2 -4
-8 -8 -13 -8 -19 0 -88 -56 -99 -80 -11 -26 -6 -1425 6 -1481 4 -22 65 -80
178 -169 10 -8 37 -31 60 -50 23 -19 67 -55 96 -80 111 -93 108 -88 135 -195
25 -96 99 -327 126 -390 7 -16 13 -32 14 -35 1 -3 5 -14 10 -25 4 -11 16 -40
26 -65 42 -108 163 -362 188 -392 8 -10 11 -18 6 -18 -4 0 -3 -6 3 -12 5 -7
19 -29 29 -48 11 -19 43 -74 72 -122 28 -48 51 -91 51 -97 0 -5 -13 -38 -29
-73 -64 -142 -112 -314 -129 -463 -11 -93 -7 -342 7 -425 63 -384 262 -751
577 -1064 83 -83 173 -166 179 -166 3 0 16 -10 29 -22 26 -26 44 -40 101 -82
22 -17 42 -33 45 -36 12 -15 267 -180 278 -180 7 0 12 -4 12 -10 0 -5 6 -10
14 -10 7 0 19 -7 26 -15 7 -9 15 -13 18 -10 3 3 12 -1 21 -9 37 -33 483 -246
516 -246 7 0 18 -7 25 -15 7 -8 16 -13 20 -10 5 3 25 -4 47 -14 35 -18 352
-126 398 -136 11 -2 67 -17 125 -34 58 -16 119 -33 135 -36 77 -16 91 -18 108
-19 9 0 17 -4 17 -8 0 -4 8 -6 18 -6 9 0 31 -3 47 -6 17 -4 39 -9 50 -11 11
-2 61 -11 110 -21 50 -9 104 -18 120 -19 17 -2 30 -4 30 -5 0 -1 11 -3 25 -5
14 -1 44 -5 68 -9 118 -17 294 -36 377 -41 28 -1 111 -6 185 -10 150 -8 499
-9 630 -1 184 11 357 26 470 41 14 1 50 6 80 9 30 3 65 8 76 10 27 5 91 16
125 21 24 3 151 28 205 39 12 2 37 7 56 10 20 3 47 10 61 15 14 5 27 7 30 5 3
-3 14 -1 24 4 10 6 32 12 48 15 128 23 668 196 729 235 6 3 17 7 24 8 8 2 28
9 45 17 18 9 57 26 87 40 113 50 239 114 353 179 66 38 121 68 123 68 4 0 97
63 104 71 3 3 12 8 20 11 19 7 247 177 278 207 12 12 22 20 22 17 0 -2 13 8
28 22 15 15 64 61 107 103 163 155 276 293 381 464 69 113 140 257 136 278 -1
4 3 7 10 7 6 0 8 3 5 7 -4 3 -3 11 2 17 10 13 47 129 55 169 2 14 7 31 10 35
3 5 8 24 11 43 2 19 11 77 19 129 13 91 15 335 2 405 -3 17 -7 44 -10 60 -7
40 -16 85 -22 110 -11 41 -47 161 -54 180 -19 48 -23 60 -22 68 1 4 -3 7 -9 7
-5 0 -7 4 -4 10 3 5 1 10 -6 10 -7 0 -9 3 -6 6 3 4 0 16 -8 28 -8 11 -15 27
-15 34 0 8 34 74 76 146 98 169 239 452 259 519 1 4 4 10 5 15 1 4 2 10 1 14
0 5 3 8 8 8 5 0 11 10 15 23 3 13 13 41 22 63 10 21 19 44 20 49 1 6 23 72 49
148 39 115 68 212 79 262 13 59 14 60 136 160 47 39 90 74 96 80 6 5 30 26 54
45 89 71 180 152 179 158 -1 4 -1 9 1 12 1 3 3 205 5 450 1 245 4 571 5 725 2
154 0 290 -4 302 -4 13 -60 56 -139 109 -73 48 -133 91 -135 96 -2 4 -8 8 -13
8 -4 0 -52 31 -106 68 -80 57 -99 74 -106 103 -25 103 -131 404 -176 504 -10
22 -26 58 -36 80 -53 118 -149 305 -212 410 -13 22 -26 48 -30 58 -3 9 -9 17
-14 17 -5 0 -9 5 -9 11 0 23 -269 409 -291 417 -5 2 -9 8 -9 14 0 31 -344 401
-530 570 -130 117 -405 332 -505 395 -11 7 -57 36 -103 65 -100 64 -168 104
-202 121 -14 6 -27 15 -30 18 -9 12 -192 103 -202 101 -5 -1 -8 2 -8 8 0 5 -5
10 -10 10 -6 0 -43 15 -83 34 -155 72 -308 133 -457 182 -58 19 -112 38 -120
41 -8 3 -24 8 -34 10 -11 2 -40 10 -65 19 -25 9 -57 17 -71 19 -14 2 -50 11
-80 20 -30 8 -71 18 -90 21 -19 3 -42 8 -50 11 -8 3 -22 7 -30 8 -18 3 -78 13
-105 19 -11 2 -40 7 -65 11 -25 4 -52 9 -61 10 -9 2 -40 6 -69 10 -29 4 -61 8
-71 10 -9 2 -50 7 -91 10 -40 4 -89 9 -108 11 -45 6 -626 15 -631 10z m307
-155 c3 5 10 6 16 3 6 -4 59 -8 117 -10 58 -1 133 -5 166 -8 101 -8 189 -17
215 -22 38 -7 113 -16 133 -16 9 1 17 -3 17 -8 0 -5 6 -7 13 -4 8 3 36 0 63
-6 27 -7 69 -14 94 -17 25 -2 47 -9 48 -14 2 -5 7 -7 12 -4 6 4 116 -21 300
-70 8 -2 29 -8 45 -14 48 -17 169 -55 175 -56 3 0 24 -7 45 -16 22 -9 74 -29
115 -44 81 -30 118 -46 250 -108 47 -21 87 -39 90 -39 3 0 19 -8 35 -17 31
-19 212 -116 252 -135 13 -6 23 -14 23 -18 0 -5 5 -8 10 -8 6 0 23 -8 38 -19
15 -10 81 -54 147 -97 66 -43 122 -81 125 -84 3 -4 25 -20 50 -37 25 -17 55
-39 67 -49 12 -11 34 -28 49 -39 16 -11 35 -27 44 -36 9 -8 25 -22 36 -30 80
-56 401 -367 490 -473 27 -33 58 -69 69 -81 21 -22 28 -31 85 -105 19 -25 37
-47 40 -50 3 -3 35 -45 71 -95 209 -287 398 -635 521 -960 61 -158 61 -159 63
-165 0 -3 11 -39 25 -80 13 -41 25 -79 26 -85 11 -40 17 -64 21 -87 3 -16 8
-28 12 -28 4 0 8 -11 9 -25 3 -47 5 -55 14 -55 5 0 7 -4 4 -9 -3 -4 1 -34 9
-66 9 -32 17 -72 20 -89 2 -18 6 -43 9 -56 11 -50 34 -190 41 -260 4 -30 8
-71 11 -90 27 -231 22 -729 -10 -935 -3 -16 -8 -52 -11 -80 -4 -27 -8 -61 -11
-75 -2 -14 -7 -41 -10 -60 -3 -19 -12 -66 -21 -105 -8 -38 -16 -79 -18 -90
-11 -53 -37 -162 -43 -175 -3 -8 -7 -19 -8 -25 -1 -5 -3 -12 -4 -15 -2 -5 -5
-19 -14 -55 -2 -11 -9 -32 -14 -46 -6 -15 -8 -30 -5 -33 4 -3 1 -6 -6 -6 -7 0
-10 -3 -8 -7 3 -5 0 -19 -6 -33 -5 -14 -11 -29 -12 -35 -6 -26 -82 -220 -117
-300 -22 -49 -42 -99 -45 -110 -3 -11 -12 -27 -20 -37 -8 -9 -16 -22 -17 -30
-5 -23 -19 -53 -28 -59 -5 -3 -10 -12 -12 -20 -1 -8 -8 -25 -15 -39 -48 -89
-79 -143 -115 -203 -22 -37 -46 -77 -52 -88 -6 -11 -20 -30 -30 -42 -11 -12
-27 -38 -37 -57 -15 -30 -91 -138 -177 -250 -181 -238 -460 -525 -690 -710
-24 -19 -57 -46 -74 -61 -44 -36 -196 -146 -290 -209 -69 -46 -118 -75 -286
-173 -62 -36 -293 -152 -350 -176 -30 -13 -68 -29 -85 -37 -140 -62 -450 -168
-617 -210 -10 -2 -28 -7 -40 -10 -13 -3 -32 -7 -43 -10 -11 -2 -63 -13 -115
-24 -115 -25 -146 -31 -185 -36 -16 -2 -39 -5 -50 -8 -27 -5 -132 -19 -170
-21 -16 -1 -30 -3 -30 -4 0 -19 -649 -32 -815 -17 -36 3 -90 8 -120 10 -30 3
-72 7 -92 10 -42 7 -78 12 -153 22 -49 6 -66 9 -115 19 -14 2 -36 7 -50 9 -14
3 -56 12 -95 20 -38 9 -79 18 -90 20 -80 16 -229 58 -242 69 -7 5 -13 7 -13 4
0 -9 -298 92 -352 119 -15 8 -30 14 -33 14 -3 -1 -25 8 -49 19 -24 10 -60 25
-80 32 -20 7 -36 17 -36 22 0 4 -4 6 -9 2 -5 -3 -17 2 -25 11 -9 8 -16 13 -16
10 0 -8 -233 110 -308 156 -34 21 -64 38 -67 38 -5 0 -74 43 -175 109 -30 19
-56 39 -58 43 -2 5 -8 8 -13 8 -5 0 -62 39 -127 87 -111 83 -126 94 -155 118
-7 6 -28 23 -47 39 -160 132 -411 379 -539 531 -107 128 -292 375 -299 398 -2
9 -8 17 -12 17 -4 0 -13 14 -20 30 -7 17 -16 30 -20 30 -4 0 -10 8 -14 18 -3
9 -19 37 -35 62 -17 25 -36 56 -44 70 -91 163 -148 273 -191 370 -16 36 -42
94 -59 130 -16 36 -30 70 -32 75 -1 6 -5 17 -8 25 -53 139 -99 277 -95 290 1
3 -4 14 -10 26 -24 44 -108 401 -128 544 -3 19 -7 46 -10 60 -5 29 -14 102
-20 175 -2 28 -7 79 -10 115 -8 80 -12 562 -6 574 3 4 6 38 8 75 4 70 12 166
15 166 0 0 2 11 4 25 5 56 19 149 31 213 3 17 8 41 10 52 5 34 14 79 19 100 2
11 5 22 5 25 0 3 12 48 26 100 13 52 27 103 29 114 7 30 77 249 88 276 6 14
11 27 12 30 6 24 29 87 35 95 9 12 24 67 22 78 -1 4 1 7 6 7 4 0 13 15 20 33
25 60 30 72 91 197 56 118 158 309 170 320 3 3 12 15 19 28 6 12 18 32 25 45
6 12 14 24 17 27 3 3 27 39 54 80 60 92 213 299 238 321 10 9 18 20 18 23 0 4
6 13 12 20 7 8 42 47 78 87 184 210 475 479 675 625 22 16 42 32 45 35 9 10
323 216 365 239 22 12 56 31 75 42 74 44 408 207 420 205 3 0 16 6 30 13 14 8
30 15 35 16 6 1 42 16 82 32 39 17 74 28 77 24 3 -3 6 0 6 7 0 7 4 10 8 7 4
-2 21 1 37 9 69 31 445 138 562 160 15 2 39 7 53 10 37 8 189 33 235 39 22 3
56 8 75 11 19 3 61 7 93 10 31 3 83 8 115 11 31 3 115 7 185 8 70 2 130 6 133
8 2 3 23 2 44 -2 22 -4 43 -3 46 1z m-4520 -3393 c-2 -13 -6 -36 -9 -53 -4
-16 -9 -42 -11 -58 -3 -15 -9 -53 -15 -85 -12 -70 -19 -119 -27 -180 -3 -26
-7 -58 -9 -72 -27 -170 -26 -680 1 -920 3 -25 7 -63 9 -85 3 -41 12 -98 21
-147 3 -15 7 -43 9 -63 3 -32 1 -35 -13 -23 -10 7 -24 20 -32 28 -8 9 -30 26
-48 39 -19 13 -43 33 -55 45 -12 11 -34 30 -49 40 -26 19 -26 20 -28 160 -2
161 -11 1149 -10 1184 0 24 35 61 58 62 6 0 12 4 12 8 0 5 17 18 38 30 20 12
64 42 97 66 33 25 61 45 62 46 1 0 0 -10 -1 -22z m8955 2 c10 0 60 -34 93 -62
11 -10 25 -18 32 -18 7 0 14 -4 16 -8 2 -4 27 -23 56 -42 l53 -34 -5 -495 c-3
-273 -5 -577 -6 -676 l-1 -180 -81 -65 c-44 -36 -86 -69 -92 -75 -6 -5 -22
-19 -34 -29 l-22 -19 4 44 c3 24 5 44 6 44 4 0 18 97 26 170 3 28 7 66 9 85
18 168 24 611 11 765 -4 39 -8 97 -11 130 -2 33 -6 74 -8 90 -3 17 -8 53 -12
80 -4 28 -9 59 -12 70 -6 33 -16 99 -16 113 0 6 -3 12 -6 12 -3 0 -6 10 -6 23
-1 12 -4 40 -8 62 -3 22 -4 34 -1 28 3 -7 10 -13 15 -13z m-675 -3515 c3 -11
7 -22 8 -25 18 -49 46 -159 52 -205 2 -16 7 -50 11 -75 17 -104 4 -410 -18
-452 -5 -10 -8 -18 -5 -18 9 0 -41 -166 -78 -258 -43 -107 -162 -322 -178
-322 -6 0 -9 -3 -5 -6 3 -3 1 -11 -4 -18 -6 -6 -28 -36 -50 -66 -63 -86 -197
-232 -284 -310 -149 -133 -213 -182 -370 -287 -60 -40 -115 -77 -122 -83 -7
-5 -15 -10 -18 -10 -4 0 -45 -23 -91 -50 -47 -28 -91 -51 -97 -53 -7 -1 -14
-4 -17 -7 -14 -14 -110 -60 -110 -53 0 4 -4 4 -8 -2 -7 -10 -76 -46 -97 -51
-5 -1 -41 -16 -78 -34 -64 -29 -300 -120 -322 -124 -5 -1 -14 -4 -20 -7 -8 -5
-55 -19 -75 -23 -3 -1 -9 -4 -15 -7 -13 -8 -78 -23 -87 -21 -5 1 -8 -2 -8 -6
0 -5 -6 -9 -12 -9 -7 0 -49 -10 -93 -22 -44 -13 -88 -24 -98 -26 -9 -2 -21 -6
-25 -9 -4 -2 -27 -7 -52 -11 -25 -4 -49 -9 -54 -12 -5 -4 -19 -7 -30 -9 -12
-2 -32 -6 -46 -9 -14 -3 -36 -8 -50 -11 -14 -2 -45 -9 -70 -14 -42 -9 -127
-24 -195 -34 -16 -2 -50 -8 -75 -12 -57 -9 -83 -13 -145 -20 -27 -3 -63 -7
-80 -9 -16 -2 -67 -7 -112 -10 -45 -3 -93 -8 -105 -10 -13 -3 -90 -7 -171 -10
-82 -3 -153 -7 -158 -10 -5 -4 -9 -1 -9 5 0 6 -5 8 -12 4 -19 -12 -252 -11
-260 1 -5 7 -8 7 -8 0 0 -5 -15 -9 -32 -8 -18 1 -33 2 -33 3 0 1 -82 5 -267
13 -32 1 -58 4 -58 7 0 3 -26 5 -58 6 -31 0 -77 4 -102 7 -25 3 -70 9 -100 12
-30 3 -80 10 -110 15 -30 5 -75 12 -100 16 -73 11 -83 12 -140 23 -88 17 -104
20 -130 26 -14 3 -34 7 -45 10 -11 2 -31 6 -45 10 -14 3 -34 7 -45 9 -11 2
-74 18 -140 36 -66 18 -128 33 -137 33 -10 1 -18 5 -18 9 0 4 -3 7 -7 6 -5 -1
-35 7 -68 17 -33 10 -62 19 -65 20 -16 3 -117 39 -125 44 -5 3 -21 7 -35 9
-13 2 -28 9 -32 15 -4 7 -8 9 -8 5 0 -8 -202 74 -347 141 -287 134 -564 306
-788 491 -38 31 -272 265 -305 305 -89 106 -172 229 -235 348 -41 77 -111 244
-119 284 -1 10 -6 25 -9 33 -7 16 -16 57 -23 100 -2 14 -10 61 -17 105 -17
112 -13 329 8 425 3 14 10 45 15 70 5 25 13 57 19 73 6 15 8 27 5 27 -4 0 0 7
7 17 8 9 12 17 10 17 -6 1 20 79 30 92 5 6 6 14 2 17 -3 4 -1 7 5 7 6 0 17
-10 23 -22 7 -13 15 -25 18 -28 4 -3 18 -21 31 -40 13 -19 27 -37 30 -40 3 -3
29 -36 59 -74 29 -37 60 -77 69 -88 98 -117 157 -181 283 -307 127 -127 138
-138 264 -246 39 -33 72 -62 75 -65 12 -14 181 -141 245 -185 39 -27 72 -52
73 -57 2 -4 8 -8 13 -8 5 0 31 -15 57 -33 165 -115 437 -262 677 -367 66 -28
134 -58 150 -65 39 -17 145 -55 169 -60 10 -2 23 -8 30 -13 6 -5 22 -12 36
-15 39 -8 62 -15 100 -28 58 -20 64 -22 85 -26 11 -2 31 -8 45 -13 14 -6 34
-12 45 -14 11 -2 67 -15 125 -29 137 -33 286 -62 365 -72 22 -3 51 -7 65 -10
14 -3 48 -8 75 -11 28 -2 61 -7 75 -9 158 -26 812 -27 980 0 14 2 52 7 85 10
131 16 178 24 340 57 83 17 160 32 173 32 12 1 22 4 22 7 0 3 6 6 13 7 19 1
48 8 128 33 79 24 83 25 114 33 60 14 255 84 397 142 130 53 440 202 449 216
3 5 10 10 15 10 13 -1 188 100 192 110 2 4 8 8 13 8 11 0 271 171 289 190 3 3
30 23 60 45 30 22 57 42 60 45 3 3 28 23 55 45 28 22 55 44 61 50 7 5 38 32
70 60 206 175 404 383 592 620 40 50 76 95 82 102 5 7 10 17 10 23 0 5 3 10 8
10 4 0 18 18 32 40 l25 41 17 -38 c9 -21 20 -47 24 -58z"/>
<path d="M4735 9401 c-2 -2 -30 -5 -62 -6 -32 -2 -76 -6 -98 -9 -22 -4 -65 -9
-95 -12 -30 -3 -68 -7 -85 -9 -16 -2 -30 -4 -30 -5 0 -1 -11 -3 -25 -5 -14 -2
-38 -6 -55 -9 -16 -4 -46 -9 -65 -12 -56 -9 -73 -12 -109 -23 -18 -6 -36 -10
-40 -9 -3 0 -8 -1 -11 -2 -3 -1 -12 -3 -20 -5 -126 -26 -445 -130 -585 -190
-152 -65 -361 -170 -382 -191 -21 -21 -24 -73 -6 -101 8 -13 30 -25 49 -29 29
-5 52 3 152 54 173 89 480 213 587 238 28 7 38 10 55 17 21 9 247 65 290 72
19 3 42 8 50 10 8 2 31 7 50 10 19 3 60 10 90 15 30 5 82 12 115 15 33 3 71 8
85 10 77 14 540 26 540 15 0 -3 30 -5 68 -6 66 0 198 -10 257 -19 17 -3 47 -7
68 -10 127 -17 277 -48 402 -80 130 -35 280 -82 331 -104 24 -11 44 -18 44
-16 0 5 166 -63 257 -105 33 -16 69 -27 80 -25 10 2 23 4 28 4 22 2 47 61 41
96 -6 30 -15 37 -82 69 -120 58 -425 176 -494 191 -8 2 -28 8 -45 15 -16 6
-32 11 -35 11 -3 -1 -27 5 -55 13 -51 14 -180 44 -225 52 -14 3 -31 7 -38 9
-7 2 -34 7 -60 10 -43 6 -63 9 -117 20 -21 4 -101 13 -175 20 -25 3 -74 8
-110 11 -72 7 -529 11 -535 5z"/>
<path d="M4231 8410 c-10 -7 -8 -750 1 -751 5 0 22 -1 38 -1 17 0 42 1 56 1
l26 1 -4 259 c-3 142 -7 262 -10 267 -3 5 -2 18 3 29 6 17 8 18 8 2 1 -9 5
-25 11 -35 15 -27 143 -365 143 -379 0 -7 4 -13 9 -13 4 0 8 -6 8 -12 0 -7 10
-36 22 -65 16 -39 27 -53 42 -54 36 -2 61 3 67 13 4 5 41 101 84 211 42 111
83 216 90 232 7 17 18 47 25 67 16 53 28 55 23 5 -2 -23 -5 -151 -8 -284 l-4
-242 27 -3 c15 -2 44 -1 65 1 l37 3 0 373 0 374 -27 3 c-16 2 -54 1 -85 0 -56
-4 -57 -4 -68 -40 -7 -21 -17 -50 -24 -67 -7 -16 -34 -88 -61 -160 -26 -71
-53 -143 -60 -160 -7 -16 -19 -48 -26 -70 -18 -55 -37 -83 -43 -64 -2 8 -21
59 -42 114 -20 55 -47 129 -60 165 -13 36 -28 73 -34 82 -5 10 -10 25 -10 33
0 8 -4 23 -10 33 -5 9 -19 43 -30 74 l-21 56 -75 4 c-42 2 -79 1 -83 -2z"/>
<path d="M5143 8412 c-37 -4 -38 -6 -15 -44 9 -15 59 -94 110 -176 50 -82 92
-152 92 -155 0 -6 -23 -43 -125 -207 -12 -19 -40 -64 -63 -100 -23 -35 -39
-66 -37 -69 3 -2 35 -5 71 -6 73 -2 70 -4 130 105 10 19 21 37 24 40 6 6 23
36 52 91 11 21 23 39 27 39 7 0 81 -128 81 -141 0 -5 4 -9 9 -9 5 0 15 -15 22
-32 31 -77 56 -95 127 -93 34 1 64 4 67 6 4 4 -80 141 -186 304 -21 33 -39 66
-39 73 0 7 18 40 40 73 22 33 40 62 40 64 0 2 32 54 70 116 39 61 69 114 66
116 -5 5 -32 6 -106 4 -31 -1 -38 -7 -67 -57 -18 -31 -33 -60 -33 -65 0 -5 -5
-9 -12 -9 -6 0 -9 -3 -6 -6 3 -3 -9 -31 -28 -61 -19 -31 -34 -61 -34 -66 0
-27 -42 37 -124 188 -15 28 -34 56 -41 63 -13 14 -55 19 -112 14z"/>
<path d="M4897 7114 c-1 -1 -78 -5 -172 -9 -93 -4 -183 -8 -200 -10 -16 -2
-61 -6 -100 -9 -38 -4 -83 -8 -100 -10 -97 -11 -157 -18 -210 -26 -33 -5 -80
-12 -105 -15 -25 -4 -75 -13 -112 -21 -37 -7 -82 -16 -100 -19 -18 -3 -60 -13
-93 -21 -33 -9 -69 -17 -80 -18 -12 -1 -27 -6 -34 -10 -7 -4 -15 -5 -18 -2 -3
3 -11 2 -17 -3 -7 -6 -24 -12 -40 -15 -28 -5 -156 -42 -186 -53 -8 -3 -21 -8
-27 -10 -7 -1 -19 -5 -25 -6 -7 -2 -26 -9 -41 -15 -16 -7 -30 -12 -33 -12 -16
0 -305 -113 -409 -160 -222 -101 -524 -260 -694 -367 -20 -13 -46 -28 -58 -35
-13 -6 -23 -15 -23 -20 0 -4 -5 -8 -10 -8 -6 0 -16 -4 -23 -10 -7 -5 -39 -31
-72 -57 -175 -137 -305 -317 -377 -523 -27 -78 -60 -219 -53 -230 3 -5 1 -11
-5 -15 -5 -3 -9 -16 -9 -28 1 -41 -10 -167 -16 -176 -3 -5 -1 -12 4 -16 10 -5
8 -36 -4 -54 -3 -5 -1 -12 5 -16 7 -4 7 -12 0 -26 -6 -10 -7 -19 -3 -19 4 0 8
-21 9 -48 1 -43 5 -93 18 -197 5 -39 11 -76 21 -125 3 -14 8 -41 11 -60 11
-69 12 -75 14 -80 1 -3 3 -9 4 -15 63 -342 213 -678 431 -965 98 -129 122
-156 261 -295 137 -137 146 -145 269 -243 50 -40 95 -77 102 -82 38 -31 327
-221 373 -246 30 -16 57 -32 60 -35 32 -36 575 -267 670 -284 3 -1 32 -9 65
-19 80 -24 164 -46 195 -51 14 -3 43 -9 65 -14 22 -6 56 -13 75 -16 19 -3 52
-10 74 -16 21 -6 40 -8 43 -5 3 2 15 1 27 -4 12 -4 51 -11 86 -15 36 -4 74 -9
85 -12 22 -5 47 -8 145 -18 36 -3 81 -8 100 -10 238 -24 629 -24 783 0 18 3
55 7 82 10 28 2 50 5 50 6 0 0 11 2 25 4 14 2 41 6 60 10 19 3 49 8 65 10 17
3 67 13 113 24 45 10 85 19 87 20 3 1 6 1 8 2 1 0 9 2 17 4 144 30 565 166
652 211 15 8 30 14 33 14 21 0 339 152 365 175 8 8 19 14 23 14 4 0 31 14 60
32 29 19 61 38 72 44 26 14 108 68 115 75 14 15 80 60 80 56 0 -4 8 2 18 12
10 9 33 28 52 42 19 14 41 32 50 40 8 8 36 31 60 50 46 35 313 299 363 358
140 166 284 385 366 557 54 112 82 173 86 185 3 8 11 32 24 70 7 19 13 40 14
45 2 6 5 15 8 20 4 6 12 35 19 65 7 30 16 62 20 70 5 8 11 32 14 52 3 21 11
59 17 85 5 27 13 66 15 88 3 22 7 51 10 65 23 144 23 501 0 668 -14 94 -18
120 -22 147 -17 107 -76 273 -124 348 -16 26 -30 50 -30 52 0 9 -44 59 -110
126 -36 36 -112 96 -170 134 -58 37 -117 76 -132 86 -15 10 -32 19 -38 19 -5
0 -10 5 -10 10 0 6 -4 10 -10 10 -8 0 -119 61 -180 99 -31 20 -368 188 -435
218 -38 17 -95 42 -126 56 -30 14 -118 48 -195 77 -76 28 -152 56 -169 63 -16
6 -35 12 -42 13 -7 1 -44 12 -82 24 -39 12 -73 21 -76 21 -2 0 -23 6 -45 14
-22 8 -40 12 -40 9 0 -2 -13 2 -29 10 -16 9 -30 13 -33 11 -2 -3 -20 0 -39 6
-39 11 -334 74 -394 84 -22 3 -56 8 -75 11 -19 3 -46 7 -60 9 -79 13 -252 32
-360 40 -133 11 -555 25 -563 19z m452 -174 c15 -4 35 -3 44 2 10 5 17 5 17 1
0 -5 26 -10 58 -11 31 -2 71 -5 87 -7 17 -2 57 -6 90 -10 67 -7 123 -14 175
-22 19 -3 50 -6 67 -6 18 -1 33 -4 33 -7 0 -3 15 -7 33 -9 40 -4 72 -9 72 -11
0 -2 31 -8 65 -14 14 -2 50 -10 80 -17 30 -7 61 -12 68 -10 6 1 12 -2 12 -6 0
-4 10 -9 23 -10 26 -2 76 -12 97 -20 22 -9 53 -17 101 -28 28 -6 89 -24 114
-34 11 -5 52 -18 90 -31 75 -23 304 -108 320 -118 6 -4 15 -7 20 -8 16 -2 142
-60 280 -127 66 -33 122 -59 125 -59 3 0 16 -8 30 -17 14 -9 43 -26 65 -36 22
-11 42 -23 45 -26 3 -3 20 -11 38 -18 17 -8 32 -17 32 -21 0 -4 11 -11 24 -14
14 -3 31 -12 38 -19 7 -6 29 -21 48 -31 19 -11 89 -53 155 -94 123 -77 254
-196 285 -257 8 -16 20 -35 27 -42 9 -11 31 -62 69 -168 9 -26 11 -33 18 -75
4 -19 9 -42 12 -51 2 -9 7 -39 10 -65 3 -27 7 -62 9 -79 23 -165 23 -455 0
-625 -9 -72 -22 -145 -25 -145 -1 0 -3 -9 -5 -20 -17 -102 -20 -113 -64 -245
-45 -133 -117 -292 -188 -415 -26 -44 -50 -82 -53 -85 -3 -3 -24 -34 -48 -70
-23 -36 -50 -75 -60 -86 -10 -10 -23 -26 -28 -35 -28 -49 -304 -338 -399 -420
-24 -20 -168 -135 -210 -167 -35 -27 -175 -118 -246 -160 -75 -45 -306 -165
-319 -167 -3 -1 -27 -11 -54 -23 -27 -12 -50 -22 -51 -22 -1 0 -20 -8 -41 -17
-22 -9 -41 -17 -44 -18 -3 0 -59 -20 -125 -44 -66 -24 -124 -44 -130 -46 -5
-1 -14 -3 -20 -5 -5 -1 -17 -6 -26 -11 -9 -4 -27 -10 -40 -13 -13 -3 -55 -14
-94 -26 -38 -12 -81 -23 -94 -26 -14 -3 -28 -7 -31 -9 -4 -2 -20 -7 -36 -9
-16 -3 -40 -8 -54 -11 -22 -5 -131 -28 -185 -38 -41 -9 -121 -20 -150 -22 -16
-2 -44 -5 -60 -8 -90 -18 -436 -25 -625 -13 -148 10 -340 29 -395 40 -11 2
-45 7 -75 10 -158 20 -450 86 -622 142 -44 14 -85 27 -91 28 -7 2 -21 7 -32
11 -24 10 -159 63 -195 77 -14 5 -26 9 -27 9 -12 -2 -318 161 -385 205 -21 13
-42 24 -48 24 -5 0 -10 5 -10 10 0 6 -4 10 -10 10 -8 0 -190 124 -225 152 -5
5 -35 28 -65 51 -154 117 -382 335 -475 452 -22 28 -42 52 -45 55 -3 3 -22 28
-41 55 -18 28 -36 52 -39 55 -18 17 -121 190 -161 270 -63 129 -134 313 -153
400 -3 14 -15 66 -26 115 -19 88 -51 265 -67 375 -10 70 -10 400 0 460 15 87
18 105 27 130 4 14 15 48 24 77 15 50 70 168 104 227 69 118 288 309 450 393
17 9 32 20 32 25 0 4 5 8 11 8 7 0 33 13 59 29 89 55 394 209 525 266 72 31
144 63 162 71 17 7 36 14 42 14 6 0 25 6 43 14 33 14 61 24 76 27 4 0 12 4 17
9 34 26 519 162 659 185 15 2 35 7 45 9 9 3 39 8 66 12 28 3 59 8 70 10 11 2
40 7 65 10 25 3 59 7 75 11 17 3 44 6 60 8 17 1 30 3 30 4 0 1 27 4 60 6 33 3
78 7 100 9 22 3 83 8 135 12 52 3 96 7 98 9 7 7 657 2 681 -5z"/>
<path d="M3771 6108 c-103 -8 -205 -38 -290 -84 -68 -37 -174 -135 -185 -172
-4 -12 -11 -22 -15 -22 -4 0 -8 -6 -9 -12 0 -7 -8 -33 -17 -58 -20 -54 -25
-168 -9 -230 55 -216 205 -316 674 -450 306 -88 436 -203 443 -390 5 -158
-106 -283 -299 -336 -76 -21 -251 -25 -334 -9 -238 47 -372 165 -395 346 -4
30 -9 57 -11 60 -2 3 -34 6 -71 5 l-68 -1 2 -66 c2 -75 31 -163 74 -226 69
-101 217 -191 384 -236 80 -21 109 -24 240 -22 174 3 264 22 376 81 181 95
261 227 255 418 -7 212 -111 337 -376 454 -46 21 -192 70 -226 76 -11 2 -39
10 -64 17 -25 7 -47 13 -50 14 -100 27 -244 91 -288 129 -44 37 -82 81 -82 94
0 6 -4 12 -10 12 -5 0 -10 9 -10 19 0 11 -4 22 -9 26 -10 6 -11 10 -11 85 -1
238 235 381 570 345 30 -3 62 -8 70 -12 8 -3 24 -8 34 -10 38 -7 122 -59 168
-103 71 -70 117 -166 120 -255 1 -19 4 -36 7 -36 26 -5 124 -3 133 2 10 6 7
79 -5 129 -17 68 -22 80 -69 160 -7 13 -41 52 -76 87 -134 133 -327 191 -571
171z"/>
<path d="M5995 6108 c-181 -20 -343 -126 -424 -277 -18 -34 -29 -61 -25 -61 3
0 2 -6 -4 -13 -21 -24 -30 -142 -19 -232 15 -115 90 -241 180 -304 76 -52 236
-109 382 -136 57 -11 90 -17 110 -19 170 -23 357 -133 414 -243 118 -232 -98
-523 -399 -539 -171 -8 -327 50 -490 185 -77 64 -219 211 -203 211 20 0 -45
34 -68 36 l-27 2 25 -66 c29 -79 58 -151 84 -209 11 -24 19 -47 19 -51 0 -5 6
-22 14 -38 8 -16 19 -41 25 -56 14 -37 31 -35 68 7 17 19 36 35 41 35 5 0 44
-16 87 -36 43 -20 83 -37 89 -39 6 -1 25 -8 41 -14 75 -31 207 -52 304 -47 88
4 106 7 151 23 8 4 21 7 28 9 56 11 157 77 223 145 40 41 116 149 105 149 -3
0 1 12 9 27 8 15 12 30 9 35 -3 4 -1 8 3 8 5 0 9 8 9 18 1 9 4 37 9 62 9 56 8
127 -4 148 -5 10 -9 21 -9 25 0 4 -10 28 -23 53 -25 52 -104 136 -164 175 -88
56 -270 115 -420 136 -79 10 -224 52 -280 79 -196 96 -274 318 -182 517 41 89
158 185 245 202 12 2 26 6 31 10 19 11 178 8 231 -5 76 -18 171 -65 221 -111
24 -21 46 -40 50 -41 12 -5 148 -190 164 -224 8 -17 21 -36 29 -43 13 -11 50
-11 61 0 4 4 -112 362 -140 431 -6 14 -11 16 -28 6 -11 -6 -30 -19 -41 -29
-26 -25 -31 -24 -112 15 -141 69 -275 97 -399 84z"/>
<path d="M3066 3793 c-3 -4 -12 -8 -19 -9 -47 -10 -83 -31 -78 -44 7 -17 42
-72 51 -80 3 -3 16 -19 28 -36 31 -45 103 -116 190 -188 85 -69 225 -166 242
-166 5 0 10 -4 10 -8 0 -10 50 -37 63 -34 4 1 7 -2 7 -7 0 -5 11 -12 25 -15
14 -4 25 -11 25 -16 0 -6 6 -10 13 -10 6 0 41 -15 77 -33 120 -62 404 -166
470 -172 9 -1 32 -8 53 -14 20 -7 41 -10 46 -7 5 4 12 2 15 -3 5 -7 30 -13
126 -27 8 -1 29 -4 45 -7 93 -16 188 -25 345 -32 63 -3 129 -6 145 -7 17 -1
38 1 48 5 9 3 17 2 17 -3 0 -6 9 -6 23 -1 12 5 31 5 42 1 11 -4 24 -5 29 -2 5
3 37 6 70 8 82 3 195 13 226 18 14 3 45 7 70 10 56 8 87 13 175 32 39 8 79 17
91 19 127 27 387 122 539 199 166 83 242 129 375 225 85 62 75 53 166 143 79
77 76 74 132 152 48 68 48 68 -46 100 l-52 18 -21 -26 c-105 -133 -301 -275
-529 -383 -139 -66 -280 -125 -280 -116 0 3 -6 1 -12 -4 -7 -6 -26 -14 -43
-18 -16 -5 -34 -10 -40 -11 -39 -12 -154 -45 -170 -49 -11 -2 -38 -9 -60 -14
-22 -5 -56 -12 -75 -15 -19 -3 -60 -10 -90 -16 -60 -12 -84 -15 -205 -27 -89
-9 -667 -8 -730 1 -22 3 -51 8 -65 10 -14 2 -54 7 -90 11 -74 9 -79 10 -100
18 -8 3 -44 10 -80 17 -103 18 -302 76 -395 115 -16 7 -46 18 -65 26 -49 18
-244 112 -310 150 -108 62 -206 136 -292 221 -49 48 -88 92 -88 98 0 11 -33
14 -44 3z"/>
</g>
</svg>
